<?xml version="1.0" standalone="no"?>
<!DOCTYPE svg PUBLIC "-//W3C//DTD SVG 20010904//EN"
 "http://www.w3.org/TR/2001/REC-SVG-20010904/DTD/svg10.dtd">
<svg version="1.0" xmlns="http://www.w3.org/2000/svg"
 width="854.000000pt" height="854.000000pt" viewBox="0 0 854.000000 854.000000"
 preserveAspectRatio="xMidYMid meet">
<metadata>
Created by potrace 1.14, written by Peter Selinger 2001-2017
</metadata>
<g transform="translate(0.000000,854.000000) scale(0.100000,-0.100000)"
fill="#000000" stroke="none">
<path d="M2 6405 l1 -546 2899 1 c2694 1 2901 3 2920 18 11 9 28 24 37 33 9 8
38 33 66 55 27 21 56 44 63 51 7 7 34 29 60 50 26 21 49 41 52 44 3 3 50 43
105 88 55 46 111 92 125 104 14 12 162 136 330 276 168 140 321 268 340 285
19 17 51 43 70 58 l35 28 -3551 0 -3552 0 0 -545z"/>
<path d="M8505 6929 c-29 -25 -484 -384 -610 -481 -5 -4 -28 -23 -51 -40 -23
-18 -56 -45 -75 -60 -209 -163 -542 -426 -574 -453 l-40 -34 690 0 690 -1 0
539 c0 297 -2 541 -5 544 -3 2 -14 -4 -25 -14z"/>
<path d="M2125 3500 c0 -1045 3 -1900 7 -1900 6 0 283 214 588 453 41 32 89
69 105 82 17 12 75 58 130 102 55 43 200 156 323 251 l222 173 0 52 c1 79 1
2253 1 2485 l-1 202 -687 0 -688 0 0 -1900z"/>
<path d="M7149 4638 c-1 -420 -1 -765 -1 -768 1 -7 -15 -131 -23 -185 -12 -75
-48 -204 -78 -275 -6 -14 -11 -27 -12 -30 -5 -22 -61 -116 -98 -167 -159 -215
-397 -361 -728 -447 -52 -13 -115 -27 -139 -31 -25 -4 -47 -8 -50 -10 -3 -1
-30 -6 -61 -9 -31 -4 -67 -9 -80 -11 -13 -3 -51 -7 -84 -10 -33 -3 -80 -7
-105 -10 -139 -13 -266 -18 -540 -20 -168 -2 -308 -4 -312 -4 -5 -1 -320 -259
-488 -401 -25 -21 -65 -55 -90 -75 -25 -21 -65 -54 -90 -75 -103 -86 -370
-308 -408 -338 -23 -19 -51 -43 -64 -54 -13 -11 -52 -43 -87 -71 l-63 -52 43
-3 c68 -5 2018 6 2069 11 25 3 86 8 135 12 50 3 104 8 120 10 17 2 57 7 90 10
33 3 74 8 90 11 17 2 46 6 65 8 46 6 102 15 170 27 30 5 73 12 95 15 22 3 58
10 80 16 22 6 49 12 60 14 151 29 396 102 572 170 325 125 592 293 804 504
134 133 168 176 289 360 31 48 99 186 135 275 74 185 123 384 150 610 3 28 8
70 11 95 3 25 7 408 8 853 l1 807 -692 0 -693 0 -1 -762z"/>
</g>
</svg>
