<?xml version="1.0" encoding="UTF-8"?>
<!DOCTYPE svg PUBLIC "-//W3C//DTD SVG 1.1//EN" "http://www.w3.org/Graphics/SVG/1.1/DTD/svg11.dtd">
<!-- Creator: CorelDRAW 2020 (64 Bit) -->
<svg xmlns="http://www.w3.org/2000/svg" xml:space="preserve" width="1284px" height="357px" version="1.1" style="shape-rendering:geometricPrecision; text-rendering:geometricPrecision; image-rendering:optimizeQuality; fill-rule:evenodd; clip-rule:evenodd"
viewBox="0 0 1284 356.97"
 xmlns:xlink="http://www.w3.org/1999/xlink"
 xmlns:xodm="http://www.corel.com/coreldraw/odm/2003">
 <defs>
  <style type="text/css">
   <![CDATA[
    .fil0 {fill:#003882;fill-rule:nonzero}
    .fil1 {fill:#6EC9E0;fill-rule:nonzero}
   ]]>
  </style>
 </defs>
 <g id="Layer_x0020_1">
  <metadata id="CorelCorpID_0Corel-Layer"/>
  <path class="fil0" d="M471.43 212.92c0,-3.65 -1.17,-6.82 -3.52,-9.51 -2.31,-2.67 -6.52,-4.02 -12.61,-4.02l-17.03 0 0 28.43 2.66 0c1.17,0 2.38,0.03 3.65,0.07 1.26,0.07 2.48,0.09 3.65,0.09l2.5 0c7.82,0 13.21,-1.17 16.2,-3.51 2.98,-2.32 4.5,-5.63 4.5,-9.88l0 -1.67zm-0.62 -45.92c0,-4.15 -1.54,-7.23 -4.64,-9.21 -3.08,-1.97 -8.55,-2.96 -16.35,-2.96l-2.51 0 -3.33 0c-1.17,0 -2.29,0.02 -3.35,0.07 -1.06,0.07 -1.86,0.09 -2.36,0.09l0 26.3 17.03 0c3.04,0 5.54,-0.32 7.54,-0.99 1.97,-0.67 3.54,-1.52 4.71,-2.57 1.15,-1.08 2,-2.35 2.5,-3.81 0.51,-1.47 0.76,-3.01 0.76,-4.64l0 -2.28zm25.86 48.21c0,6.69 -1.29,12.24 -3.81,16.66 -2.52,4.4 -5.95,7.9 -10.27,10.47 -4.29,2.6 -9.37,4.39 -15.2,5.39 -5.84,1.02 -12.04,1.55 -18.63,1.55 -2.53,0 -5.12,-0.07 -7.77,-0.17 -2.61,-0.09 -5.19,-0.22 -7.66,-0.38 -2.48,-0.14 -4.78,-0.32 -6.92,-0.53 -2.13,-0.21 -3.95,-0.47 -5.47,-0.76 -3.05,-0.51 -5.21,-1.43 -6.47,-2.73 -1.27,-1.32 -1.91,-3.7 -1.91,-7.15l0 -92.47c0,-3.45 0.62,-5.81 1.84,-7.14 1.22,-1.31 3.28,-2.23 6.22,-2.74 1.34,-0.2 3.04,-0.39 5.1,-0.59 2.09,-0.21 4.37,-0.39 6.85,-0.55 2.48,-0.14 5.05,-0.28 7.67,-0.37 2.64,-0.1 5.17,-0.16 7.6,-0.16 7.21,0 13.74,0.53 19.62,1.61 5.88,1.05 10.93,2.8 15.13,5.23 4.2,2.44 7.49,5.68 9.81,9.74 2.34,4.06 3.51,9.12 3.51,15.21l0 2.73c0,4.96 -1.12,9.44 -3.35,13.39 -2.22,3.95 -5.37,6.94 -9.44,8.96 4.07,2.04 7.33,4.98 9.81,8.82 2.5,3.86 3.74,8.42 3.74,13.69l0 2.29z"/>
  <path class="fil0" d="M559.93 179.15c-0.41,0.62 -0.96,0.92 -1.68,0.92l-1.22 0c-3.76,0 -7.25,0.51 -10.49,1.52 -3.24,1.01 -6.3,2.27 -9.12,3.79l0 59.32c0,0.83 -0.3,1.57 -0.92,2.21 -0.6,0.67 -1.31,0.99 -2.14,0.99l-18.39 0c-0.81,0 -1.54,-0.32 -2.21,-0.99 -0.64,-0.67 -0.99,-1.4 -0.99,-2.21l0 -80.89c0,-0.8 0.3,-1.52 0.92,-2.14 0.6,-0.59 1.31,-0.91 2.14,-0.91l18.1 0c0.8,0 1.52,0.32 2.11,0.94 0.62,0.59 0.92,1.31 0.92,2.14l0 3.07c2.83,-2.36 6.06,-4.18 9.65,-5.44 3.6,-1.29 7.23,-1.93 10.89,-1.93 0.79,0 1.51,0.32 2.11,0.92 0.62,0.62 0.92,1.33 0.92,2.15l0 14.55c0,0.73 -0.21,1.37 -0.6,1.99z"/>
  <path class="fil0" d="M612.55 210.64l-8.68 0c-2.62,0 -4.8,0.23 -6.53,0.69 -1.72,0.46 -3.1,1.13 -4.11,2.04 -1.01,0.92 -1.72,2.1 -2.13,3.5 -0.39,1.42 -0.6,3.05 -0.6,4.87l0 1.37c0,3.24 0.78,5.33 2.35,6.23 1.58,0.92 3.99,1.38 7.23,1.38 2.32,0 4.52,-0.32 6.61,-0.99 2.07,-0.67 4.02,-1.45 5.86,-2.37l0 -16.72zm24.19 34.23c0,0.8 -0.32,1.51 -0.92,2.11 -0.62,0.62 -1.34,0.92 -2.14,0.92l-17.02 0c-0.82,0 -1.54,-0.3 -2.14,-0.92 -0.62,-0.6 -0.92,-1.31 -0.92,-2.11l0 -2.44c-2.93,2.12 -6.06,3.79 -9.34,5.01 -3.29,1.22 -7.22,1.84 -11.79,1.84 -3.35,0 -6.57,-0.44 -9.64,-1.31 -3.1,-0.85 -5.86,-2.3 -8.29,-4.32 -2.44,-2.04 -4.39,-4.73 -5.86,-8.06 -1.47,-3.36 -2.21,-7.51 -2.21,-12.48l0 -1.37c0,-8.92 2.97,-15.44 8.89,-19.53 5.93,-4.11 15.44,-6.17 28.51,-6.17l8.22 0 0 -5.47c0,-4.37 -1.01,-7.19 -3.03,-8.52 -2.05,-1.31 -4.83,-1.98 -8.39,-1.98 -2.41,0 -4.89,0.02 -7.37,0.09 -2.48,0.05 -4.85,0.12 -7.14,0.21 -2.28,0.11 -4.32,0.23 -6.15,0.39 -1.82,0.16 -3.36,0.28 -4.58,0.39l-0.76 0c-0.8,0 -1.47,-0.2 -1.97,-0.62 -0.51,-0.41 -0.76,-1.1 -0.76,-2.14l0 -12.31c0,-1.72 0.97,-2.82 2.9,-3.35 2.82,-0.69 6.66,-1.4 11.48,-2.11 4.8,-0.72 9.76,-1.08 14.82,-1.08 5.49,0 10.42,0.59 14.83,1.77 4.41,1.14 8.13,2.98 11.16,5.46 3.06,2.48 5.4,5.68 7.08,9.58 1.68,3.91 2.53,8.64 2.53,14.22l0 54.3z"/>
  <path class="fil0" d="M715.77 223.71c0,3.56 -0.64,6.91 -1.95,10.04 -1.33,3.14 -3.33,5.86 -5.99,8.13 -2.69,2.3 -6.04,4.09 -10.11,5.42 -4.05,1.31 -8.84,1.98 -14.4,1.98 -2.12,0 -4.37,-0.1 -6.76,-0.23 -2.36,-0.16 -4.79,-0.4 -7.28,-0.69 -2.48,-0.3 -4.87,-0.67 -7.21,-1.06 -2.32,-0.42 -4.43,-0.87 -6.36,-1.38 -1.93,-0.5 -2.87,-1.67 -2.87,-3.49l0 -12.33c0,-0.8 0.25,-1.5 0.75,-2.05 0.51,-0.55 1.22,-0.82 2.12,-0.82l0.62 0c2.02,0.29 4.27,0.57 6.75,0.82 2.5,0.26 4.96,0.48 7.4,0.69 2.41,0.21 4.68,0.35 6.75,0.46 2.09,0.1 3.72,0.14 4.94,0.14 3.65,0 6.06,-0.49 7.23,-1.45 1.15,-0.97 1.75,-2.46 1.75,-4.48 0,-1.1 -0.42,-2.15 -1.22,-3.12 -0.81,-0.97 -2.27,-2.04 -4.41,-3.26l-19.77 -11.42c-4.25,-2.41 -7.59,-5.53 -9.95,-9.35 -2.39,-3.78 -3.59,-8.17 -3.59,-13.14 0,-7.71 2.55,-13.57 7.63,-17.56 5.1,-4 12.89,-6.02 23.41,-6.02 5.97,0 11.02,0.34 15.11,0.99 4.11,0.66 8.09,1.51 11.95,2.52 1.92,0.51 2.89,1.68 2.89,3.49l0 12.31c0,1.93 -0.88,2.9 -2.59,2.9l-0.45 0c-1.12,-0.09 -2.68,-0.28 -4.72,-0.53 -2.03,-0.25 -4.23,-0.48 -6.62,-0.69 -2.37,-0.2 -4.8,-0.37 -7.3,-0.53 -2.49,-0.16 -4.69,-0.23 -6.62,-0.23 -2.94,0 -5.01,0.3 -6.22,0.92 -1.22,0.6 -1.82,1.77 -1.82,3.49 0,1.13 0.39,2.05 1.22,2.81 0.81,0.77 1.98,1.6 3.49,2.52l18.86 10.8c3.14,1.81 5.7,3.67 7.67,5.53 1.98,1.88 3.56,3.82 4.71,5.79 1.17,1.98 1.95,3.98 2.36,6 0.42,2.04 0.6,4.06 0.6,6.08z"/>
  <path class="fil0" d="M756.68 244.87c0,0.8 -0.3,1.51 -0.9,2.11 -0.61,0.62 -1.33,0.92 -2.14,0.92l-18.55 0c-0.81,0 -1.52,-0.3 -2.14,-0.92 -0.6,-0.6 -0.89,-1.31 -0.89,-2.11l0 -81.06c0,-0.8 0.29,-1.51 0.89,-2.14 0.62,-0.59 1.33,-0.91 2.14,-0.91l18.55 0c0.81,0 1.53,0.32 2.14,0.91 0.6,0.63 0.9,1.34 0.9,2.14l0 81.06zm0.62 -97.02c0,0.8 -0.32,1.51 -0.92,2.11 -0.6,0.62 -1.31,0.92 -2.14,0.92l-19.75 0c-0.83,0 -1.54,-0.3 -2.14,-0.92 -0.61,-0.6 -0.92,-1.31 -0.92,-2.11l0 -14.15c0,-0.8 0.31,-1.52 0.92,-2.14 0.6,-0.6 1.31,-0.89 2.14,-0.89l19.75 0c0.83,0 1.54,0.29 2.14,0.89 0.6,0.62 0.92,1.34 0.92,2.14l0 14.15z"/>
  <path class="fil0" d="M799.33 246.91c-0.55,0.67 -1.24,0.99 -2.04,0.99l-18.56 0c-0.81,0 -1.54,-0.32 -2.21,-0.99 -0.64,-0.67 -0.99,-1.4 -0.99,-2.2l0 -110.41c0,-0.81 0.35,-1.52 0.99,-2.12 0.67,-0.62 1.4,-0.92 2.21,-0.92l18.56 0c0.8,0 1.49,0.3 2.04,0.92 0.58,0.6 0.85,1.31 0.85,2.12l0 110.41c0,0.8 -0.27,1.53 -0.85,2.2z"/>
  <path class="fil0" d="M918.95 146.63l-29.65 0 0 98.21c0,0.83 -0.25,1.54 -0.76,2.14 -0.53,0.62 -1.17,0.92 -2,0.92l-8.36 0c-0.8,0 -1.47,-0.3 -1.97,-0.92 -0.51,-0.6 -0.76,-1.31 -0.76,-2.14l0 -98.21 -29.65 0c-0.81,0 -1.52,-0.2 -2.14,-0.6 -0.6,-0.41 -0.89,-1.01 -0.89,-1.81l0 -6.59c0,-0.81 0.29,-1.47 0.89,-1.96 0.62,-0.5 1.33,-0.76 2.14,-0.76l73.15 0c1.91,0 2.87,0.9 2.87,2.72l0 6.59c0,1.61 -0.96,2.41 -2.87,2.41z"/>
  <path class="fil0" d="M976.28 198.79c0,-8.64 -1.65,-14.77 -4.94,-18.42 -3.3,-3.63 -8.29,-5.47 -14.97,-5.47 -6.59,0 -11.65,1.93 -15.14,5.79 -3.49,3.84 -5.23,9.88 -5.23,18.1l0 1.35 40.28 0 0 -1.35zm13.39 8.2c0,2.23 -0.96,3.35 -2.89,3.35l-50.78 0 0 2.11c0,9.03 1.76,15.42 5.3,19.19 3.56,3.74 8.82,5.62 15.82,5.62 4.46,0 9.19,-0.16 14.22,-0.45 5.01,-0.33 9.31,-0.72 12.84,-1.22l0.76 0c0.62,0 1.17,0.14 1.68,0.46 0.5,0.3 0.75,0.84 0.75,1.65l0 5.19c0,1.01 -0.18,1.79 -0.59,2.34 -0.41,0.55 -1.22,0.94 -2.43,1.15 -4.37,0.81 -8.71,1.45 -13.01,1.91 -4.32,0.43 -9.05,0.67 -14.22,0.67 -4.36,0 -8.61,-0.58 -12.76,-1.75 -4.16,-1.15 -7.84,-3.15 -11.03,-5.93 -3.19,-2.78 -5.79,-6.52 -7.76,-11.18 -1.98,-4.66 -2.97,-10.55 -2.97,-17.65l0 -13.66c0,-10.96 2.9,-19.64 8.64,-26.02 5.76,-6.39 14.13,-9.58 25.04,-9.58 5.58,0 10.42,0.85 14.58,2.53 4.13,1.65 7.6,4.04 10.38,7.14 2.78,3.08 4.89,6.84 6.3,11.26 1.42,4.41 2.13,9.3 2.13,14.67l0 8.2z"/>
  <path class="fil0" d="M1059.15 246.22c-0.41,0.51 -1.21,0.87 -2.43,1.08 -2.55,0.51 -5.47,0.9 -8.75,1.2 -3.29,0.32 -6.71,0.46 -10.27,0.46 -5.17,0 -9.76,-0.88 -13.76,-2.67 -3.99,-1.77 -7.4,-4.25 -10.19,-7.44 -2.79,-3.19 -4.9,-7.08 -6.3,-11.62 -1.42,-4.57 -2.14,-9.65 -2.14,-15.21l0 -11.88c0,-5.57 0.72,-10.63 2.14,-15.2 1.4,-4.57 3.49,-8.43 6.23,-11.62 2.73,-3.2 6.13,-5.7 10.19,-7.47 4.05,-1.76 8.66,-2.66 13.83,-2.66 3.56,0 6.98,0.16 10.27,0.46 3.28,0.3 6.2,0.71 8.75,1.22 1.22,0.21 2.02,0.53 2.43,0.98 0.39,0.46 0.6,1.25 0.6,2.37l0 5.47c0,0.83 -0.25,1.4 -0.76,1.74 -0.5,0.37 -1.13,0.53 -1.81,0.53l-0.62 0c-3.33,-0.39 -6.39,-0.67 -9.12,-0.82 -2.74,-0.17 -6,-0.24 -9.74,-0.24 -6.09,0 -10.77,2.05 -14.05,6.16 -3.31,4.11 -4.95,10.47 -4.95,19.08l0 11.88c0,8.61 1.61,14.98 4.87,19.06 3.24,4.12 7.95,6.19 14.13,6.19 3.74,0 7,-0.1 9.74,-0.24 2.73,-0.16 5.79,-0.43 9.12,-0.85l0.62 0c0.68,0 1.31,0.19 1.81,0.53 0.51,0.37 0.76,0.94 0.76,1.77l0 5.47c0,1.01 -0.21,1.76 -0.6,2.27z"/>
  <path class="fil0" d="M1135.96 166.77c0,-7.67 -2.34,-13.14 -7.01,-16.37 -4.66,-3.22 -11.91,-4.85 -21.75,-4.85 -2.32,0 -4.98,0.07 -7.97,0.16 -2.98,0.09 -5.4,0.25 -7.23,0.46l0 44.4c0.92,0 2.04,0.05 3.35,0.16 1.31,0.09 2.69,0.16 4.11,0.23 1.4,0.04 2.8,0.09 4.18,0.14 1.36,0.04 2.55,0.09 3.56,0.09 10.45,0 17.85,-1.77 22.22,-5.31 4.36,-3.53 6.54,-9.25 6.54,-17.13l0 -1.98zm13.83 2.05c0,6.38 -1.06,11.73 -3.19,16.05 -2.14,4.3 -5.11,7.81 -8.89,10.5 -3.82,2.69 -8.29,4.59 -13.47,5.76 -5.16,1.17 -10.86,1.75 -17.04,1.75 -2.43,0 -5.05,-0.07 -7.9,-0.23 -2.85,-0.14 -5.26,-0.32 -7.3,-0.53l0 42.75c0,0.8 -0.25,1.51 -0.76,2.11 -0.5,0.62 -1.17,0.92 -1.98,0.92l-8.2 0c-0.82,0 -1.46,-0.3 -1.97,-0.92 -0.53,-0.6 -0.78,-1.31 -0.78,-2.11l0 -106c0,-2.23 1.21,-3.5 3.65,-3.79 3.26,-0.42 7.14,-0.71 11.72,-0.92 4.56,-0.21 9.07,-0.3 13.52,-0.3 6.18,0 11.88,0.57 17.04,1.74 5.18,1.15 9.65,3.04 13.47,5.63 3.78,2.57 6.75,5.98 8.89,10.18 2.13,4.2 3.19,9.35 3.19,15.43l0 1.98z"/>
  <path class="fil0" d="M1208.31 207.45l-11.25 0c-4.55,0 -8.37,0.27 -11.4,0.83 -3.05,0.57 -5.41,1.42 -7.14,2.59 -1.72,1.18 -2.94,2.69 -3.65,4.57 -0.71,1.86 -1.08,4.19 -1.08,6.92l0 1.81c0,5.49 1.22,9.16 3.65,11.03 2.43,1.88 5.88,2.82 10.34,2.82 3.56,0 6.95,-0.5 10.2,-1.54 3.23,-1.01 6.68,-2.52 10.33,-4.54l0 -24.49zm13.39 37.42c0,0.8 -0.29,1.51 -0.92,2.11 -0.59,0.62 -1.3,0.92 -2.13,0.92l-6.98 0c-0.81,0 -1.52,-0.3 -2.14,-0.92 -0.6,-0.6 -0.9,-1.31 -0.9,-2.11l0 -3.36c-3.65,2.14 -7.42,3.91 -11.25,5.33 -3.86,1.4 -7.92,2.12 -12.18,2.12 -3.23,0 -6.36,-0.37 -9.35,-1.13 -2.98,-0.76 -5.62,-2.11 -7.9,-4.04 -2.29,-1.93 -4.11,-4.46 -5.48,-7.61 -1.36,-3.14 -2.05,-7.09 -2.05,-11.85l0 -1.84c0,-4.04 0.62,-7.62 1.91,-10.7 1.26,-3.1 3.33,-5.69 6.22,-7.76 2.89,-2.07 6.66,-3.63 11.32,-4.64 4.67,-1.01 10.41,-1.52 17.19,-1.52l11.25 0 0 -6.09c0,-6.38 -1.21,-10.84 -3.65,-13.39 -2.43,-2.52 -6.64,-3.79 -12.61,-3.79 -4.96,0 -9.33,0.12 -13.07,0.37 -3.77,0.25 -7.17,0.55 -10.2,0.85l-0.76 0c-0.71,0 -1.35,-0.16 -1.9,-0.46 -0.56,-0.29 -0.83,-0.96 -0.83,-1.97l0 -5.33c0,-1.61 1.06,-2.57 3.19,-2.89 3.13,-0.51 6.55,-0.97 10.27,-1.36 3.7,-0.41 8.13,-0.62 13.3,-0.62 10.54,0 18.12,2.55 22.74,7.6 4.59,5.08 6.91,12.08 6.91,20.99l0 53.09z"/>
  <path class="fil0" d="M1276.76 174.9c-3.54,0 -6.96,0.49 -10.25,1.45 -3.31,0.97 -6.86,2.59 -10.72,4.94l0 63.58c0,0.8 -0.3,1.51 -0.92,2.11 -0.6,0.62 -1.31,0.92 -2.14,0.92l-7.44 0c-0.8,0 -1.49,-0.3 -2.04,-0.92 -0.58,-0.6 -0.85,-1.31 -0.85,-2.11l0 -77.57c0,-0.8 0.27,-1.52 0.85,-2.13 0.55,-0.6 1.24,-0.9 2.04,-0.9l7.14 0c0.81,0 1.5,0.3 2.07,0.92 0.55,0.62 0.83,1.33 0.83,2.16l0 3.23c3.85,-2.66 7.53,-4.57 11.02,-5.69 3.5,-1.13 6.96,-1.7 10.41,-1.7 2.13,0 3.19,0.94 3.19,2.78l0 6.32c0,1.74 -1.06,2.61 -3.19,2.61z"/>
  <path class="fil0" d="M317.05 89.57l-172.61 -74.96c-14.4,-6.25 -31.16,-3.68 -42.93,6.58l-80.14 69.8c-19.52,17 -17.79,47.52 3.53,62.26l94.74 65.49c10.21,7.06 16.53,18.39 17.11,30.67l2.68 57.22c0.77,16.26 11.63,31.15 29.08,36.4 13.87,4.18 29,-0.33 39.61,-10.08l59.2 -54.39c12.92,-11.86 23.13,-26.29 30,-42.32l40.61 -94.9c8.56,-19.99 -0.74,-43.03 -20.88,-51.77z"/>
  <path class="fil1" d="M180.6 247.67c0.37,10.27 7.42,15.92 13.87,17.78 6.51,1.81 15.46,0.82 21.2,-7.67l75.09 -110.69c3.77,-5.51 4.39,-12.45 1.7,-18.54 -2.71,-6.11 -8.25,-10.31 -14.84,-11.25l-132.39 -19c-10.2,-1.29 -17,4.48 -19.96,10.52 -2.99,6.05 -3.54,15.05 3.79,22.21l40.24 39.37c5.72,5.56 9,13.02 9.3,21.02l2 56.25zm19.45 30.34c-2.91,0 -5.88,-0.41 -8.84,-1.26 -13.09,-3.77 -21.87,-15.02 -22.37,-28.67l-2 -56.25c-0.18,-4.94 -2.22,-9.55 -5.77,-13.02l-40.23 -39.37c-9.74,-9.53 -12.16,-23.59 -6.12,-35.81 6.05,-12.27 19.09,-18.93 32.16,-16.95l132.39 18.99c10.64,1.52 19.6,8.3 23.94,18.13 4.34,9.83 3.33,21.01 -2.71,29.9l-75.09 110.69c-5.95,8.73 -15.34,13.62 -25.36,13.62z"/>
 </g>
</svg>
