<?xml version="1.0" encoding="UTF-8"?>
<!DOCTYPE svg PUBLIC "-//W3C//DTD SVG 1.1//EN" "http://www.w3.org/Graphics/SVG/1.1/DTD/svg11.dtd">
<!-- Creator: CorelDRAW 2020 (64 Bit) -->
<svg xmlns="http://www.w3.org/2000/svg" xml:space="preserve" width="1518px" height="449px" version="1.1" style="shape-rendering:geometricPrecision; text-rendering:geometricPrecision; image-rendering:optimizeQuality; fill-rule:evenodd; clip-rule:evenodd"
viewBox="0 0 1518 448.9"
 xmlns:xlink="http://www.w3.org/1999/xlink"
 xmlns:xodm="http://www.corel.com/coreldraw/odm/2003">
 <defs>
  <style type="text/css">
   <![CDATA[
    .fil1 {fill:#373435}
    .fil0 {fill:#BD3538}
   ]]>
  </style>
 </defs>
 <g id="Camada_x0020_1">
  <metadata id="CorelCorpID_0Corel-Layer"/>
  <path class="fil0" d="M510.14 132.01l0 -18.69 0 -6.33 -81.92 0 0 6.33 0 18.69 0 22.72 0 17.36 0 17.37c0,6.75 -0.51,13.09 -1.53,19.01 -1.06,6.15 -2.65,11.76 -4.78,16.82 -2.25,5.37 -5.3,10.3 -9.14,14.8 -3.71,4.35 -8.16,8.21 -13.33,11.59 -5,3.27 -10.71,6.04 -17.11,8.3 -6.18,2.19 -13.06,3.94 -20.63,5.25 -7.25,1.25 -15.34,2.19 -24.27,2.82 -8.92,0.63 -18.44,0.94 -28.56,0.94l-17.65 0 -76.47 63.53 94.12 0c68.52,0 119.5,-12.16 152.94,-36.48 32.22,-23.43 48.33,-58.96 48.33,-106.58l0 -17.37 0 -17.36 0 -22.72zm0 -52.21l0 -64.56 -81.92 64.49 0 0.07 81.92 0zm-379.26 0l-12.14 0 -36.85 0 -23.62 0 -53.11 0 0 -64.56 21.68 0 31.43 0 170.97 0 36.41 0 53.39 0 11.57 0 94.92 0 -77.19 64.48 -17.73 0.03 0 -0.01 -73.1 0 0 0.05 -3.42 0.01 -123.21 0zm81.41 100.98l0 28.3 0 15.6 0 44.31 -81.41 63.53 0 -107.84 0 -15.6 0 -28.3 0 -6.07 0 -67.72 81.41 0 0 67.72 0 6.07z"/>
  <path class="fil0" d="M617.87 119.73c2.6,-2.42 6.16,-3.62 10.66,-3.62 3.59,0 7.18,0.94 10.77,2.81 3.31,1.73 6.58,4.26 9.79,7.57l0.33 0.34 0.27 0.41 87.5 131.21 0.04 0.06c7.12,10.96 15.41,19.14 24.88,24.55 9.39,5.36 20.05,8.04 31.98,8.04 27.8,0 48.49,-6.1 62.05,-18.31 13.41,-12.07 20.11,-30.44 20.11,-55.13l0 -160.99 -59.38 0 0 160.99c0,4.44 -1.36,7.91 -4.09,10.41 -2.6,2.39 -6.16,3.59 -10.69,3.59 -3.51,0 -7.05,-0.93 -10.61,-2.78 -3.25,-1.69 -6.55,-4.19 -9.88,-7.49l-0.38 -0.38 -0.3 -0.44 -87.5 -131.28 -0.02 -0.04c-7.11,-10.92 -15.4,-19.1 -24.87,-24.52 -9.38,-5.37 -20.02,-8.06 -31.93,-8.06 -27.83,0 -48.53,6.11 -62.1,18.33 -13.42,12.08 -20.12,30.47 -20.12,55.16l0 160.94 59.44 0 0 -160.94c0,-4.44 1.36,-7.92 4.05,-10.43zm386.16 -21.12l83.5 0 86.34 0 -0.1 -41.94 -169.74 0c-33.75,0 -58.87,6.88 -75.38,20.64 -6.97,5.8 -12.44,12.91 -16.41,21.3l91.79 0zm-40.28 110.27l0 -8.72 0 -5.28 5.28 0 204.71 0 0 -41.94 -86.21 0 -118.5 0 -5.28 0 -59.44 0 0 55.94c0,27.55 8.11,48.08 24.33,61.59 16.51,13.76 41.64,20.63 75.39,20.63l169.71 0 0 -41.94 -169.71 0c-13.14,0 -23.13,-3.43 -29.99,-10.29 -6.86,-6.86 -10.29,-16.86 -10.29,-29.99zm419.92 82.22l0 -187.21 0 -5.28 5.28 0 117.16 0 0 -41.94 -304.37 0 0 41.94 117.21 0 5.28 0 0 5.28 0 187.21 59.44 0z"/>
  <path class="fil1" d="M11.89 432.4l0 -57.35 12.78 0 0 57.35 -12.78 0zm671.89 -57.35l25.73 0 0 11.14 -29.98 0 0 -0.12 -8.87 0c-3.53,0 -5.99,0.73 -7.39,2.18 -1.41,1.46 -2.11,3.87 -2.11,7.24l0 4.54 48.35 0 0 10.84 -48.35 0 0 21.53 -12.7 0 0 -37.67c0,-3.59 0.36,-6.64 1.06,-9.17 0.7,-2.52 1.89,-4.55 3.57,-6.09 1.68,-1.54 3.92,-2.67 6.73,-3.37 2.8,-0.7 6.3,-1.05 10.51,-1.05l9.2 0 4.25 0zm405.79 57.35c-4.21,0 -7.71,-0.35 -10.52,-1.05 -2.8,-0.7 -5.04,-1.82 -6.72,-3.36 -1.68,-1.54 -2.87,-3.56 -3.58,-6.06 -0.7,-2.49 -1.05,-5.56 -1.05,-9.21l0 -17.99c0,-3.59 0.35,-6.64 1.05,-9.17 0.71,-2.52 1.9,-4.55 3.58,-6.09 1.68,-1.54 3.92,-2.67 6.72,-3.37 2.81,-0.7 6.31,-1.05 10.52,-1.05l21.77 0c4.27,0 7.8,0.35 10.6,1.05 2.8,0.7 5.05,1.83 6.73,3.37 1.68,1.54 2.87,3.57 3.57,6.09 0.7,2.53 1.05,5.58 1.05,9.17l0 17.99c0,3.65 -0.35,6.72 -1.05,9.21 -0.7,2.5 -1.89,4.52 -3.57,6.06 -1.68,1.54 -3.93,2.66 -6.73,3.36 -2.8,0.7 -6.33,1.05 -10.6,1.05l-21.77 0zm30.94 -37.08c0,-1.8 -0.15,-3.28 -0.46,-4.46 -0.31,-1.18 -0.83,-2.13 -1.56,-2.86 -0.73,-0.73 -1.72,-1.23 -2.98,-1.51 -1.26,-0.28 -2.82,-0.42 -4.67,-0.42l-20.69 0c-2.01,0 -3.65,0.14 -4.91,0.42 -1.27,0.28 -2.26,0.78 -2.99,1.51 -0.73,0.73 -1.22,1.68 -1.47,2.86 -0.25,1.18 -0.38,2.66 -0.38,4.46l0 16.9c0,1.85 0.13,3.38 0.38,4.58 0.25,1.21 0.74,2.16 1.47,2.86 0.73,0.7 1.72,1.18 2.99,1.43 1.26,0.25 2.9,0.38 4.91,0.38l20.69 0c1.85,0 3.41,-0.13 4.67,-0.38 1.26,-0.25 2.25,-0.73 2.98,-1.43 0.73,-0.7 1.25,-1.65 1.56,-2.86 0.31,-1.2 0.46,-2.73 0.46,-4.58l0 -16.9zm-27.66 -26.24l10.51 -18.33 13.2 0 -13.37 18.33 -10.34 0zm74.04 46.92l0 16.4 -12.78 0 0 -57.35 45.91 0c4.09,0 7.51,0.32 10.26,0.97 2.75,0.64 4.96,1.71 6.64,3.2 1.68,1.48 2.87,3.4 3.58,5.76 0.7,2.35 1.05,5.21 1.05,8.57l0 4.96c0,3.42 -0.34,6.25 -1.01,8.5 -0.68,2.24 -1.84,4.03 -3.49,5.38 -1.66,1.34 -3.86,2.28 -6.6,2.82 -2.75,0.53 -6.23,0.79 -10.43,0.79l-33.13 0zm41.88 -21.94c0,-3.09 -0.66,-5.19 -1.98,-6.31 -1.32,-1.12 -3.69,-1.68 -7.11,-1.68l-32.79 0 0 19.59 32.96 0c3.37,0 5.69,-0.52 6.98,-1.55 1.29,-1.04 1.94,-3.07 1.94,-6.1l0 -3.95zm52.76 38.34l0 -46.33 -24.05 0 0 -11.02 60.97 0 0 11.02 -24.05 0 0 46.33 -12.87 0zm54.96 0l0 -57.35 12.78 0 0 57.35 -12.78 0zm55.62 0c-4.2,0 -7.7,-0.35 -10.51,-1.05 -2.8,-0.7 -5.04,-1.82 -6.72,-3.36 -1.69,-1.54 -2.88,-3.56 -3.58,-6.06 -0.7,-2.49 -1.05,-5.56 -1.05,-9.21l0 -17.99c0,-3.59 0.35,-6.64 1.05,-9.17 0.7,-2.52 1.89,-4.55 3.58,-6.09 1.68,-1.54 3.92,-2.67 6.72,-3.37 2.81,-0.7 6.31,-1.05 10.51,-1.05l39.78 0 0 11.02 -39.19 0c-1.96,0 -3.57,0.15 -4.83,0.46 -1.26,0.31 -2.26,0.83 -2.99,1.56 -0.73,0.72 -1.23,1.69 -1.51,2.9 -0.28,1.2 -0.42,2.67 -0.42,4.41l0 16.82c0,1.79 0.14,3.28 0.42,4.46 0.28,1.17 0.78,2.13 1.51,2.86 0.73,0.73 1.74,1.23 3.03,1.51 1.29,0.28 2.91,0.42 4.88,0.42l39.1 0 0 10.93 -39.78 0zm117.61 -13.2l-39.69 0 -8.16 13.2 -14.72 0 33.3 -52.97c1.01,-1.63 2.22,-2.98 3.62,-4.04 1.4,-1.07 3.42,-1.6 6.05,-1.6 2.58,0 4.57,0.53 5.97,1.6 1.4,1.06 2.61,2.41 3.62,4.04l33.13 52.97 -14.8 0 -8.32 -13.2zm-33.72 -9.84l27.75 0 -13.88 -22.62 -13.87 22.62zm-461.33 9.84l-39.69 0 -8.16 13.2 -14.71 0 33.3 -52.97c1.01,-1.63 2.21,-2.98 3.61,-4.04 1.4,-1.07 3.42,-1.6 6.06,-1.6 2.58,0 4.57,0.53 5.97,1.6 1.4,1.06 2.6,2.41 3.61,4.04l33.13 52.97 -14.79 0 -8.33 -13.2zm-33.72 -9.84l27.75 0 -13.88 -22.62 -13.87 22.62zm-66.05 23.04l-33.56 -20.85 0 20.85 -12.69 0 0 -57.35 44.9 0c4.04,0 7.48,0.26 10.34,0.76 2.86,0.5 5.2,1.4 7.02,2.69 1.83,1.29 3.16,3.06 4,5.3 0.84,2.24 1.26,5.07 1.26,8.49l0 3.95c0,3.31 -0.45,6.04 -1.35,8.2 -0.89,2.16 -2.28,3.87 -4.16,5.13 -1.88,1.26 -4.25,2.15 -7.1,2.65 -2.86,0.5 -6.25,0.76 -10.18,0.76l-10.09 0 33.64 19.42 -22.03 0zm8.49 -39.44c0,-1.51 -0.17,-2.74 -0.51,-3.7 -0.33,-0.95 -0.89,-1.68 -1.68,-2.18 -0.78,-0.51 -1.88,-0.84 -3.28,-1.01 -1.4,-0.17 -3.14,-0.25 -5.21,-0.25l-31.37 0 0 17.49 31.37 0c2.07,0 3.8,-0.09 5.17,-0.26 1.37,-0.16 2.47,-0.5 3.28,-1.01 0.81,-0.5 1.39,-1.23 1.72,-2.18 0.34,-0.95 0.51,-2.22 0.51,-3.78l0 -3.12zm-141.48 -17.91l48.35 0c3.25,0 6.02,0.23 8.32,0.67 2.3,0.45 4.16,1.2 5.59,2.23 1.43,1.04 2.48,2.39 3.16,4.04 0.67,1.65 1.01,3.68 1.01,6.1l0 4.71c0,3.36 -0.59,5.77 -1.77,7.23 -1.18,1.45 -2.66,2.44 -4.46,2.94 1.01,0.22 1.95,0.57 2.82,1.05 0.87,0.48 1.61,1.16 2.23,2.06 0.62,0.9 1.09,2.06 1.43,3.49 0.33,1.43 0.5,3.21 0.5,5.34l0 5.05c0,2.3 -0.32,4.23 -0.96,5.8 -0.65,1.57 -1.68,2.84 -3.12,3.82 -1.42,0.99 -3.29,1.7 -5.59,2.15 -2.3,0.45 -5.07,0.67 -8.32,0.67l-49.19 0 0 -57.35zm12.78 32.88l0 14.04 35.74 0c2.41,0 4.13,-0.32 5.17,-0.96 1.03,-0.65 1.55,-1.87 1.55,-3.66l0 -3.53c0,-2.36 -0.46,-3.93 -1.39,-4.71 -0.92,-0.79 -2.56,-1.18 -4.91,-1.18l-36.16 0zm0 -22.45l0 13.2 35.82 0c2.24,0 3.78,-0.36 4.62,-1.09 0.85,-0.73 1.27,-2.05 1.27,-3.95l0 -3.62c0,-1.74 -0.52,-2.93 -1.56,-3.57 -1.04,-0.65 -2.9,-0.97 -5.59,-0.97l-34.56 0zm-46.88 46.92l0 -57.35 12.78 0 0 57.35 -12.78 0zm-167.35 0l0 -46.33 -24.05 0 0 -11.02 60.97 0 0 11.02 -24.05 0 0 46.33 -12.87 0zm-72.7 -57.35l-0.19 0 -0.2 0 0 0 -0.19 0 0 0 -0.19 0.01 0 0 -0.2 0 0 0 -0.19 0 0 0 -0.19 0 0 0.01 -0.19 0 0 0 -0.19 0 0 0 -0.18 0.01 0 0 -0.19 0 0 0 -0.19 0.01 0 0 -0.18 0 0 0.01 -0.18 0 0 0 -0.19 0.01 0 0 -0.18 0.01 0 0 -0.18 0.01 0 0 -0.18 0.01 0 0 -0.17 0 0 0 -0.18 0.01 0 0.01 -0.18 0 0 0.01 -0.17 0.01 0 0 -0.18 0.01 0 0 -0.17 0.01 0 0 -0.17 0.01 0 0 -0.17 0.01 0 0.01 -0.17 0.01 0 0 -0.17 0.01 0 0 -0.17 0.02 0 0 -0.17 0.01 0 0 -0.16 0.02 0 0 -0.17 0.01 0 0.01 -0.16 0.01 0 0 -0.16 0.02 0 0 -0.16 0.02 0 0 -0.17 0.01 0 0.01 -0.15 0.01 0 0 -0.16 0.02 0 0 -0.16 0.02 0 0 -0.16 0.02 0 0 -0.15 0.02 0 0 -0.16 0.02 0 0 -0.15 0.03 0 0 -0.15 0.02 0 0 -0.15 0.02 0 0 -0.15 0.02 0 0.01 -0.15 0.02 0 0 -0.15 0.02 0 0 -0.15 0.03 0 0 -0.15 0.02 0 0 -0.14 0.03 0 0 -0.15 0.03 0 0 -0.14 0.02 0 0 -0.14 0.03 0 0 -0.14 0.03 0 0 -0.14 0.03 0 0 -0.14 0.03 0 0 -0.14 0.02 0 0.01 -0.14 0.02 0 0.01 -0.13 0.02 0 0.01 -0.14 0.03 0 0 -0.13 0.03 0 0 -0.13 0.03 0 0 -0.14 0.03 0 0 -0.13 0.03 0 0.01 -0.13 0.03 0 0 -0.13 0.03 0 0 -0.13 0.04 0 0 -0.12 0.03 0 0 -0.13 0.04 0 0 -0.13 0.04 0 0 -0.12 0.03 0 0.01 -0.12 0.03 0 0 -0.13 0.04 0 0 -0.12 0.04 0 0 -0.12 0.04 0 0 -0.13 0.04 0 0 -0.11 0.04 0 0 -0.12 0.04 0 0 -0.12 0.05 0 0 -0.12 0.04 0 0 -0.12 0.04 0 0 -0.11 0.05 0 0 -0.12 0.04 0 0 -0.11 0.05 0 0 -0.12 0.04 0 0.01 -0.11 0.04 0 0 -0.11 0.05 0 0 -0.11 0.05 0 0 -0.11 0.04 0 0.01 -0.11 0.04 0 0 -0.11 0.05 0 0 -0.11 0.05 0 0 -0.11 0.06 0 0 -0.1 0.05 0 0 -0.11 0.05 0 0 -0.1 0.05 0 0 -0.11 0.05 0 0.01 -0.1 0.05 0 0 -0.1 0.05 0 0.01 -0.11 0.05 0 0 -0.1 0.06 0 0 -0.1 0.05 0 0 -0.09 0.06 0 0 -0.1 0.06 0 0 -0.1 0.05 0 0.01 -0.1 0.05 0 0.01 -0.09 0.05 0 0.01 -0.1 0.06 0 0 -0.09 0.06 0 0 -0.09 0.06 0 0 -0.1 0.06 0 0 -0.09 0.06 0 0 -0.09 0.06 0 0.01 -0.09 0.06 0 0 -0.09 0.06 0 0 -0.09 0.07 0 0 -0.08 0.06 0 0 -0.09 0.07 0 0 -0.09 0.07 0 0 -0.08 0.07 0 0 -0.09 0.06 0 0.01 -0.08 0.06 0 0 -0.08 0.07 0 0 -0.08 0.07 0 0 -0.08 0.07 0 0 -0.08 0.07 0 0.01 -0.08 0.07 0 0 -0.08 0.07 0 0 -0.08 0.07 0 0 -0.15 0.15 0 0 -0.08 0.08 0 0c-1.48,1.49 -2.54,3.38 -3.19,5.68 -0.58,2.07 -0.92,4.54 -1.02,7.41l0 0.13 0 0.03 -0.01 0.13 0 0.03 0 0.14 0 0.02 -0.01 0.14 0 0.02 0 0.15 0 0.01 0 0.15 0 0.02 0 0.15 0 0.01 -0.01 0.16 0 0.01 0 0.16 0 0 0 0.17 0 0 0 0.17 0 0 0 17.99 0 0 0 0.17 0 0 0 0.17 0 0 0 0.16 0 0.01 0.01 0.16 0 0.01 0 0.16 0 0.01 0 0.15 0 0.01 0 0.15 0 0.02 0.01 0.14 0 0.02 0 0.14 0 0.03 0.01 0.14 0 0.02 0 0.14c0.1,2.86 0.44,5.33 1.02,7.4 0.62,2.19 1.61,4 2.97,5.45l0 0.01 0.22 0.23 0 0 0.08 0.07 0 0 0.15 0.15 0 0 0.08 0.07 0 0 0.08 0.08 0 0 0.08 0.07 0 0 0.08 0.07 0 0 0.08 0.07 0 0 0.08 0.07 0 0 0.08 0.07 0 0 0.08 0.07 0 0 0.09 0.07 0 0 0.08 0.06 0 0 0.09 0.07 0 0 0.09 0.07 0 0 0.08 0.06 0 0 0.09 0.07 0 0 0.09 0.06 0 0 0.09 0.07 0 0 0.09 0.06 0 0 0.09 0.06 0 0 0.1 0.07 0 0 0.09 0.06 0 0 0.09 0.06 0 0 0.1 0.06 0 0 0.09 0.06 0 0 0.1 0.06 0 0 0.1 0.05 0 0.01 0.1 0.05 0 0 0.09 0.06 0 0 0.1 0.06 0 0 0.1 0.05 0 0 0.11 0.06 0 0 0.1 0.05 0 0 0.1 0.06 0 0 0.11 0.05 0 0 0.1 0.05 0 0 0.11 0.05 0 0.01 0.1 0.05 0 0 0.11 0.05 0 0 0.11 0.05 0 0 0.11 0.05 0 0 0.11 0.05 0 0 0.11 0.05 0 0 0.11 0.04 0 0 0.11 0.05 0 0 0.11 0.05 0 0 0.12 0.04 0 0 0.11 0.05 0 0 0.12 0.04 0 0 0.11 0.05 0 0 0.12 0.04 0 0 0.12 0.04 0 0.01 0.12 0.04 0 0 0.12 0.04 0 0 0.11 0.04 0 0 0.13 0.04 0 0 0.12 0.04 0 0 0.12 0.04 0 0 0.13 0.04 0 0 0.12 0.04 0 0 0.12 0.03 0 0 0.13 0.04 0 0 0.13 0.04 0 0 0.12 0.03 0 0 0.13 0.04 0 0 0.13 0.03 0 0 0.13 0.04 0 0 0.13 0.03 0 0 0.14 0.03 0 0 0.13 0.03 0 0.01 0.13 0.03 0 0 0.14 0.03 0 0 0.13 0.03 0 0 0.14 0.03 0 0 0.14 0.03 0 0 0.14 0.03 0 0 0.14 0.02 0 0.01 0.14 0.02 0 0 0.14 0.03 0 0 0.14 0.03 0 0 0.15 0.02 0 0 0.14 0.03 0 0 0.15 0.02 0 0.01 0.15 0.02 0 0 0.15 0.02 0 0 0.15 0.03 0 0 0.15 0.02 0 0 0.15 0.02 0 0 0.15 0.03 0 0 0.15 0.02 0 0 0.16 0.02 0 0 0.15 0.02 0 0 0.16 0.02 0 0 0.16 0.02 0 0 0.16 0.02 0 0 0.15 0.02 0 0 0.17 0.02 0 0 0.16 0.01 0 0 0.16 0.02 0 0 0.16 0.02 0 0 0.17 0.01 0 0.01 0.16 0.01 0 0 0.17 0.01 0 0.01 0.17 0.01 0 0 0.17 0.01 0 0 0.17 0.02 0 0 0.17 0.01 0 0 0.17 0.01 0 0 0.17 0.01 0 0 0.18 0.02 0 0 0.17 0.01 0 0 0.18 0.01 0 0 0.18 0.01 0 0 0.17 0.01 0 0 0.18 0.01 0 0 0.18 0 0 0.01 0.18 0 0 0 0.19 0.01 0 0 0.18 0.01 0 0 0.18 0 0 0 0.19 0.01 0 0 0.19 0 0 0.01 0.18 0 0 0 0.19 0 0 0 0.19 0.01 0 0 0.19 0 0 0 0.19 0 0 0 0.2 0.01 0 0 0.19 0 0 0 0.19 0 0 0 0.2 0 0.19 0 40.03 0 0 -10.85 -25.9 0 0 0 -14.13 0 -0.17 0 -0.08 0c-1.74,-0.01 -3.16,-0.17 -4.29,-0.46 -1.17,-0.31 -2.11,-0.8 -2.81,-1.47 -0.7,-0.67 -1.18,-1.57 -1.43,-2.69 -0.24,-1.05 -0.36,-2.34 -0.38,-3.88l0 -0.01 0 -0.15 0 -0.01 0 -0.07 0 -0.01 0 -0.08 0 -3.87 48.85 0 0 -0.08 0 -10.09 0 -0.08 -48.85 0 0 -3.87 0 -0.08 0 -0.01 0 -0.07 0 -0.01 0 -0.14 0 -0.02c0.02,-1.54 0.14,-2.83 0.38,-3.87 0.25,-1.13 0.73,-2.02 1.43,-2.7 0.7,-0.67 1.64,-1.16 2.81,-1.47 1.13,-0.29 2.55,-0.45 4.29,-0.46l0.08 0 0.17 0 14.13 0 0 0 25.9 0 0 -10.85 -40.03 0zm-48.89 58.61c-1.35,0 -2.6,-0.21 -3.75,-0.63 -1.15,-0.42 -2.23,-1.11 -3.23,-2.06l-41.8 -39.35 0 40.78 -11.85 0 0 -53.31c0,-1.8 0.63,-3.13 1.89,-4 1.26,-0.86 2.9,-1.3 4.92,-1.3 1.46,0 2.66,0.2 3.61,0.59 0.96,0.39 1.74,0.9 2.36,1.51l42.13 40.62 0 -41.46 12.11 0 0 53.32c0,1.9 -0.59,3.26 -1.77,4.07 -1.18,0.82 -2.72,1.22 -4.62,1.22zm-102.05 -1.26l-33.55 -20.85 0 20.85 -12.7 0 0 -57.35 44.91 0c4.03,0 7.48,0.26 10.34,0.76 2.86,0.5 5.2,1.4 7.02,2.69 1.82,1.29 3.15,3.06 3.99,5.3 0.85,2.24 1.26,5.07 1.26,8.49l0 3.95c0,3.31 -0.44,6.04 -1.34,8.2 -0.9,2.16 -2.28,3.87 -4.16,5.13 -1.88,1.26 -4.25,2.15 -7.11,2.65 -2.86,0.5 -6.25,0.76 -10.17,0.76l-10.09 0 33.63 19.42 -22.03 0zm8.49 -39.44c0,-1.51 -0.16,-2.74 -0.5,-3.7 -0.34,-0.95 -0.9,-1.68 -1.68,-2.18 -0.79,-0.51 -1.88,-0.84 -3.28,-1.01 -1.4,-0.17 -3.14,-0.25 -5.22,-0.25l-31.36 0 0 17.49 31.36 0c2.08,0 3.8,-0.09 5.18,-0.26 1.37,-0.16 2.46,-0.5 3.27,-1.01 0.82,-0.5 1.39,-1.23 1.73,-2.18 0.34,-0.95 0.5,-2.22 0.5,-3.78l0 -3.12zm-114.23 -17.91l-0.2 0 -0.2 0 0 0 -0.19 0 0 0 -0.19 0.01 0 0 -0.2 0 0 0 -0.19 0 0 0 -0.19 0 0 0.01 -0.19 0 0 0 -0.19 0 0 0 -0.18 0.01 0 0 -0.19 0 0 0 -0.19 0.01 0 0 -0.18 0 0 0.01 -0.18 0 0 0 -0.18 0.01 0 0 -0.19 0.01 0 0 -0.18 0.01 0 0 -0.17 0.01 0 0 -0.18 0 0 0 -0.18 0.01 0 0.01 -0.18 0 0 0.01 -0.17 0.01 0 0 -0.18 0.01 0 0 -0.17 0.01 0 0 -0.17 0.01 0 0 -0.17 0.01 0 0.01 -0.17 0.01 0 0 -0.17 0.01 0 0 -0.17 0.02 0 0 -0.16 0.01 0 0 -0.17 0.02 0 0 -0.17 0.01 0 0.01 -0.16 0.01 0 0 -0.16 0.02 0 0 -0.16 0.02 0 0 -0.16 0.01 0 0.01 -0.16 0.01 0 0 -0.16 0.02 0 0 -0.16 0.02 0 0 -0.16 0.02 0 0 -0.15 0.02 0 0 -0.16 0.02 0 0 -0.15 0.03 0 0 -0.15 0.02 0 0 -0.15 0.02 0 0 -0.15 0.02 0 0.01 -0.15 0.02 0 0 -0.15 0.02 0 0 -0.15 0.03 0 0 -0.15 0.02 0 0 -0.14 0.03 0 0 -0.14 0.03 0 0 -0.15 0.02 0 0 -0.14 0.03 0 0 -0.14 0.03 0 0 -0.14 0.03 0 0 -0.14 0.03 0 0 -0.14 0.02 0 0.01 -0.14 0.02 0 0.01 -0.13 0.02 0 0.01 -0.14 0.03 0 0 -0.13 0.03 0 0 -0.13 0.03 0 0 -0.14 0.03 0 0 -0.13 0.03 0 0.01 -0.13 0.03 0 0 -0.13 0.03 0 0 -0.12 0.04 0 0 -0.13 0.03 0 0 -0.13 0.04 0 0 -0.13 0.04 0 0 -0.12 0.03 0 0.01 -0.12 0.03 0 0 -0.13 0.04 0 0 -0.12 0.04 0 0 -0.12 0.04 0 0 -0.12 0.04 0 0 -0.12 0.04 0 0 -0.12 0.04 0 0 -0.12 0.05 0 0 -0.12 0.04 0 0 -0.12 0.04 0 0 -0.11 0.05 0 0 -0.12 0.04 0 0 -0.11 0.05 0 0 -0.12 0.04 0 0.01 -0.11 0.04 0 0 -0.11 0.05 0 0 -0.11 0.05 0 0 -0.11 0.04 0 0.01 -0.11 0.04 0 0 -0.11 0.05 0 0 -0.11 0.05 0 0 -0.11 0.06 0 0 -0.1 0.05 0 0 -0.11 0.05 0 0 -0.1 0.05 0 0 -0.11 0.05 0 0.01 -0.1 0.05 0 0 -0.1 0.05 0 0.01 -0.1 0.05 0 0 -0.1 0.06 0 0 -0.1 0.05 0 0 -0.1 0.06 0 0 -0.1 0.06 0 0 -0.1 0.05 0 0.01 -0.1 0.05 0 0.01 -0.09 0.05 0 0.01 -0.1 0.06 0 0 -0.09 0.06 0 0 -0.09 0.06 0 0 -0.09 0.06 0 0 -0.1 0.06 0 0 -0.09 0.06 0 0.01 -0.09 0.06 0 0 -0.09 0.06 0 0 -0.08 0.07 0 0 -0.09 0.06 0 0 -0.09 0.07 0 0 -0.09 0.07 0 0 -0.08 0.07 0 0 -0.08 0.06 0 0.01 -0.09 0.06 0 0 -0.08 0.07 0 0 -0.08 0.07 0 0 -0.08 0.07 0 0 -0.08 0.07 0 0.01 -0.08 0.07 0 0 -0.08 0.07 0 0 -0.08 0.07 0 0 -0.15 0.15 0 0 -0.08 0.08 0 0c-1.48,1.49 -2.54,3.38 -3.19,5.68 -0.58,2.07 -0.92,4.54 -1.02,7.41l0 0.13 0 0.03 -0.01 0.13 0 0.03 0 0.14 0 0.02 0 0.14 0 0.02 -0.01 0.15 0 0.01 0 0.15 0 0.02 0 0.15 0 0.01 -0.01 0.16 0 0.01 0 0.16 0 0 0 0.17 0 0 0 0.17 0 0 0 17.99 0 0 0 0.17 0 0 0 0.17 0 0 0 0.16 0 0.01 0.01 0.16 0 0.01 0 0.16 0 0.01 0 0.15 0 0.01 0.01 0.15 0 0.02 0 0.14 0 0.02 0 0.14 0 0.03 0.01 0.14 0 0.02 0 0.14c0.1,2.86 0.44,5.33 1.02,7.4 0.62,2.19 1.61,4 2.97,5.45l0 0.01 0.22 0.23 0 0 0.08 0.07 0 0 0.15 0.15 0 0 0.08 0.07 0 0 0.08 0.08 0 0 0.08 0.07 0 0 0.08 0.07 0 0 0.08 0.07 0 0 0.08 0.07 0 0 0.08 0.07 0 0 0.09 0.07 0 0 0.08 0.07 0 0 0.08 0.06 0 0 0.09 0.07 0 0 0.09 0.07 0 0 0.09 0.06 0 0 0.08 0.07 0 0 0.09 0.06 0 0 0.09 0.07 0 0 0.09 0.06 0 0 0.1 0.06 0 0 0.09 0.07 0 0 0.09 0.06 0 0 0.09 0.06 0 0 0.1 0.06 0 0 0.09 0.06 0 0 0.1 0.06 0 0 0.1 0.05 0 0.01 0.1 0.05 0 0 0.1 0.06 0 0 0.1 0.06 0 0 0.1 0.05 0 0 0.1 0.06 0 0 0.1 0.05 0 0 0.1 0.06 0 0 0.11 0.05 0 0 0.1 0.05 0 0 0.11 0.05 0 0.01 0.1 0.05 0 0 0.11 0.05 0 0 0.11 0.05 0 0 0.11 0.05 0 0 0.11 0.05 0 0 0.11 0.05 0 0 0.11 0.04 0 0 0.11 0.05 0 0 0.11 0.05 0 0 0.12 0.04 0 0 0.11 0.05 0 0 0.12 0.04 0 0 0.11 0.05 0 0 0.12 0.04 0 0 0.12 0.04 0 0.01 0.12 0.04 0 0 0.12 0.04 0 0 0.12 0.04 0 0 0.12 0.04 0 0 0.12 0.04 0 0 0.12 0.04 0 0 0.13 0.04 0 0 0.12 0.04 0 0 0.12 0.03 0 0 0.13 0.04 0 0 0.13 0.04 0 0 0.13 0.03 0 0 0.12 0.04 0 0 0.13 0.03 0 0 0.13 0.04 0 0 0.13 0.03 0 0 0.14 0.03 0 0 0.13 0.03 0 0.01 0.13 0.03 0 0 0.14 0.03 0 0 0.13 0.03 0 0 0.14 0.03 0 0 0.14 0.03 0 0 0.14 0.03 0 0 0.14 0.02 0 0.01 0.14 0.02 0 0 0.14 0.03 0 0 0.15 0.03 0 0 0.14 0.02 0 0 0.14 0.03 0 0 0.15 0.02 0 0.01 0.15 0.02 0 0 0.15 0.02 0 0 0.15 0.03 0 0 0.15 0.02 0 0 0.15 0.02 0 0 0.15 0.03 0 0 0.15 0.02 0 0 0.16 0.02 0 0 0.15 0.02 0 0 0.16 0.02 0 0 0.16 0.02 0 0 0.16 0.02 0 0 0.16 0.02 0 0 0.16 0.02 0 0 0.16 0.01 0 0 0.16 0.02 0 0 0.16 0.02 0 0 0.17 0.01 0 0.01 0.17 0.01 0 0 0.16 0.01 0 0.01 0.17 0.01 0 0 0.17 0.01 0 0 0.17 0.02 0 0 0.17 0.01 0 0 0.17 0.01 0 0 0.17 0.01 0 0 0.18 0.02 0 0 0.17 0.01 0 0 0.18 0.01 0 0 0.18 0.01 0 0 0.18 0.01 0 0 0.17 0.01 0 0 0.18 0 0 0.01 0.19 0 0 0 0.18 0.01 0 0 0.18 0.01 0 0 0.18 0 0 0 0.19 0.01 0 0 0.19 0 0 0.01 0.18 0 0 0 0.19 0 0 0 0.19 0.01 0 0 0.19 0 0 0 0.19 0 0 0 0.2 0.01 0 0 0.19 0 0 0 0.19 0 0 0 0.2 0 0.2 0 40.02 0 0 -10.85 -25.9 0 0 0 -14.12 0 -0.18 0 -0.08 0c-1.73,-0.01 -3.16,-0.17 -4.28,-0.46 -1.18,-0.31 -2.12,-0.8 -2.82,-1.47 -0.7,-0.67 -1.18,-1.57 -1.43,-2.69 -0.24,-1.05 -0.36,-2.34 -0.38,-3.88l0 -0.01 0 -0.15 0 -0.01 0 -0.07 0 -0.01 0 -0.08 0 -3.87 48.86 0 0 -0.08 0 -10.09 0 -0.08 -48.86 0 0 -3.87 0 -0.08 0 -0.01 0 -0.07 0 -0.01 0 -0.14 0 -0.02c0.02,-1.54 0.14,-2.83 0.38,-3.87 0.25,-1.13 0.73,-2.02 1.43,-2.7 0.7,-0.67 1.64,-1.16 2.82,-1.47 1.12,-0.29 2.55,-0.45 4.28,-0.46l0.08 0 0.18 0 14.12 0 0 0 25.9 0 0 -10.85 -40.02 0zm-76.32 57.35l0 -46.33 -24.05 0 0 -11.02 60.97 0 0 11.02 -24.05 0 0 46.33 -12.87 0zm-48.14 1.26c-1.35,0 -2.59,-0.21 -3.74,-0.63 -1.15,-0.42 -2.23,-1.11 -3.24,-2.06l-41.79 -39.35 0 40.78 -11.86 0 0 -53.31c0,-1.8 0.63,-3.13 1.89,-4 1.26,-0.86 2.9,-1.3 4.92,-1.3 1.46,0 2.67,0.2 3.62,0.59 0.95,0.39 1.74,0.9 2.35,1.51l42.13 40.62 0 -41.46 12.11 0 0 53.32c0,1.9 -0.59,3.26 -1.77,4.07 -1.17,0.82 -2.71,1.22 -4.62,1.22z"/>
 </g>
</svg>
