<?xml version="1.0" encoding="UTF-8"?>
<!DOCTYPE svg PUBLIC "-//W3C//DTD SVG 1.1//EN" "http://www.w3.org/Graphics/SVG/1.1/DTD/svg11.dtd">
<!-- Creator: CorelDRAW 2020 (64 Bit) -->
<svg xmlns="http://www.w3.org/2000/svg" xml:space="preserve" width="150mm" height="100mm" version="1.1" style="shape-rendering:geometricPrecision; text-rendering:geometricPrecision; image-rendering:optimizeQuality; fill-rule:evenodd; clip-rule:evenodd"
viewBox="0 0 15000 10000"
 xmlns:xlink="http://www.w3.org/1999/xlink"
 xmlns:xodm="http://www.corel.com/coreldraw/odm/2003">
 <defs>
  <style type="text/css">
   <![CDATA[
    .fil0 {fill:#BD3538}
   ]]>
  </style>
 </defs>
 <g id="Camada_x0020_1">
  <metadata id="CorelCorpID_0Corel-Layer"/>
  <path class="fil0" d="M5393.36 4217.5l0 -158.24 0 -53.62 -693.41 0 0 53.62 0 158.24 0 192.28 0 146.98 0 147c0,57.14 -4.33,110.81 -12.96,160.95 -8.97,52.04 -22.44,99.53 -40.46,142.42 -19.05,45.39 -44.86,87.16 -77.38,125.22 -31.43,36.83 -69.07,69.56 -112.82,98.15 -42.36,27.65 -90.66,51.1 -144.88,70.26 -52.33,18.53 -110.57,33.33 -174.59,44.4 -61.37,10.6 -129.88,18.59 -205.48,23.89 -75.49,5.32 -156.13,7.97 -241.81,7.97l-149.41 0 -647.25 537.81 796.66 0c580.06,0 1011.63,-102.93 1294.69,-308.79 272.72,-198.34 409.1,-499.11 409.1,-902.28l0 -147 0 -146.98 0 -192.28zm0 -442.02l0 -546.47 -693.41 545.88 0 0.59 693.41 0zm-3210.41 0l-102.78 0 -311.95 0 -199.97 0 -449.58 0 0 -546.47 183.56 0 266.02 0 1447.31 0 308.18 0 451.92 0 97.99 0 803.51 0 -653.45 545.8 -150.06 0.24 0 -0.01 -618.82 0 0 0.38 -28.97 0.06 -1042.91 0zm689.09 854.82l0 239.62 0 132.05 0 375.05 -689.09 537.81 0 -912.86 0 -132.05 0 -239.62 0 -51.34 0 -573.32 689.09 0 0 573.32 0 51.34z"/>
  <path class="fil0" d="M6305.35 4113.5c21.97,-20.43 52.1,-30.65 90.25,-30.65 30.33,0 60.75,7.95 91.13,23.85 28.01,14.64 55.69,36.03 82.88,64.07l2.8 2.89 2.27 3.4 740.66 1110.76 0.35 0.52c60.27,92.77 130.49,162.02 210.63,207.78 79.52,45.38 169.77,68.06 270.73,68.06 235.35,0 410.46,-51.66 525.28,-154.99 113.46,-102.14 170.21,-257.69 170.21,-466.67l0 -1362.84 -502.66 0 0 1362.84c0,37.54 -11.54,66.96 -34.62,88.14 -21.99,20.2 -52.16,30.36 -90.46,30.36 -29.73,0 -59.71,-7.89 -89.86,-23.54 -27.52,-14.29 -55.43,-35.46 -83.63,-63.37l-3.23 -3.21 -2.52 -3.77 -740.67 -1111.26 -0.17 -0.35c-60.21,-92.43 -130.36,-161.67 -210.55,-207.58 -79.42,-45.46 -169.49,-68.26 -270.31,-68.26 -235.55,0 -410.76,51.76 -525.65,155.2 -113.58,102.25 -170.34,257.94 -170.34,466.97l0 1362.33 503.16 0 0 -1362.33c0,-37.64 11.48,-67.11 34.32,-88.35zm3268.81 -178.79l706.89 0 730.86 0 -0.83 -355.03 -1436.92 0c-285.62,0 -498.32,58.29 -638.07,174.76 -58.98,49.13 -105.29,109.24 -138.94,180.27l777.01 0zm-340.96 933.48l0 -73.8 0 -44.69 44.69 0 1732.92 0 0 -355.03 -729.76 0 -1003.16 0 -44.69 0 -503.16 0 0 473.52c0,233.19 68.67,406.96 205.98,521.37 139.74,116.43 352.48,174.62 638.14,174.62l1436.65 0 0 -355.03 -1436.65 0c-111.17,0 -195.77,-29.01 -253.86,-87.08 -58.07,-58.1 -87.1,-142.71 -87.1,-253.88zm3554.71 695.99l0 -1584.78 0 -44.69 44.69 0 991.74 0 0 -355.03 -2576.52 0 0 355.03 992.24 0 44.69 0 0 44.69 0 1584.78 503.16 0z"/>
  <path class="fil0" d="M1175.66 6760.31l0 -485.46 108.19 0 0 485.46 -108.19 0zm5687.61 -485.46l217.83 0 0 94.26 -253.78 0 0 -1.01 -75.09 0c-29.9,0 -50.77,6.17 -62.63,18.51 -11.87,12.33 -17.8,32.75 -17.8,61.21l0 38.44 409.3 0 0 91.83 -409.3 0 0 182.22 -107.49 0 0 -318.89c0,-30.37 2.97,-56.24 8.9,-77.6 5.93,-21.35 16.02,-38.55 30.25,-51.6 14.24,-13.05 33.22,-22.54 56.95,-28.47 23.73,-5.93 53.38,-8.9 88.98,-8.9l77.93 0 35.95 0zm3435 485.46c-35.59,0 -65.25,-2.96 -88.98,-8.89 -23.72,-5.94 -42.71,-15.43 -56.94,-28.48 -14.24,-13.04 -24.32,-30.13 -30.26,-51.25 -5.92,-21.12 -8.89,-47.1 -8.89,-77.94l0 -152.33c0,-30.37 2.97,-56.24 8.89,-77.6 5.94,-21.35 16.02,-38.55 30.26,-51.6 14.23,-13.05 33.22,-22.54 56.94,-28.47 23.73,-5.93 53.39,-8.9 88.98,-8.9l184.36 0c36.07,0 65.97,2.97 89.69,8.9 23.73,5.93 42.71,15.42 56.95,28.47 14.24,13.05 24.32,30.25 30.25,51.6 5.93,21.36 8.9,47.23 8.9,77.6l0 152.33c0,30.84 -2.97,56.82 -8.9,77.94 -5.93,21.12 -16.01,38.21 -30.25,51.25 -14.24,13.05 -33.22,22.54 -56.95,28.48 -23.72,5.93 -53.62,8.89 -89.69,8.89l-184.36 0zm261.95 -313.91c0,-15.18 -1.3,-27.76 -3.91,-37.72 -2.61,-9.97 -7,-18.04 -13.17,-24.21 -6.17,-6.17 -14.59,-10.44 -25.27,-12.81 -10.68,-2.37 -23.85,-3.56 -39.51,-3.56l-175.11 0c-17.08,0 -30.96,1.19 -41.64,3.56 -10.67,2.37 -19.1,6.64 -25.27,12.81 -6.16,6.17 -10.32,14.24 -12.45,24.21 -2.14,9.96 -3.2,22.54 -3.2,37.72l0 143.08c0,15.66 1.06,28.59 3.2,38.79 2.13,10.21 6.29,18.27 12.45,24.2 6.17,5.94 14.6,9.97 25.27,12.1 10.68,2.14 24.56,3.2 41.64,3.2l175.11 0c15.66,0 28.83,-1.06 39.51,-3.2 10.68,-2.13 19.1,-6.16 25.27,-12.1 6.17,-5.93 10.56,-13.99 13.17,-24.2 2.61,-10.2 3.91,-23.13 3.91,-38.79l0 -143.08zm-234.19 -222.09l88.98 -155.18 111.76 0 -113.19 155.18 -87.55 0zm626.78 397.2l0 138.8 -108.2 0 0 -485.46 388.66 0c34.64,0 63.59,2.73 86.84,8.19 23.26,5.46 42,14.47 56.24,27.05 14.23,12.57 24.31,28.82 30.25,48.76 5.93,19.92 8.89,44.13 8.89,72.6l0 42c0,28.94 -2.84,52.91 -8.54,71.9 -5.69,18.97 -15.54,34.16 -29.53,45.55 -14.01,11.39 -32.63,19.34 -55.89,23.85 -23.25,4.51 -52.67,6.76 -88.26,6.76l-280.46 0zm354.49 -185.79c0,-26.1 -5.58,-43.89 -16.73,-53.38 -11.15,-9.49 -31.2,-14.24 -60.15,-14.24l-277.61 0 0 165.86 279.03 0c28.48,0 48.17,-4.39 59.09,-13.17 10.91,-8.79 16.37,-25.99 16.37,-51.61l0 -33.46zm446.68 324.59l0 -392.21 -203.58 0 0 -93.25 516.07 0 0 93.25 -203.58 0 0 392.21 -108.91 0zm465.2 0l0 -485.46 108.19 0 0 485.46 -108.19 0zm470.89 0c-35.59,0 -65.25,-2.96 -88.98,-8.89 -23.72,-5.94 -42.71,-15.43 -56.94,-28.48 -14.24,-13.04 -24.32,-30.13 -30.26,-51.25 -5.93,-21.12 -8.89,-47.1 -8.89,-77.94l0 -152.33c0,-30.37 2.96,-56.24 8.89,-77.6 5.94,-21.35 16.02,-38.55 30.26,-51.6 14.23,-13.05 33.22,-22.54 56.94,-28.47 23.73,-5.93 53.39,-8.9 88.98,-8.9l336.69 0 0 93.25 -331.71 0c-16.6,0 -30.25,1.31 -40.92,3.91 -10.68,2.62 -19.11,7.01 -25.28,13.17 -6.17,6.17 -10.44,14.36 -12.81,24.57 -2.37,10.19 -3.56,22.65 -3.56,37.37l0 142.36c0,15.18 1.19,27.76 3.56,37.72 2.37,9.97 6.64,18.03 12.81,24.21 6.17,6.17 14.72,10.44 25.63,12.81 10.91,2.37 24.67,3.55 41.29,3.55l330.99 0 0 92.54 -336.69 0zm995.51 -111.75l-335.98 0 -69.05 111.75 -124.57 0 281.88 -448.44c8.54,-13.77 18.74,-25.16 30.61,-34.17 11.86,-9.02 28.94,-13.53 51.25,-13.53 21.83,0 38.67,4.51 50.54,13.53 11.87,9.01 22.06,20.4 30.61,34.17l280.45 448.44 -125.27 0 -70.47 -111.75zm-285.45 -83.29l234.9 0 -117.45 -191.47 -117.45 191.47zm-3905.16 83.29l-335.99 0 -69.04 111.75 -124.58 0 281.88 -448.44c8.55,-13.77 18.75,-25.16 30.62,-34.17 11.86,-9.02 28.94,-13.53 51.25,-13.53 21.83,0 38.67,4.51 50.54,13.53 11.86,9.01 22.06,20.4 30.6,34.17l280.46 448.44 -125.27 0 -70.47 -111.75zm-285.45 -83.29l234.9 0 -117.45 -191.47 -117.45 191.47zm-559.15 195.04l-284.03 -176.52 0 176.52 -107.48 0 0 -485.46 380.12 0c34.16,0 63.34,2.14 87.55,6.41 24.2,4.27 44.01,11.86 59.44,22.77 15.42,10.92 26.69,25.87 33.8,44.85 7.13,18.98 10.68,42.95 10.68,71.9l0 33.45c0,28 -3.79,51.13 -11.38,69.4 -7.59,18.27 -19.35,32.75 -35.24,43.43 -15.9,10.67 -35.95,18.15 -60.15,22.42 -24.2,4.27 -52.91,6.4 -86.13,6.4l-85.42 0 284.73 164.43 -186.49 0zm71.89 -333.84c0,-12.81 -1.42,-23.26 -4.27,-31.32 -2.85,-8.07 -7.59,-14.24 -14.24,-18.51 -6.65,-4.27 -15.89,-7.11 -27.76,-8.54 -11.87,-1.43 -26.57,-2.14 -44.14,-2.14l-265.51 0 0 148.06 265.51 0c17.57,0 32.15,-0.7 43.78,-2.13 11.63,-1.42 20.88,-4.27 27.76,-8.55 6.89,-4.27 11.75,-10.44 14.6,-18.5 2.85,-8.07 4.27,-18.75 4.27,-32.03l0 -26.34zm-1197.66 -151.62l409.3 0c27.52,0 51.01,1.9 70.47,5.69 19.45,3.8 35.23,10.09 47.34,18.87 12.1,8.78 20.99,20.17 26.69,34.17 5.69,13.99 8.54,31.19 8.54,51.6l0 39.87c0,28.47 -4.98,48.88 -14.95,61.21 -9.97,12.34 -22.54,20.65 -37.73,24.92 8.54,1.89 16.5,4.86 23.85,8.89 7.35,4.04 13.64,9.85 18.86,17.44 5.22,7.59 9.26,17.45 12.11,29.55 2.84,12.09 4.27,27.16 4.27,45.19l0 42.71c0,19.46 -2.73,35.83 -8.19,49.12 -5.46,13.29 -14.23,24.08 -26.34,32.39 -12.1,8.3 -27.88,14.35 -47.33,18.15 -19.46,3.79 -42.95,5.69 -70.47,5.69l-416.42 0 0 -485.46zm108.2 278.32l0 118.88 302.52 0c20.41,0 35,-2.73 43.78,-8.18 8.78,-5.46 13.17,-15.79 13.17,-30.97l0 -29.9c0,-19.93 -3.92,-33.22 -11.75,-39.86 -7.82,-6.64 -21.71,-9.97 -41.64,-9.97l-306.08 0zm0 -190.05l0 111.76 303.23 0c18.98,0 32.03,-3.09 39.15,-9.26 7.12,-6.17 10.68,-17.32 10.68,-33.45l0 -30.61c0,-14.72 -4.39,-24.8 -13.16,-30.26 -8.79,-5.46 -24.56,-8.18 -47.35,-8.18l-292.55 0zm-396.86 397.19l0 -485.46 108.19 0 0 485.46 -108.19 0zm-1416.58 0l0 -392.21 -203.57 0 0 -93.25 516.06 0 0 93.25 -203.58 0 0 392.21 -108.91 0zm-615.39 -485.47l-1.66 0.01 -1.66 0 0 0.01 -1.65 0 0 0.01 -1.63 0.01 0 0 -1.63 0.01 0 0.01 -1.62 0.02 0 0.01 -1.62 0.02 0 0.01 -1.59 0.02 0 0.01 -1.6 0.03 0 0.01 -1.59 0.03 0 0.01 -1.57 0.03 0 0.01 -1.57 0.04 0 0.01 -1.56 0.05 0 0.01 -1.55 0.05 0 0.01 -1.54 0.05 0 0.01 -1.54 0.06 0 0.01 -1.52 0.06 0 0.01 -1.52 0.07 0 0.01 -1.51 0.06 0 0.01 -1.5 0.08 0 0.01 -1.48 0.08 0 0.01 -1.48 0.08 0 0.01 -1.48 0.09 0 0.01 -1.47 0.09 0 0.01 -1.45 0.1 0 0.01 -1.45 0.1 0 0.01 -1.44 0.1 0 0.01 -1.42 0.12 0 0.01 -1.43 0.11 0 0 -1.41 0.13 0 0.01 -1.4 0.12 0 0.01 -1.4 0.13 0 0.01 -1.38 0.12 0 0.01 -1.37 0.15 0 0 -1.38 0.15 0 0.01 -1.36 0.14 0 0.01 -1.35 0.15 0 0.01 -1.34 0.15 0 0.01 -1.33 0.16 0 0 -1.32 0.16 0 0.01 -1.32 0.17 0 0.01 -1.32 0.18 0 0 -1.29 0.18 0 0.01 -1.3 0.18 0 0 -1.27 0.19 0 0.01 -1.27 0.19 0 0.01 -1.27 0.19 0 0.01 -1.25 0.19 0 0.01 -1.25 0.2 0 0.01 -1.24 0.21 0 0.01 -1.23 0.21 0 0.01 -1.22 0.22 0 0.01 -1.21 0.22 0 0 -1.2 0.22 0 0.01 -1.21 0.23 0 0.01 -1.18 0.23 0 0.01 -1.18 0.24 0 0 -1.17 0.25 0 0.01 -1.16 0.24 0 0.01 -1.15 0.25 0 0.01 -1.14 0.25 0 0.01 -1.13 0.26 0 0.01 -1.12 0.26 0 0.01 -1.12 0.27 0 0.01 -1.11 0.26 0 0.01 -1.1 0.28 0 0.01 -1.1 0.28 0 0.01 -1.09 0.29 0 0.01 -1.08 0.29 0 0.01 -1.07 0.3 0 0.01 -1.07 0.3 0 0.01 -1.06 0.31 0 0.01 -1.05 0.31 0 0.01 -1.05 0.32 0 0.01 -1.04 0.33 0 0 -1.03 0.33 0 0.01 -1.02 0.34 0 0.01 -1.02 0.33 0 0.01 -1.01 0.35 0 0 -1.01 0.36 0 0.01 -0.99 0.35 0 0.01 -0.99 0.36 0 0.01 -0.99 0.37 0 0 -0.97 0.37 0 0.01 -0.98 0.38 0 0.01 -0.96 0.38 0 0.01 -0.96 0.38 0 0.01 -0.95 0.4 0 0.01 -0.94 0.39 0 0.01 -0.93 0.4 0 0.01 -0.92 0.4 0 0.01 -0.93 0.42 0 0.01 -0.92 0.41 0 0.01 -0.9 0.43 0 0.01 -0.9 0.43 0 0.01 -0.89 0.43 0 0 -0.89 0.44 0 0.01 -0.88 0.44 0 0.01 -0.87 0.46 0 0.01 -0.87 0.45 0 0.01 -0.86 0.46 0 0.01 -0.85 0.46 0 0.01 -0.84 0.47 0 0.01 -0.84 0.47 0 0.01 -0.83 0.49 0 0 -0.82 0.48 0 0.01 -0.82 0.5 0 0.01 -0.81 0.49 0 0.01 -0.8 0.51 0 0 -0.79 0.51 0 0.01 -0.8 0.51 0 0.01 -0.78 0.51 0 0.01 -0.78 0.52 0 0.01 -0.76 0.53 0 0.01 -0.76 0.53 0 0.01 -0.76 0.54 0 0.01 -0.75 0.54 0 0.01 -0.74 0.54 0 0.01 -0.73 0.56 0 0 -0.73 0.57 0 0.01 -0.71 0.56 0 0.01 -0.72 0.57 0 0.01 -0.7 0.57 0 0.01 -0.7 0.58 0 0.01 -0.69 0.58 0 0.01 -0.69 0.59 0 0.01 -0.67 0.6 0 0.01 -0.68 0.59 0 0.01 -0.66 0.61 0 0 -0.66 0.62 0 0.01 -1.3 1.25 0 0.01 -0.64 0.63 0 0.01c-12.52,12.6 -21.52,28.63 -26.99,48.1 -4.93,17.54 -7.8,38.43 -8.64,62.7l-0.04 1.15 0 0.2 -0.04 1.17 0 0.19 -0.04 1.2 0 0.17 -0.03 1.22 0 0.15 -0.03 1.25 0 0.13 -0.03 1.28 0 0.11 -0.01 1.3 0 0.09 -0.02 1.33 0 0.08 -0.01 1.35 0 0.05 -0.01 1.38 0 0.04 0 1.41 0 0.01 0 152.32 0 0.01 0 1.41 0 0.03 0.01 1.38 0 0.05 0.01 1.36 0 0.07 0.02 1.33 0 0.09 0.01 1.31 0 0.11 0.03 1.27 0 0.14 0.03 1.24 0 0.15 0.03 1.22 0 0.18 0.04 1.19 0 0.2 0.04 1.17 0 0.2 0.04 1.15c0.85,24.25 3.73,45.17 8.64,62.69 5.19,18.48 13.57,33.86 25.11,46.16l0 0.01 1.88 1.94 0 0.01 0.64 0.63 0 0.01 1.3 1.25 0 0.01 0.66 0.61 0 0.01 0.66 0.61 0 0 0.68 0.6 0 0.01 0.67 0.6 0 0 0.69 0.59 0 0.01 0.69 0.59 0 0.01 0.7 0.58 0 0.01 0.7 0.57 0 0.01 0.72 0.57 0 0.01 0.71 0.56 0 0.01 0.73 0.56 0 0.01 0.73 0.56 0 0 0.74 0.55 0 0.01 0.75 0.54 0 0 0.76 0.54 0 0.01 0.76 0.54 0 0.01 0.76 0.53 0 0.01 0.78 0.52 0 0.01 0.78 0.51 0 0.01 0.8 0.51 0 0.01 0.79 0.5 0 0.01 0.8 0.51 0 0 0.81 0.5 0 0.01 0.82 0.49 0 0.01 0.82 0.48 0 0.01 0.83 0.49 0 0.01 0.84 0.47 0 0.01 0.84 0.47 0 0 0.85 0.47 0 0.01 0.86 0.46 0 0.01 0.87 0.45 0 0.01 0.87 0.45 0 0.01 0.88 0.45 0 0.01 0.89 0.43 0 0.01 0.89 0.43 0 0.01 0.9 0.43 0 0.01 0.9 0.42 0 0.01 0.92 0.41 0 0.01 0.93 0.42 0 0.01 0.92 0.4 0 0.01 0.93 0.41 0 0.01 0.94 0.39 0 0.01 0.95 0.39 0 0.01 0.96 0.39 0 0.01 0.96 0.38 0 0 0.98 0.38 0 0.01 0.97 0.37 0 0.01 0.99 0.37 0 0.01 0.99 0.36 0 0.01 0.99 0.35 0 0.01 1.01 0.35 0 0.01 1.01 0.35 0 0 1.02 0.34 0 0.01 1.02 0.33 0 0.01 1.03 0.33 0 0.01 1.04 0.33 0 0.01 1.05 0.32 0 0 1.05 0.31 0 0.01 1.06 0.31 0 0.01 1.07 0.31 0 0 1.07 0.31 0 0 1.08 0.3 0 0.01 1.09 0.28 0 0.01 1.1 0.29 0 0.01 1.1 0.27 0 0.01 1.11 0.27 0 0.01 1.12 0.27 0 0.01 1.12 0.26 0 0.01 1.13 0.26 0 0 1.14 0.26 0 0.01 1.15 0.25 0 0.01 1.16 0.24 0 0.01 1.17 0.24 0 0.01 1.18 0.24 0 0 1.18 0.24 0 0.01 1.21 0.23 0 0 1.2 0.22 0 0.01 1.21 0.22 0 0.01 1.22 0.22 0 0 1.23 0.21 0 0.01 1.24 0.21 0 0.01 1.25 0.2 0 0.01 1.25 0.2 0 0 1.27 0.2 0 0.01 1.27 0.19 0 0.01 1.27 0.18 0 0.01 1.3 0.18 0 0.01 1.29 0.17 0 0.01 1.32 0.18 0 0.01 1.32 0.16 0 0.01 1.32 0.16 0 0.01 1.33 0.16 0 0.01 1.34 0.15 0 0.01 1.35 0.15 0 0.01 1.36 0.14 0 0.01 1.38 0.14 0 0.01 1.37 0.14 0 0.01 1.38 0.13 0 0.01 1.4 0.13 0 0.01 1.4 0.12 0 0.01 1.41 0.12 0 0.01 1.43 0.11 0 0.01 1.42 0.12 0 0 1.44 0.1 0 0.01 1.45 0.1 0 0.01 1.45 0.1 0 0.01 1.47 0.09 0 0.01 1.48 0.09 0 0.01 1.48 0.09 0 0.01 1.48 0.08 0 0.01 1.5 0.07 0 0.01 1.51 0.07 0 0.01 1.52 0.07 0 0 1.52 0.07 0 0.01 1.54 0.06 0 0.01 1.54 0.05 0 0.01 1.55 0.05 0 0 1.56 0.05 0 0.01 1.57 0.05 0 0 1.57 0.04 0 0.01 1.59 0.03 0 0.01 1.6 0.02 0 0.01 1.59 0.03 0 0 1.62 0.03 0 0.01 1.62 0.02 0 0 1.63 0.01 0 0.01 1.63 0.01 0 0.01 1.65 0 0 0.01 1.66 0 1.66 0 338.83 0 0 -91.82 -219.24 0 0 -0.01 -119.59 0 -1.46 0 -0.72 0c-14.67,-0.12 -26.76,-1.43 -36.26,-3.92 -9.96,-2.6 -17.9,-6.76 -23.84,-12.45 -5.93,-5.7 -9.96,-13.29 -12.1,-22.78 -1.99,-8.86 -3.06,-19.81 -3.19,-32.82l0 -0.13 -0.01 -1.23 0 -0.08 0 -0.61 0 -0.06 0 -0.66 0 -32.75 413.56 0 0 -0.69 0 -85.44 0 -0.7 -413.56 0 0 -32.74 0 -0.67 0 -0.06 0 -0.6 0 -0.09 0.01 -1.22 0 -0.14c0.13,-13.01 1.19,-23.94 3.19,-32.81 2.14,-9.49 6.17,-17.09 12.1,-22.79 5.94,-5.69 13.88,-9.84 23.84,-12.45 9.5,-2.49 21.59,-3.8 36.26,-3.92l0.72 0 1.46 0 119.59 0 0 0 219.24 0 0 -91.83 -338.83 0zm-413.93 496.15c-11.39,0 -21.95,-1.78 -31.68,-5.34 -9.73,-3.55 -18.87,-9.37 -27.41,-17.43l-353.77 -333.14 0 345.23 -100.37 0 0 -451.29c0,-15.19 5.34,-26.46 16.02,-33.82 10.68,-7.34 24.56,-11.03 41.64,-11.03 12.33,0 22.54,1.67 30.6,4.99 8.07,3.32 14.72,7.59 19.94,12.81l356.62 343.81 0 -350.93 102.5 0 0 451.3c0,16.13 -4.98,27.64 -14.95,34.52 -9.96,6.88 -23.01,10.32 -39.14,10.32zm-863.82 -10.68l-284.03 -176.52 0 176.52 -107.47 0 0 -485.46 380.11 0c34.16,0 63.35,2.14 87.55,6.41 24.21,4.27 44.01,11.86 59.44,22.77 15.42,10.92 26.69,25.87 33.81,44.85 7.12,18.98 10.67,42.95 10.67,71.9l0 33.45c0,28 -3.79,51.13 -11.38,69.4 -7.59,18.27 -19.34,32.75 -35.23,43.43 -15.9,10.67 -35.95,18.15 -60.16,22.42 -24.2,4.27 -52.91,6.4 -86.12,6.4l-85.43 0 284.73 164.43 -186.49 0zm71.89 -333.84c0,-12.81 -1.42,-23.26 -4.27,-31.32 -2.85,-8.07 -7.59,-14.24 -14.23,-18.51 -6.65,-4.27 -15.9,-7.11 -27.77,-8.54 -11.87,-1.43 -26.57,-2.14 -44.13,-2.14l-265.52 0 0 148.06 265.52 0c17.56,0 32.15,-0.7 43.77,-2.13 11.63,-1.42 20.89,-4.27 27.76,-8.55 6.89,-4.27 11.75,-10.44 14.6,-18.5 2.85,-8.07 4.27,-18.75 4.27,-32.03l0 -26.34zm-967.03 -151.63l-1.67 0.01 -1.66 0 0 0.01 -1.64 0 0 0.01 -1.63 0.01 0 0 -1.64 0.01 0 0.01 -1.62 0.02 0 0.01 -1.61 0.02 0 0.01 -1.6 0.02 0 0.01 -1.6 0.03 0 0.01 -1.59 0.03 0 0.01 -1.57 0.03 0 0.01 -1.57 0.04 0 0.01 -1.56 0.05 0 0.01 -1.55 0.05 0 0.01 -1.54 0.05 0 0.01 -1.54 0.06 0 0.01 -1.52 0.06 0 0.01 -1.51 0.07 0 0.01 -1.52 0.06 0 0.01 -1.49 0.08 0 0.01 -1.49 0.08 0 0.01 -1.48 0.08 0 0.01 -1.48 0.09 0 0.01 -1.46 0.09 0 0.01 -1.46 0.1 0 0.01 -1.44 0.1 0 0.01 -1.44 0.1 0 0.01 -1.43 0.12 0 0.01 -1.42 0.11 0 0 -1.41 0.13 0 0.01 -1.41 0.12 0 0.01 -1.39 0.13 0 0.01 -1.38 0.12 0 0.01 -1.38 0.15 0 0 -1.37 0.15 0 0.01 -1.36 0.14 0 0.01 -1.36 0.15 0 0.01 -1.33 0.15 0 0.01 -1.34 0.16 0 0 -1.32 0.16 0 0.01 -1.32 0.17 0 0.01 -1.31 0.18 0 0 -1.3 0.18 0 0.01 -1.29 0.18 0 0 -1.28 0.19 0 0.01 -1.27 0.19 0 0.01 -1.27 0.19 0 0.01 -1.25 0.19 0 0.01 -1.25 0.2 0 0.01 -1.24 0.21 0 0.01 -1.23 0.21 0 0.01 -1.22 0.22 0 0.01 -1.21 0.22 0 0 -1.2 0.22 0 0.01 -1.2 0.23 0 0.01 -1.19 0.23 0 0.01 -1.17 0.24 0 0 -1.17 0.25 0 0.01 -1.16 0.24 0 0.01 -1.15 0.25 0 0.01 -1.15 0.25 0 0.01 -1.12 0.26 0 0.01 -1.13 0.26 0 0.01 -1.12 0.27 0 0.01 -1.11 0.26 0 0.01 -1.1 0.28 0 0.01 -1.09 0.28 0 0.01 -1.1 0.29 0 0.01 -1.07 0.29 0 0.01 -1.08 0.3 0 0.01 -1.07 0.3 0 0.01 -1.06 0.31 0 0.01 -1.05 0.31 0 0.01 -1.05 0.32 0 0.01 -1.03 0.33 0 0 -1.04 0.33 0 0.01 -1.02 0.34 0 0.01 -1.02 0.33 0 0.01 -1.01 0.35 0 0 -1.01 0.36 0 0.01 -0.99 0.35 0 0.01 -0.99 0.36 0 0.01 -0.98 0.37 0 0 -0.98 0.37 0 0.01 -0.97 0.38 0 0.01 -0.96 0.38 0 0.01 -0.96 0.38 0 0.01 -0.95 0.4 0 0.01 -0.94 0.39 0 0.01 -0.94 0.4 0 0.01 -0.92 0.4 0 0.01 -0.93 0.42 0 0.01 -0.91 0.41 0 0.01 -0.91 0.43 0 0.01 -0.9 0.43 0 0.01 -0.89 0.43 0 0 -0.88 0.44 0 0.01 -0.89 0.44 0 0.01 -0.87 0.46 0 0.01 -0.87 0.45 0 0.01 -0.85 0.46 0 0.01 -0.85 0.46 0 0.01 -0.84 0.47 0 0.01 -0.85 0.47 0 0.01 -0.83 0.49 0 0 -0.82 0.48 0 0.01 -0.82 0.5 0 0.01 -0.8 0.49 0 0.01 -0.81 0.51 0 0 -0.79 0.51 0 0.01 -0.79 0.51 0 0.01 -0.78 0.51 0 0.01 -0.79 0.52 0 0.01 -0.76 0.53 0 0.01 -0.76 0.53 0 0.01 -0.75 0.54 0 0.01 -0.75 0.54 0 0.01 -0.74 0.54 0 0.01 -0.73 0.56 0 0 -0.74 0.57 0 0.01 -0.71 0.56 0 0.01 -0.71 0.57 0 0.01 -0.71 0.57 0 0.01 -0.7 0.58 0 0.01 -0.69 0.58 0 0.01 -0.69 0.59 0 0.01 -0.67 0.6 0 0.01 -0.67 0.59 0 0.01 -0.67 0.61 0 0 -0.65 0.62 0 0.01 -1.31 1.25 0 0.01 -0.63 0.63 0 0.01c-12.53,12.6 -21.53,28.63 -27,48.1 -4.93,17.54 -7.79,38.43 -8.63,62.7l-0.05 1.15 0 0.2 -0.04 1.17 0 0.19 -0.03 1.2 0 0.17 -0.04 1.22 0 0.15 -0.03 1.25 0 0.13 -0.02 1.28 0 0.11 -0.02 1.3 0 0.09 -0.02 1.33 0 0.08 -0.01 1.35 0 0.05 -0.01 1.38 0 0.04 0 1.41 0 0.01 0 152.32 0 0.01 0 1.41 0 0.03 0.01 1.38 0 0.05 0.01 1.36 0 0.07 0.02 1.33 0 0.09 0.02 1.31 0 0.11 0.02 1.27 0 0.14 0.03 1.24 0 0.15 0.04 1.22 0 0.18 0.03 1.19 0 0.2 0.04 1.17 0 0.2 0.05 1.15c0.84,24.25 3.72,45.17 8.63,62.69 5.2,18.48 13.57,33.86 25.11,46.16l0 0.01 1.89 1.94 0 0.01 0.63 0.63 0 0.01 1.31 1.25 0 0.01 0.65 0.61 0 0.01 0.67 0.61 0 0 0.67 0.6 0 0.01 0.67 0.6 0 0 0.69 0.59 0 0.01 0.69 0.59 0 0.01 0.7 0.58 0 0.01 0.71 0.57 0 0.01 0.71 0.57 0 0.01 0.71 0.56 0 0.01 0.74 0.56 0 0.01 0.73 0.56 0 0 0.74 0.55 0 0.01 0.75 0.54 0 0 0.75 0.54 0 0.01 0.76 0.54 0 0.01 0.76 0.53 0 0.01 0.79 0.52 0 0.01 0.78 0.51 0 0.01 0.79 0.51 0 0.01 0.79 0.5 0 0.01 0.81 0.51 0 0 0.8 0.5 0 0.01 0.82 0.49 0 0.01 0.82 0.48 0 0.01 0.83 0.49 0 0.01 0.85 0.47 0 0.01 0.84 0.47 0 0 0.85 0.47 0 0.01 0.85 0.46 0 0.01 0.87 0.45 0 0.01 0.87 0.45 0 0.01 0.89 0.45 0 0.01 0.88 0.43 0 0.01 0.89 0.43 0 0.01 0.9 0.43 0 0.01 0.91 0.42 0 0.01 0.91 0.41 0 0.01 0.93 0.42 0 0.01 0.92 0.4 0 0.01 0.94 0.41 0 0.01 0.94 0.39 0 0.01 0.95 0.39 0 0.01 0.96 0.39 0 0.01 0.96 0.38 0 0 0.97 0.38 0 0.01 0.98 0.37 0 0.01 0.98 0.37 0 0.01 0.99 0.36 0 0.01 0.99 0.35 0 0.01 1.01 0.35 0 0.01 1.01 0.35 0 0 1.02 0.34 0 0.01 1.02 0.33 0 0.01 1.04 0.33 0 0.01 1.03 0.33 0 0.01 1.05 0.32 0 0 1.05 0.31 0 0.01 1.06 0.31 0 0.01 1.07 0.31 0 0 1.08 0.31 0 0 1.07 0.3 0 0.01 1.1 0.28 0 0.01 1.09 0.29 0 0.01 1.1 0.27 0 0.01 1.11 0.27 0 0.01 1.12 0.27 0 0.01 1.13 0.26 0 0.01 1.12 0.26 0 0 1.15 0.26 0 0.01 1.15 0.25 0 0.01 1.16 0.24 0 0.01 1.17 0.24 0 0.01 1.17 0.24 0 0 1.19 0.24 0 0.01 1.2 0.23 0 0 1.2 0.22 0 0.01 1.21 0.22 0 0.01 1.22 0.22 0 0 1.23 0.21 0 0.01 1.24 0.21 0 0.01 1.25 0.2 0 0.01 1.25 0.2 0 0 1.27 0.2 0 0.01 1.27 0.19 0 0.01 1.28 0.18 0 0.01 1.29 0.18 0 0.01 1.3 0.17 0 0.01 1.31 0.18 0 0.01 1.32 0.16 0 0.01 1.32 0.16 0 0.01 1.34 0.16 0 0.01 1.33 0.15 0 0.01 1.36 0.15 0 0.01 1.36 0.14 0 0.01 1.37 0.14 0 0.01 1.38 0.14 0 0.01 1.38 0.13 0 0.01 1.39 0.13 0 0.01 1.41 0.12 0 0.01 1.41 0.12 0 0.01 1.42 0.11 0 0.01 1.43 0.12 0 0 1.44 0.1 0 0.01 1.44 0.1 0 0.01 1.46 0.1 0 0.01 1.46 0.09 0 0.01 1.48 0.09 0 0.01 1.48 0.09 0 0.01 1.49 0.08 0 0.01 1.49 0.07 0 0.01 1.52 0.07 0 0.01 1.51 0.07 0 0 1.52 0.07 0 0.01 1.54 0.06 0 0.01 1.54 0.05 0 0.01 1.55 0.05 0 0 1.56 0.05 0 0.01 1.57 0.05 0 0 1.57 0.04 0 0.01 1.59 0.03 0 0.01 1.6 0.02 0 0.01 1.6 0.03 0 0 1.61 0.03 0 0.01 1.62 0.02 0 0 1.64 0.01 0 0.01 1.63 0.01 0 0.01 1.64 0 0 0.01 1.66 0 1.67 0 338.83 0 0 -91.82 -219.25 0 0 -0.01 -119.58 0 -1.47 0 -0.72 0c-14.66,-0.12 -26.75,-1.43 -36.25,-3.92 -9.97,-2.6 -17.91,-6.76 -23.85,-12.45 -5.92,-5.7 -9.96,-13.29 -12.09,-22.78 -2,-8.86 -3.06,-19.81 -3.2,-32.82l0 -0.13 -0.01 -1.23 0 -0.08 0 -0.61 0 -0.06 0 -0.66 0 -32.75 413.57 0 0 -0.69 0 -85.44 0 -0.7 -413.57 0 0 -32.74 0 -0.67 0 -0.06 0 -0.6 0 -0.09 0.01 -1.22 0 -0.14c0.14,-13.01 1.19,-23.94 3.2,-32.81 2.13,-9.49 6.17,-17.09 12.09,-22.79 5.94,-5.69 13.88,-9.84 23.85,-12.45 9.5,-2.49 21.59,-3.8 36.25,-3.92l0.72 0 1.47 0 119.58 0 0 0 219.25 0 0 -91.83 -338.83 0zm-646.01 485.47l0 -392.21 -203.57 0 0 -93.25 516.07 0 0 93.25 -203.59 0 0 392.21 -108.91 0zm-407.52 10.68c-11.4,0 -21.96,-1.78 -31.68,-5.34 -9.73,-3.55 -18.87,-9.37 -27.41,-17.43l-353.77 -333.14 0 345.23 -100.37 0 0 -451.29c0,-15.19 5.34,-26.46 16.02,-33.82 10.67,-7.34 24.55,-11.03 41.64,-11.03 12.33,0 22.54,1.67 30.6,4.99 8.07,3.32 14.71,7.59 19.93,12.81l356.63 343.81 0 -350.93 102.5 0 0 451.3c0,16.13 -4.98,27.64 -14.95,34.52 -9.96,6.88 -23.01,10.32 -39.14,10.32z"/>
 </g>
</svg>
