<?xml version="1.0" encoding="UTF-8"?>
<!DOCTYPE svg PUBLIC "-//W3C//DTD SVG 1.1//EN" "http://www.w3.org/Graphics/SVG/1.1/DTD/svg11.dtd">
<!-- Creator: CorelDRAW 2020 (64 Bit) -->
<svg xmlns="http://www.w3.org/2000/svg" xml:space="preserve" width="2480px" height="796px" version="1.1" style="shape-rendering:geometricPrecision; text-rendering:geometricPrecision; image-rendering:optimizeQuality; fill-rule:evenodd; clip-rule:evenodd"
viewBox="0 0 2480 796.09"
 xmlns:xlink="http://www.w3.org/1999/xlink"
 xmlns:xodm="http://www.corel.com/coreldraw/odm/2003"
 data-name="Layer 1">
 <defs>
  <style type="text/css">
   <![CDATA[
    .fil0 {fill:#ED3237;fill-rule:nonzero;fill-opacity:0.101961}
    .fil1 {fill:#ED3237;fill-rule:nonzero;fill-opacity:0.200000}
    .fil2 {fill:#ED3237;fill-rule:nonzero;fill-opacity:0.400000}
    .fil3 {fill:#ED3237;fill-rule:nonzero;fill-opacity:0.600000}
   ]]>
  </style>
 </defs>
 <g id="Camada_x0020_1">
  <metadata id="CorelCorpID_0Corel-Layer"/>
  <g id="_1232622930688">
   <g>
    <g data-name="Group 747">
     <path class="fil0" d="M-2.33 115.19c850.28,-394.96 1518.61,18.21 1891.88,0 373.28,-18.21 582.3,-119.11 582.3,-119.11l0 531.07 -2474.18 0 0 -411.96z" data-name="Path 294"/>
     <path class="fil1" d="M2477.66 186.05c-850.28,-394.96 -1518.6,18.21 -1891.88,0 -373.27,-18.21 -582.3,-119.11 -582.3,-119.11l0 531.07 2474.18 0 0 -411.96z" data-name="Path 297"/>
     <path class="fil2" d="M-2.33 256.9c850.28,-394.95 1518.61,18.21 1891.88,0 373.28,-18.21 582.3,-119.11 582.3,-119.11l0 531.08 -2474.18 0 0 -411.97z" data-name="Path 296"/>
     <path class="fil3" d="M2471.78 327.76c-850.28,-394.96 -1518.6,18.21 -1891.88,0 -373.27,-18.21 -582.23,-119.11 -582.23,-119.11l0 531.07 2474.11 0 0 -411.96z" data-name="Path 295"/>
    </g>
   </g>
  </g>
 </g>
</svg>
