<?xml version="1.0" encoding="UTF-8"?>
<!DOCTYPE svg PUBLIC "-//W3C//DTD SVG 1.1//EN" "http://www.w3.org/Graphics/SVG/1.1/DTD/svg11.dtd">
<!-- Creator: CorelDRAW 2020 (64 Bit) -->
<svg xmlns="http://www.w3.org/2000/svg" xml:space="preserve" width="2067px" height="1854px" version="1.1" style="shape-rendering:geometricPrecision; text-rendering:geometricPrecision; image-rendering:optimizeQuality; fill-rule:evenodd; clip-rule:evenodd"
viewBox="0 0 2067 1854.39"
 xmlns:xlink="http://www.w3.org/1999/xlink"
 xmlns:xodm="http://www.corel.com/coreldraw/odm/2003">
 <defs>
  <style type="text/css">
   <![CDATA[
    .fil1 {fill:#222124}
    .fil0 {fill:#a70800}
   ]]>
  </style>
 </defs>
 <g id="Camada_x0020_1">
  <metadata id="CorelCorpID_0Corel-Layer"/>
  <polygon class="fil0" points="-3254.46,-1009.64 -3194.25,-989.57 -3154.1,-989.57 -3113.97,-969.51 -3073.83,-949.44 -3033.69,-909.29 -3033.69,-869.15 -2993.55,-849.09 -2993.55,-768.8 -2893.2,-648.38 -2873.13,-568.11 -2873.13,-467.76 -2853.06,-407.54 -2873.13,-407.54 -2893.2,-367.41 -2913.27,-387.48 -2933.33,-367.41 -2933.33,-387.48 -2993.55,-387.48 -2993.55,-367.41 -2953.41,-347.34 -2973.48,-307.2 -2933.33,-287.13 -2933.33,-267.06 -2953.41,-246.99 -2953.41,-226.92 -2893.2,-226.92 -2913.27,-206.85 -2913.27,-143.3 -2893.2,-123.23 -2913.27,-83.08 -2873.13,-83.08 -2893.2,-63.01 -2913.27,-42.94 -2873.13,-22.88 -2893.2,-2.81 -2873.13,-2.81 -2873.13,17.26 -2893.2,17.26 -2893.2,37.33 -2973.48,37.33 -2993.55,77.48 -3033.69,117.61 -3033.69,157.75 -3073.83,157.75 -3113.97,177.82 -3113.97,338.38 -3134.04,358.44 -3174.17,338.38 -3194.25,358.44 -3214.32,338.38 -3214.32,378.52 -3234.39,438.74 -3314.66,478.87 -3314.66,519.01 -3334.74,559.15 -3314.66,619.36 -3394.95,579.22 -3435.08,639.43 -3455.16,619.36 -3475.23,579.22 -3555.5,579.22 -3615.72,639.43 -3696,639.43 -3716.07,659.5 -3776.27,699.63 -3836.49,679.57 -3876.62,699.63 -3896.69,679.57 -3876.62,659.5 -3896.69,639.43 -3896.69,599.29 -3916.76,579.22 -3916.76,539.08 -3896.69,519.01 -3997.04,458.8 -4017.11,418.66 -3976.98,318.32 -3936.83,278.17 -3876.62,137.68 -3916.76,97.54 -3936.83,37.33 -3896.69,-2.81 -3956.91,-2.81 -4037.18,-63.01 -3997.04,-123.23 -3956.91,-143.3 -3936.83,-186.78 -3876.62,-267.06 -3876.62,-327.27 -3836.49,-367.41 -3816.42,-407.54 -3736.14,-427.62 -3696,-467.76 -3615.72,-507.9 -3575.58,-527.96 -3555.5,-527.96 -3495.3,-507.9 -3475.23,-507.9 -3435.08,-487.83 -3374.88,-507.9 -3334.74,-487.83 -3334.74,-507.9 -3274.52,-487.83 -3274.52,-467.76 -3254.46,-487.83 -3254.46,-548.04 -3314.66,-548.04 -3314.66,-588.18 -3354.81,-608.25 -3354.81,-648.38 -3374.88,-648.38 -3435.08,-688.53 -3435.08,-728.67 -3455.16,-728.67 -3495.3,-748.73 -3475.23,-788.87 -3515.36,-829.02 -3515.36,-869.15 -3595.65,-909.29 -3575.58,-929.36 -3615.72,-969.51 -3595.65,-1009.64 -3515.36,-969.51 -3415.02,-969.51 -3374.88,-989.57 -3354.81,-969.51 -3314.66,-1009.64 "/>
  <path class="fil1" d="M-3065.47 384.56c2.97,1.98 8.81,3.54 14.16,3.54 13.09,0 19.42,-7.41 19.42,-15.97 0,-8.15 -4.77,-12.67 -14.15,-16.29 -7.66,-2.97 -11.03,-5.52 -11.03,-10.71 0,-3.78 2.88,-8.31 10.45,-8.31 5.02,0 8.73,1.65 10.54,2.64l1.97 -5.85c-2.47,-1.4 -6.58,-2.72 -12.26,-2.72 -10.79,0 -17.95,6.43 -17.95,15.07 0,7.82 5.6,12.51 14.66,15.72 7.48,2.88 10.45,5.84 10.45,11.03 0,5.6 -4.28,9.46 -11.61,9.46 -4.94,0 -9.63,-1.64 -12.84,-3.62l-1.81 6.01zm85.6 -26.42l-18.27 0 0 5.76 11.28 0 0 16.55c-1.65,0.82 -4.86,1.48 -9.55,1.48 -12.92,0 -21.4,-8.32 -21.4,-22.39 0,-13.91 8.81,-22.31 22.31,-22.31 5.59,0 9.3,1.07 12.26,2.39l1.73 -5.84c-2.39,-1.16 -7.41,-2.56 -13.83,-2.56 -18.6,0 -29.96,12.1 -30.04,28.65 0,8.64 2.96,16.05 7.73,20.66 5.44,5.18 12.35,7.32 20.75,7.32 7.49,0 13.82,-1.89 17.03,-3.04l0 -26.67zm33.42 -27.25c-14.81,0 -25.76,11.53 -25.76,29.14 0,16.79 10.29,28.15 24.94,28.15 14.16,0 25.76,-10.12 25.76,-29.22 0,-16.46 -9.79,-28.07 -24.94,-28.07zm-0.33 5.85c11.94,0 17.7,11.52 17.7,22.55 0,12.6 -6.42,23.05 -17.78,23.05 -11.28,0 -17.7,-10.62 -17.7,-22.47 0,-12.18 5.93,-23.13 17.78,-23.13z"/>
  <polygon class="fil0" points="-1505.54,-1391.46 -1471.91,-1391.46 -1471.91,-1374.65 -1455.11,-1374.65 -1404.67,-1425.08 -1421.48,-1391.46 -1404.67,-1374.65 -1387.85,-1425.08 -1354.23,-1408.28 -1337.42,-1425.08 -1303.8,-1408.28 -1286.98,-1425.08 -1270.17,-1408.28 -1253.37,-1425.08 -1236.55,-1408.28 -1186.11,-1391.46 -1152.49,-1341.02 -1135.68,-1341.02 -1118.86,-1357.84 -1118.86,-1324.22 -1068.43,-1324.22 -1085.24,-1307.4 -1102.06,-1273.78 -1085.24,-1273.78 -1085.24,-1240.15 -1068.43,-1256.96 -1051.62,-1223.34 -1034.81,-1240.15 -1017.99,-1223.34 -1017.99,-1206.53 -984.37,-1189.72 -1001.19,-1156.1 -967.56,-1139.28 -967.56,-1105.66 -950.75,-1122.47 -950.75,-1105.66 -900.31,-1072.03 -866.68,-1088.85 -833.07,-1055.22 -816.25,-1072.03 -816.25,-1088.85 -799.44,-1072.03 -782.63,-1088.85 -782.63,-1105.66 -765.82,-1088.85 -765.82,-1105.66 -732.2,-1072.03 -698.57,-1072.03 -698.57,-1038.41 -664.94,-1038.41 -631.33,-1004.79 -631.33,-971.16 -614.51,-954.35 -631.33,-870.29 -597.7,-937.54 -597.7,-903.92 -580.89,-870.29 -564.07,-836.67 -513.64,-836.67 -530.46,-819.86 -496.83,-819.86 -480.02,-803.05 -412.77,-786.23 -412.77,-752.61 -395.96,-735.8 -395.96,-702.18 -328.71,-651.74 -345.53,-618.12 -311.9,-584.49 -328.71,-567.68 -261.46,-534.05 -261.46,-500.44 -227.84,-466.81 -244.65,-433.18 -211.03,-416.38 -194.22,-416.38 -194.22,-382.75 -143.79,-349.13 -126.97,-349.13 -126.97,-315.5 -93.34,-298.69 -93.34,-265.07 -42.91,-265.07 -42.91,-214.63 -59.72,-197.82 -59.72,-214.63 -110.15,-231.45 -110.15,-214.63 -143.79,-231.45 -194.22,-214.63 -227.84,-231.45 -244.65,-231.45 -295.09,-248.25 -311.9,-248.25 -345.53,-231.45 -412.77,-197.82 -446.4,-164.2 -513.64,-147.38 -530.46,-113.76 -564.07,-80.14 -564.07,-29.71 -614.51,37.54 -631.33,71.16 -664.94,87.98 -698.57,138.42 -799.44,121.6 -866.68,205.66 -1001.19,205.66 -1017.99,222.48 -1017.99,239.29 -1051.62,272.91 -1034.81,289.72 -1034.81,306.53 -1051.62,289.72 -1051.62,306.53 -1085.24,340.16 -1102.06,390.59 -1102.06,373.78 -1169.3,356.97 -1202.93,340.16 -1202.93,356.97 -1236.55,373.78 -1286.98,356.97 -1337.42,272.91 -1371.04,272.91 -1421.48,222.48 -1488.73,222.48 -1505.54,205.66 -1539.17,205.66 -1572.78,222.48 -1572.78,239.29 -1606.41,222.48 -1656.85,239.29 -1673.65,239.29 -1707.28,205.66 -1757.72,172.04 -1656.85,-853.48 "/>
  <path class="fil1" d="M-2080.28 -228.05l7.16 0 0 -24.03 6.75 0c6.5,0.24 9.46,3.13 11.11,10.78 1.56,6.92 2.8,11.69 3.7,13.25l7.41 0c-1.15,-2.14 -2.47,-7.49 -4.28,-15.22 -1.31,-5.77 -3.87,-9.72 -8.15,-11.2l0 -0.25c5.85,-1.97 10.46,-6.83 10.46,-14.15 0,-4.28 -1.57,-8.07 -4.37,-10.54 -3.45,-3.13 -8.39,-4.52 -16.05,-4.52 -4.93,0 -10.12,0.41 -13.74,1.15l0 54.73zm7.16 -49.71c1.15,-0.33 3.62,-0.66 7.08,-0.66 7.57,0.08 12.76,3.21 12.76,10.37 0,6.34 -4.86,10.54 -12.52,10.54l-7.32 0 0 -20.25zm37.12 -5.76l0 55.47 7.16 0 0 -55.47 -7.16 0zm42.14 -0.91c-14.81,0 -25.76,11.52 -25.76,29.14 0,16.79 10.29,28.15 24.94,28.15 14.16,0 25.76,-10.13 25.76,-29.22 0,-16.46 -9.79,-28.07 -24.94,-28.07zm-0.32 5.84c11.93,0 17.69,11.53 17.69,22.56 0,12.59 -6.42,23.04 -17.78,23.04 -11.27,0 -17.69,-10.61 -17.69,-22.47 0,-12.18 5.92,-23.13 17.78,-23.13zm69.14 50.54l19.83 -55.47 -7.65 0 -9.38 27.41c-2.47,7.24 -4.78,14.24 -6.34,20.66l-0.17 0c-1.48,-6.51 -3.54,-13.26 -5.92,-20.75l-8.65 -27.32 -7.73 0 18.11 55.47 7.9 0zm54.57 -31.93l-21.57 0 0 -17.54 22.8 0 0 -6 -29.96 0 0 55.47 31.2 0 0 -6.01 -24.04 0 0 -20 21.57 0 0 -5.92zm11.77 31.93l7.16 0 0 -24.03 6.75 0c6.5,0.24 9.47,3.13 11.11,10.78 1.57,6.92 2.8,11.69 3.71,13.25l7.4 0c-1.15,-2.14 -2.47,-7.49 -4.28,-15.22 -1.31,-5.77 -3.86,-9.72 -8.15,-11.2l0 -0.25c5.85,-1.97 10.46,-6.83 10.46,-14.15 0,-4.28 -1.57,-8.07 -4.36,-10.54 -3.46,-3.13 -8.4,-4.52 -16.05,-4.52 -4.94,0 -10.13,0.41 -13.75,1.15l0 54.73zm7.16 -49.71c1.15,-0.33 3.62,-0.66 7.08,-0.66 7.57,0.08 12.76,3.21 12.76,10.37 0,6.34 -4.86,10.54 -12.51,10.54l-7.33 0 0 -20.25zm37.12 49.55c3.62,0.41 7.9,0.66 13.01,0.66 10.78,0 19.34,-2.8 24.53,-7.99 5.18,-5.1 7.98,-12.51 7.98,-21.56 0,-8.97 -2.88,-15.39 -7.82,-19.92 -4.86,-4.53 -12.18,-6.91 -22.47,-6.91 -5.68,0 -10.86,0.49 -15.23,1.15l0 54.57zm7.16 -49.31c1.9,-0.41 4.7,-0.74 8.4,-0.74 15.14,0 22.55,8.32 22.47,21.41 0,14.98 -8.31,23.54 -23.62,23.54 -2.8,0 -5.44,-0.09 -7.25,-0.42l0 -43.79zm76.39 17.54l-21.57 0 0 -17.54 22.8 0 0 -6 -29.96 0 0 55.47 31.2 0 0 -6.01 -24.04 0 0 -20 21.57 0 0 -5.92z"/>
  <polygon class="fil0" points="3928.65,-902.51 3928.65,-902.51 3911.82,-818.45 3911.82,-768.01 3895.03,-751.2 3911.82,-734.39 3945.44,-717.58 3945.44,-616.71 3979.07,-616.71 3995.9,-583.09 4029.53,-566.28 4012.7,-549.46 4063.11,-532.65 4079.95,-532.65 4096.74,-515.84 4130.37,-515.84 4130.37,-532.65 4180.83,-532.65 4197.62,-499.02 4214.45,-499.02 4248.08,-482.22 4248.08,-465.4 4264.87,-414.97 4298.5,-398.15 4315.33,-364.53 4315.33,-381.34 4382.54,-330.9 4416.17,-330.9 4416.17,-347.72 4466.63,-347.72 4466.63,-364.53 4517.05,-364.53 4550.67,-381.34 4567.51,-398.15 4567.51,-431.78 4651.55,-482.22 4685.18,-381.34 4668.34,-297.28 4634.72,-129.16 4685.18,-78.73 4701.97,-61.92 4769.22,-61.92 4802.85,-45.11 4802.85,5.33 4786.06,72.58 4802.85,106.2 4819.68,55.77 4836.47,38.95 4870.1,-11.48 4903.73,-28.29 4954.15,-28.29 4970.98,-45.11 5021.4,-95.54 5055.02,-95.54 5055.02,-129.16 5122.28,-129.16 5122.28,-112.35 5139.11,-95.54 5206.36,-112.35 5206.36,-129.16 5290.41,-129.16 5307.2,-145.98 5307.2,-129.16 5324.03,-162.79 5357.66,-162.79 5357.66,-179.6 5391.29,-196.41 5424.91,-196.41 5458.54,-179.6 5475.33,-145.98 5525.75,-78.73 5525.75,55.77 5542.58,106.2 5525.75,156.64 5424.91,223.88 5475.33,223.88 5525.75,190.26 5559.37,190.26 5576.21,223.88 5609.83,240.69 5609.83,324.75 5626.5,374.82 5626.5,492.81 5593,476.06 5576.21,492.87 5559.37,509.69 5508.96,526.5 5492.12,560.12 5458.54,593.74 5307.2,593.74 5290.41,560.12 5256.78,560.12 5223.15,610.56 5223.15,627.37 5206.36,660.99 5206.36,677.81 5189.53,677.81 5206.36,677.81 5189.53,694.62 5189.53,711.43 5139.11,745.05 5139.11,778.68 5122.28,795.49 5071.86,795.49 5038.23,829.11 5021.4,812.3 4987.77,829.11 4903.73,829.11 4836.47,795.49 4769.22,745.05 4769.22,711.43 4752.43,694.62 4752.43,660.99 4685.18,644.18 4668.34,627.37 4634.72,627.37 4651.55,610.56 4601.13,610.56 4584.3,576.93 4567.51,543.3 4567.51,509.69 4533.88,576.93 4550.67,492.87 4533.88,476.06 4533.88,442.43 4500.25,408.82 4466.63,408.82 4466.63,375.19 4433,375.19 4399.38,341.57 4399.38,358.38 4382.54,341.57 4382.54,358.38 4365.75,375.19 4348.92,358.38 4348.92,375.19 4332.12,392 4298.5,358.38 4264.87,375.19 4214.45,341.57 4214.45,324.75 4197.62,341.57 4197.62,307.95 4163.99,291.13 4180.83,257.51 4147.2,240.69 4147.2,223.88 4130.37,207.08 4113.57,223.88 4096.74,190.26 4079.95,207.08 4079.95,173.45 4063.11,173.45 4079.95,139.82 4096.74,123.01 4046.32,123.01 4046.32,89.39 4029.53,106.2 4012.7,106.2 3979.07,55.77 3928.65,38.95 3911.82,22.14 3895.03,38.95 3878.19,22.14 3861.4,38.95 3827.77,22.14 3810.94,38.95 3777.36,22.14 3760.52,72.58 3743.73,55.77 3760.52,22.14 3710.1,72.58 3693.28,72.58 3693.28,55.77 3659.66,55.77 "/>
  <path class="fil1" d="M3435.07 -850.71c-2.88,1.4 -7.33,2.3 -11.69,2.3 -13.5,0 -21.32,-8.72 -21.32,-22.3 0,-14.57 8.64,-22.88 21.65,-22.88 4.61,0 8.48,0.98 11.19,2.3l1.73 -5.84c-1.89,-0.99 -6.25,-2.47 -13.17,-2.47 -17.2,0 -28.97,11.77 -28.97,29.13 0,18.19 11.77,28.07 27.41,28.07 6.75,0 12.02,-1.32 14.65,-2.63l-1.48 -5.68zm31.19 -48.89c-14.81,0 -25.76,11.52 -25.76,29.13 0,16.8 10.29,28.15 24.94,28.15 14.16,0 25.76,-10.12 25.76,-29.22 0,-16.46 -9.79,-28.06 -24.94,-28.06zm-0.33 5.84c11.94,0 17.7,11.52 17.7,22.55 0,12.6 -6.42,23.05 -17.78,23.05 -11.28,0 -17.7,-10.62 -17.7,-22.47 0,-12.18 5.93,-23.13 17.78,-23.13zm71.04 50.54l-17.29 -28.48 16.88 -27 -8.24 0 -7.57 13.01c-2.06,3.54 -3.46,6.09 -5.02,9.38l-0.25 0c-1.48,-2.96 -3.04,-5.76 -5.1,-9.38l-7.33 -13.01 -8.31 0 16.3 27.41 -16.96 28.07 8.23 0 6.67 -12.18c2.88,-4.86 4.45,-7.82 6.01,-11.03l0.16 0c1.73,3.21 3.54,6.25 6.43,10.94l7.07 12.27 8.32 0zm8.31 -55.48l0 55.48 7.16 0 0 -55.48 -7.16 0zm67.82 55.48l7 0 -3.46 -55.48 -9.13 0 -9.88 26.83c-2.47,7 -4.45,13.09 -5.85,18.69l-0.24 0c-1.4,-5.76 -3.29,-11.85 -5.6,-18.69l-9.47 -26.83 -9.13 0 -3.87 55.48 6.83 0 1.48 -23.79c0.5,-8.31 0.91,-17.61 1.07,-24.53l0.17 0c1.56,6.59 3.78,13.75 6.42,21.57l8.97 26.42 5.43 0 9.8 -26.92c2.8,-7.65 5.1,-14.57 6.99,-21.07l0.25 0c-0.08,6.92 0.41,16.22 0.82,23.96l1.4 24.36z"/>
  <polygon class="fil0" points="1195.42,80.11 1180.11,110.74 1118.86,110.74 1088.23,156.68 1118.86,233.25 1118.86,263.87 1134.17,340.45 1149.48,493.59 1195.42,524.21 1256.68,539.52 1287.31,508.9 1363.88,462.95 1394.5,462.95 1486.38,493.59 1562.95,478.27 1624.21,508.9 1654.84,539.52 1654.84,554.84 1624.21,600.78 1593.58,631.4 1532.33,646.72 1486.38,646.72 1471.07,707.98 1440.45,738.6 1425.13,769.23 1379.19,784.54 1348.57,815.17 1348.57,830.48 1394.5,907.05 1394.5,922.36 1425.13,922.36 1363.88,983.62 1317.94,998.93 1272,1014.25 1256.68,1060.19 1241.36,1090.81 1241.36,1106.13 1226.05,1152.07 1241.36,1167.39 1226.05,1182.7 1241.36,1198.01 1210.74,1213.33 1164.8,1274.58 1241.36,1366.46 1272,1412.41 1256.68,1412.41 1287.31,1427.72 1287.31,1488.97 1302.62,1534.91 1302.62,1550.23 1317.94,1565.54 1302.62,1580.86 1333.25,1626.79 1317.94,1626.79 1333.25,1642.11 1333.25,1672.74 1348.57,1688.06 1394.5,1703.37 1394.5,1779.94 1409.82,1779.94 1409.82,1795.25 1394.5,1810.56 1317.94,1795.25 1256.68,1764.62 1057.6,1749.3 965.72,1779.94 904.46,1688.06 858.52,1672.74 720.7,1718.68 674.76,1718.68 690.07,1657.42 705.39,1642.11 720.7,1611.49 797.27,1565.54 843.21,1550.23 827.89,1519.6 781.95,1534.91 720.7,1534.91 720.7,1504.29 736.01,1473.66 736.01,1397.09 720.7,1397.09 674.76,1335.84 644.13,1335.84 628.82,1305.21 598.19,1289.89 582.88,1243.96 536.94,1198.01 567.56,1198.01 567.56,1106.13 582.88,1075.51 628.82,1029.56 644.13,998.93 674.76,983.62 674.76,953 628.82,953 613.51,937.68 628.82,907.05 613.51,907.05 613.51,876.43 582.88,830.48 552.24,830.48 490.99,799.86 429.74,784.54 399.11,769.23 337.86,769.23 276.6,738.6 276.6,723.29 261.29,723.29 245.97,692.66 261.29,677.35 276.6,692.66 291.91,677.35 337.86,692.66 368.48,692.66 383.8,677.35 414.42,677.35 490.99,662.03 506.31,646.72 536.94,646.72 536.94,631.4 567.56,631.4 567.56,616.1 582.88,631.4 628.82,616.1 674.76,585.47 644.13,539.52 674.76,524.21 644.13,447.64 628.82,432.33 644.13,417.02 674.76,401.7 720.7,386.38 797.27,401.7 812.59,371.07 751.33,325.13 781.95,309.82 827.89,325.13 843.21,325.13 873.83,309.82 919.77,263.87 935.09,263.87 981.03,217.94 965.72,126.06 950.4,110.74 950.4,34.17 1011.66,64.8 1026.97,80.11 1042.29,95.43 "/>
  <path class="fil1" d="M-3067.76 1931.05c-2.88,1.4 -7.33,2.3 -11.69,2.3 -13.5,0 -21.32,-8.72 -21.32,-22.3 0,-14.57 8.65,-22.88 21.65,-22.88 4.61,0 8.48,0.98 11.2,2.3l1.72 -5.84c-1.89,-0.99 -6.25,-2.47 -13.16,-2.47 -17.21,0 -28.98,11.77 -28.98,29.14 0,18.19 11.77,28.06 27.41,28.06 6.75,0 12.02,-1.31 14.65,-2.63l-1.48 -5.68zm31.19 -48.89c-14.81,0 -25.76,11.52 -25.76,29.14 0,16.79 10.29,28.15 24.94,28.15 14.16,0 25.76,-10.13 25.76,-29.22 0,-16.47 -9.79,-28.07 -24.94,-28.07zm-0.33 5.84c11.94,0 17.7,11.52 17.7,22.55 0,12.6 -6.42,23.05 -17.78,23.05 -11.27,0 -17.69,-10.62 -17.69,-22.47 0,-12.18 5.92,-23.13 17.77,-23.13zm31.78 47.82c2.96,1.98 8.8,3.54 14.15,3.54 13.09,0 19.43,-7.4 19.43,-15.96 0,-8.15 -4.78,-12.68 -14.16,-16.3 -7.65,-2.97 -11.03,-5.52 -11.03,-10.7 0,-3.79 2.88,-8.32 10.45,-8.32 5.03,0 8.73,1.65 10.54,2.64l1.98 -5.85c-2.47,-1.4 -6.59,-2.71 -12.27,-2.71 -10.78,0 -17.94,6.42 -17.94,15.06 0,7.82 5.6,12.51 14.65,15.72 7.49,2.88 10.45,5.85 10.45,11.03 0,5.6 -4.28,9.47 -11.6,9.47 -4.94,0 -9.63,-1.65 -12.84,-3.63l-1.81 6.01zm53.91 2.72l7.24 0 0 -49.39 16.96 0 0 -6.09 -41.07 0 0 6.09 16.87 0 0 49.39zm52.84 -17.45l5.93 17.45 7.65 0 -18.93 -55.48 -8.64 0 -18.85 55.48 7.41 0 5.76 -17.45 19.67 0zm-18.19 -5.6l5.43 -16.05c1.07,-3.37 1.98,-6.75 2.8,-10.04l0.17 0c0.82,3.21 1.64,6.5 2.88,10.12l5.43 15.97 -16.71 0zm57.37 23.05l7.16 0 0 -24.03 6.75 0c6.5,0.24 9.47,3.12 11.11,10.78 1.57,6.91 2.8,11.69 3.71,13.25l7.41 0c-1.16,-2.14 -2.47,-7.49 -4.28,-15.23 -1.32,-5.76 -3.87,-9.71 -8.15,-11.19l0 -0.25c5.84,-1.97 10.45,-6.83 10.45,-14.16 0,-4.28 -1.56,-8.06 -4.36,-10.53 -3.46,-3.13 -8.4,-4.53 -16.05,-4.53 -4.94,0 -10.13,0.41 -13.75,1.15l0 54.74zm7.16 -49.72c1.16,-0.32 3.62,-0.65 7.08,-0.65 7.57,0.08 12.76,3.21 12.76,10.37 0,6.34 -4.86,10.53 -12.51,10.53l-7.33 0 0 -20.25zm37.12 -5.76l0 55.48 7.17 0 0 -55.48 -7.17 0zm56.96 47.99c-2.88,1.4 -7.32,2.3 -11.68,2.3 -13.5,0 -21.32,-8.72 -21.32,-22.3 0,-14.57 8.64,-22.88 21.64,-22.88 4.61,0 8.48,0.98 11.2,2.3l1.73 -5.84c-1.9,-0.99 -6.26,-2.47 -13.17,-2.47 -17.21,0 -28.98,11.77 -28.98,29.14 0,18.19 11.77,28.06 27.41,28.06 6.75,0 12.02,-1.31 14.66,-2.63l-1.49 -5.68zm39.43 -9.96l5.93 17.45 7.65 0 -18.93 -55.48 -8.64 0 -18.85 55.48 7.4 0 5.77 -17.45 19.67 0zm-18.19 -5.6l5.43 -16.05c1.07,-3.37 1.98,-6.75 2.8,-10.04l0.16 0c0.83,3.21 1.65,6.5 2.88,10.12l5.44 15.97 -16.71 0z"/>
  <polygon class="fil0" points="4636.75,1375.79 4536.16,1375.79 4435.58,1436.15 4435.58,1476.38 4375.22,1536.74 4375.22,1597.09 4254.51,1758.03 4254.51,1818.39 4274.63,1838.5 4254.51,1838.5 4254.51,1858.62 4214.28,1878.74 4214.28,1898.85 4194.16,1878.74 4194.16,1898.85 4153.93,1898.85 4153.93,1918.97 4093.57,1939.09 4093.57,1959.21 4073.45,1959.21 4093.57,1979.32 4073.45,1959.21 4073.45,1999.44 4053.34,1999.44 4013.1,2039.68 4033.22,2039.68 4033.22,2100.03 4013.1,2100.03 4033.22,2140.27 4013.1,2120.15 3992.99,2160.38 4013.1,2160.38 3992.99,2160.38 4013.1,2180.5 3972.87,2180.5 3972.87,2200.62 3872.28,2200.62 3872.28,2180.5 3731.46,2180.5 3691.22,2200.62 3691.22,2220.74 3650.98,2220.74 3630.87,2260.97 3630.87,2240.86 3610.75,2260.97 3510.17,2260.97 3510.17,2281.09 3429.69,2301.21 3409.57,2281.09 3409.57,2260.97 3329.1,2260.97 3329.1,2301.21 3288.86,2301.21 3228.51,2361.57 3208.39,2381.68 3148.04,2381.68 3107.81,2401.8 3067.57,2462.15 3047.45,2482.27 3027.34,2542.62 3007.22,2502.39 3027.34,2421.92 3027.34,2361.57 2987.1,2341.45 2906.63,2341.45 2886.51,2321.33 2826.15,2260.97 2866.39,2059.8 2886.51,1959.21 2846.28,1838.5 2826.15,1717.8 2765.8,1657.44 2705.45,1536.74 2725.57,1496.5 2886.51,1456.27 2966.98,1436.15 3107.81,1456.27 3127.92,1456.27 3148.04,1556.85 3188.27,1536.74 3208.39,1476.38 3248.63,1476.38 3268.75,1436.15 3268.75,1456.27 3288.86,1436.15 3308.98,1456.27 3369.34,1516.62 3389.46,1556.85 3409.57,1536.74 3550.39,1556.85 3570.51,1536.74 3610.75,1576.98 3630.87,1556.85 3630.87,1637.32 3671.1,1637.32 3711.34,1617.2 3711.34,1597.09 3731.46,1576.98 3731.46,1597.09 3751.58,1576.98 3771.69,1556.85 3872.28,1556.85 3872.28,1516.62 3892.4,1516.62 3872.28,1496.5 3892.4,1476.38 3872.28,1476.38 3872.28,1436.15 3892.4,1456.27 3932.64,1476.38 3932.64,1395.91 3992.99,1395.91 3952.75,1375.79 3992.99,1355.67 3992.99,1375.79 4013.1,1355.67 3992.99,1335.56 4033.22,1335.56 4033.22,1315.44 4073.45,1315.44 4133.81,1335.56 4133.81,1375.79 4174.05,1375.79 4153.93,1355.67 4174.05,1355.67 4174.05,1315.44 4234.4,1335.56 4234.4,1315.44 4254.51,1315.44 4274.63,1335.56 4314.87,1355.67 4294.75,1355.67 4314.87,1355.67 4314.87,1375.79 4294.75,1395.91 4314.87,1375.79 4314.87,1416.03 4314.87,1395.91 4314.87,1416.03 4334.99,1416.03 4355.11,1375.79 4375.22,1436.15 4395.34,1416.03 4375.22,1416.03 4395.34,1395.91 4334.99,1375.79 4355.11,1355.67 4375.22,1355.67 4355.11,1335.56 4415.46,1355.67 4435.58,1335.56 4455.69,1335.56 4455.69,1315.44 4495.93,1315.44 4516.05,1355.67 4536.16,1335.56 4576.41,1335.56 4596.52,1375.79 "/>
  <path class="fil1" d="M4558.71 1856.15l7.16 0 0 -22.23c1.64,0.41 3.62,0.5 5.76,0.5 6.99,0 13.17,-2.06 16.96,-6.09 2.79,-2.89 4.27,-6.84 4.27,-11.86 0,-4.94 -1.81,-8.97 -4.85,-11.6 -3.29,-2.97 -8.48,-4.61 -15.56,-4.61 -5.76,0 -10.29,0.49 -13.74,1.07l0 54.82zm7.16 -49.64c1.23,-0.33 3.62,-0.57 6.75,-0.57 7.9,0 13.08,3.54 13.08,10.86 0,7.66 -5.26,11.85 -13.91,11.85 -2.38,0 -4.36,-0.16 -5.92,-0.57l0 -21.57zm65.35 17.7l-21.56 0 0 -17.53 22.8 0 0 -6.01 -29.97 0 0 55.48 31.2 0 0 -6.01 -24.03 0 0 -20 21.56 0 0 -5.93zm11.77 31.77c3.62,0.41 7.9,0.66 13.01,0.66 10.78,0 19.34,-2.8 24.52,-7.98 5.19,-5.11 7.99,-12.52 7.99,-21.57 0,-8.97 -2.88,-15.39 -7.82,-19.92 -4.86,-4.53 -12.18,-6.91 -22.47,-6.91 -5.68,0 -10.87,0.49 -15.23,1.15l0 54.57zm7.16 -49.3c1.9,-0.41 4.69,-0.74 8.4,-0.74 15.14,0 22.55,8.31 22.47,21.4 0,14.98 -8.31,23.54 -23.62,23.54 -2.8,0 -5.44,-0.08 -7.25,-0.41l0 -43.79zm47.66 49.47l7.16 0 0 -24.04 6.75 0c6.5,0.25 9.47,3.13 11.11,10.78 1.57,6.92 2.8,11.69 3.71,13.26l7.4 0c-1.15,-2.14 -2.46,-7.49 -4.28,-15.23 -1.31,-5.76 -3.86,-9.71 -8.14,-11.2l0 -0.24c5.84,-1.98 10.45,-6.83 10.45,-14.16 0,-4.28 -1.56,-8.07 -4.36,-10.54 -3.46,-3.12 -8.4,-4.52 -16.05,-4.52 -4.94,0 -10.13,0.41 -13.75,1.15l0 54.74zm7.16 -49.72c1.15,-0.33 3.62,-0.66 7.08,-0.66 7.57,0.08 12.76,3.21 12.76,10.37 0,6.34 -4.86,10.54 -12.51,10.54l-7.33 0 0 -20.25zm59.59 -6.67c-14.81,0 -25.76,11.53 -25.76,29.14 0,16.79 10.29,28.15 24.94,28.15 14.16,0 25.76,-10.12 25.76,-29.22 0,-16.46 -9.79,-28.07 -24.94,-28.07zm-0.32 5.85c11.93,0 17.69,11.52 17.69,22.55 0,12.59 -6.42,23.05 -17.78,23.05 -11.27,0 -17.69,-10.62 -17.69,-22.47 0,-12.18 5.92,-23.13 17.78,-23.13zm94.24 21.4l-18.27 0 0 5.76 11.27 0 0 16.54c-1.64,0.83 -4.85,1.49 -9.54,1.49 -12.93,0 -21.4,-8.32 -21.4,-22.39 0,-13.91 8.8,-22.31 22.3,-22.31 5.6,0 9.3,1.07 12.27,2.39l1.72 -5.85c-2.38,-1.15 -7.4,-2.55 -13.82,-2.55 -18.61,0 -29.97,12.1 -30.05,28.65 0,8.64 2.97,16.05 7.74,20.66 5.43,5.18 12.35,7.32 20.74,7.32 7.49,0 13.83,-1.89 17.04,-3.04l0 -26.67zm33.42 -27.25c-14.82,0 -25.76,11.53 -25.76,29.14 0,16.79 10.29,28.15 24.94,28.15 14.15,0 25.76,-10.12 25.76,-29.22 0,-16.46 -9.8,-28.07 -24.94,-28.07zm-0.33 5.85c11.94,0 17.7,11.52 17.7,22.55 0,12.59 -6.42,23.05 -17.78,23.05 -11.28,0 -17.7,-10.62 -17.7,-22.47 0,-12.18 5.93,-23.13 17.78,-23.13zm82.72 50.54l7 0 -3.46 -55.48 -9.14 0 -9.87 26.83c-2.47,7 -4.45,13.09 -5.85,18.69l-0.24 0c-1.4,-5.77 -3.3,-11.86 -5.6,-18.69l-9.47 -26.83 -9.13 0 -3.87 55.48 6.83 0 1.48 -23.79c0.49,-8.32 0.91,-17.62 1.07,-24.53l0.17 0c1.56,6.58 3.78,13.75 6.42,21.57l8.97 26.42 5.43 0 9.8 -26.92c2.79,-7.65 5.1,-14.57 6.99,-21.07l0.25 0c-0.08,6.91 0.41,16.21 0.82,23.95l1.4 24.37zm46.75 -31.94l-21.56 0 0 -17.53 22.8 0 0 -6.01 -29.96 0 0 55.48 31.19 0 0 -6.01 -24.03 0 0 -20 21.56 0 0 -5.93zm8.97 29.22c2.97,1.98 8.81,3.54 14.16,3.54 13.09,0 19.43,-7.41 19.43,-15.97 0,-8.15 -4.78,-12.67 -14.16,-16.3 -7.65,-2.96 -11.03,-5.51 -11.03,-10.7 0,-3.78 2.88,-8.31 10.45,-8.31 5.02,0 8.73,1.65 10.54,2.63l1.98 -5.84c-2.47,-1.4 -6.59,-2.72 -12.27,-2.72 -10.78,0 -17.94,6.42 -17.94,15.07 0,7.82 5.59,12.51 14.65,15.72 7.49,2.88 10.45,5.84 10.45,11.03 0,5.59 -4.28,9.46 -11.6,9.46 -4.94,0 -9.63,-1.64 -12.84,-3.62l-1.82 6.01z"/>
 </g>
</svg>
