<?xml version="1.0" encoding="UTF-8"?>
<!DOCTYPE svg PUBLIC "-//W3C//DTD SVG 1.1//EN" "http://www.w3.org/Graphics/SVG/1.1/DTD/svg11.dtd">
<!-- Creator: CorelDRAW 2020 (64 Bit) -->
<svg xmlns="http://www.w3.org/2000/svg" xml:space="preserve" width="2067px" height="1854px" version="1.1" style="shape-rendering:geometricPrecision; text-rendering:geometricPrecision; image-rendering:optimizeQuality; fill-rule:evenodd; clip-rule:evenodd"
viewBox="0 0 2067 1854.39"
 xmlns:xlink="http://www.w3.org/1999/xlink"
 xmlns:xodm="http://www.corel.com/coreldraw/odm/2003">
 <defs>
  <style type="text/css">
   <![CDATA[
    .fil2 {fill:#6BBE50}
    .fil1 {fill:#222124}
    .fil0 {fill:#a70800}
   ]]>
  </style>
 </defs>
 <g id="Camada_x0020_1">
  <metadata id="CorelCorpID_0Corel-Layer"/>
  <polygon class="fil0" points="-3254.46,-1009.64 -3194.25,-989.57 -3154.1,-989.57 -3113.97,-969.51 -3073.83,-949.44 -3033.69,-909.29 -3033.69,-869.15 -2993.55,-849.09 -2993.55,-768.8 -2893.2,-648.38 -2873.13,-568.11 -2873.13,-467.76 -2853.06,-407.54 -2873.13,-407.54 -2893.2,-367.41 -2913.27,-387.48 -2933.33,-367.41 -2933.33,-387.48 -2993.55,-387.48 -2993.55,-367.41 -2953.41,-347.34 -2973.48,-307.2 -2933.33,-287.13 -2933.33,-267.06 -2953.41,-246.99 -2953.41,-226.92 -2893.2,-226.92 -2913.27,-206.85 -2913.27,-143.3 -2893.2,-123.23 -2913.27,-83.08 -2873.13,-83.08 -2893.2,-63.01 -2913.27,-42.94 -2873.13,-22.88 -2893.2,-2.81 -2873.13,-2.81 -2873.13,17.26 -2893.2,17.26 -2893.2,37.33 -2973.48,37.33 -2993.55,77.48 -3033.69,117.61 -3033.69,157.75 -3073.83,157.75 -3113.97,177.82 -3113.97,338.38 -3134.04,358.44 -3174.17,338.38 -3194.25,358.44 -3214.32,338.38 -3214.32,378.52 -3234.39,438.74 -3314.66,478.87 -3314.66,519.01 -3334.74,559.15 -3314.66,619.36 -3394.95,579.22 -3435.08,639.43 -3455.16,619.36 -3475.23,579.22 -3555.5,579.22 -3615.72,639.43 -3696,639.43 -3716.07,659.5 -3776.27,699.63 -3836.49,679.57 -3876.62,699.63 -3896.69,679.57 -3876.62,659.5 -3896.69,639.43 -3896.69,599.29 -3916.76,579.22 -3916.76,539.08 -3896.69,519.01 -3997.04,458.8 -4017.11,418.66 -3976.98,318.32 -3936.83,278.17 -3876.62,137.68 -3916.76,97.54 -3936.83,37.33 -3896.69,-2.81 -3956.91,-2.81 -4037.18,-63.01 -3997.04,-123.23 -3956.91,-143.3 -3936.83,-186.78 -3876.62,-267.06 -3876.62,-327.27 -3836.49,-367.41 -3816.42,-407.54 -3736.14,-427.62 -3696,-467.76 -3615.72,-507.9 -3575.58,-527.96 -3555.5,-527.96 -3495.3,-507.9 -3475.23,-507.9 -3435.08,-487.83 -3374.88,-507.9 -3334.74,-487.83 -3334.74,-507.9 -3274.52,-487.83 -3274.52,-467.76 -3254.46,-487.83 -3254.46,-548.04 -3314.66,-548.04 -3314.66,-588.18 -3354.81,-608.25 -3354.81,-648.38 -3374.88,-648.38 -3435.08,-688.53 -3435.08,-728.67 -3455.16,-728.67 -3495.3,-748.73 -3475.23,-788.87 -3515.36,-829.02 -3515.36,-869.15 -3595.65,-909.29 -3575.58,-929.36 -3615.72,-969.51 -3595.65,-1009.64 -3515.36,-969.51 -3415.02,-969.51 -3374.88,-989.57 -3354.81,-969.51 -3314.66,-1009.64 "/>
  <path class="fil1" d="M-3065.47 384.56c2.97,1.98 8.81,3.54 14.16,3.54 13.09,0 19.42,-7.41 19.42,-15.97 0,-8.15 -4.77,-12.67 -14.15,-16.29 -7.66,-2.97 -11.03,-5.52 -11.03,-10.71 0,-3.78 2.88,-8.31 10.45,-8.31 5.02,0 8.73,1.65 10.54,2.64l1.97 -5.85c-2.47,-1.4 -6.58,-2.72 -12.26,-2.72 -10.79,0 -17.95,6.43 -17.95,15.07 0,7.82 5.6,12.51 14.66,15.72 7.48,2.88 10.45,5.84 10.45,11.03 0,5.6 -4.28,9.46 -11.61,9.46 -4.94,0 -9.63,-1.64 -12.84,-3.62l-1.81 6.01zm85.6 -26.42l-18.27 0 0 5.76 11.28 0 0 16.55c-1.65,0.82 -4.86,1.48 -9.55,1.48 -12.92,0 -21.4,-8.32 -21.4,-22.39 0,-13.91 8.81,-22.31 22.31,-22.31 5.59,0 9.3,1.07 12.26,2.39l1.73 -5.84c-2.39,-1.16 -7.41,-2.56 -13.83,-2.56 -18.6,0 -29.96,12.1 -30.04,28.65 0,8.64 2.96,16.05 7.73,20.66 5.44,5.18 12.35,7.32 20.75,7.32 7.49,0 13.82,-1.89 17.03,-3.04l0 -26.67zm33.42 -27.25c-14.81,0 -25.76,11.53 -25.76,29.14 0,16.79 10.29,28.15 24.94,28.15 14.16,0 25.76,-10.12 25.76,-29.22 0,-16.46 -9.79,-28.07 -24.94,-28.07zm-0.33 5.85c11.94,0 17.7,11.52 17.7,22.55 0,12.6 -6.42,23.05 -17.78,23.05 -11.28,0 -17.7,-10.62 -17.7,-22.47 0,-12.18 5.93,-23.13 17.78,-23.13z"/>
  <polygon class="fil0" points="-1505.54,-1391.46 -1471.91,-1391.46 -1471.91,-1374.65 -1455.11,-1374.65 -1404.67,-1425.08 -1421.48,-1391.46 -1404.67,-1374.65 -1387.85,-1425.08 -1354.23,-1408.28 -1337.42,-1425.08 -1303.8,-1408.28 -1286.98,-1425.08 -1270.17,-1408.28 -1253.37,-1425.08 -1236.55,-1408.28 -1186.11,-1391.46 -1152.49,-1341.02 -1135.68,-1341.02 -1118.86,-1357.84 -1118.86,-1324.22 -1068.43,-1324.22 -1085.24,-1307.4 -1102.06,-1273.78 -1085.24,-1273.78 -1085.24,-1240.15 -1068.43,-1256.96 -1051.62,-1223.34 -1034.81,-1240.15 -1017.99,-1223.34 -1017.99,-1206.53 -984.37,-1189.72 -1001.19,-1156.1 -967.56,-1139.28 -967.56,-1105.66 -950.75,-1122.47 -950.75,-1105.66 -900.31,-1072.03 -866.68,-1088.85 -833.07,-1055.22 -816.25,-1072.03 -816.25,-1088.85 -799.44,-1072.03 -782.63,-1088.85 -782.63,-1105.66 -765.82,-1088.85 -765.82,-1105.66 -732.2,-1072.03 -698.57,-1072.03 -698.57,-1038.41 -664.94,-1038.41 -631.33,-1004.79 -631.33,-971.16 -614.51,-954.35 -631.33,-870.29 -597.7,-937.54 -597.7,-903.92 -580.89,-870.29 -564.07,-836.67 -513.64,-836.67 -530.46,-819.86 -496.83,-819.86 -480.02,-803.05 -412.77,-786.23 -412.77,-752.61 -395.96,-735.8 -395.96,-702.18 -328.71,-651.74 -345.53,-618.12 -311.9,-584.49 -328.71,-567.68 -261.46,-534.05 -261.46,-500.44 -227.84,-466.81 -244.65,-433.18 -211.03,-416.38 -194.22,-416.38 -194.22,-382.75 -143.79,-349.13 -126.97,-349.13 -126.97,-315.5 -93.34,-298.69 -93.34,-265.07 -42.91,-265.07 -42.91,-214.63 -59.72,-197.82 -59.72,-214.63 -110.15,-231.45 -110.15,-214.63 -143.79,-231.45 -194.22,-214.63 -227.84,-231.45 -244.65,-231.45 -295.09,-248.25 -311.9,-248.25 -345.53,-231.45 -412.77,-197.82 -446.4,-164.2 -513.64,-147.38 -530.46,-113.76 -564.07,-80.14 -564.07,-29.71 -614.51,37.54 -631.33,71.16 -664.94,87.98 -698.57,138.42 -799.44,121.6 -866.68,205.66 -1001.19,205.66 -1017.99,222.48 -1017.99,239.29 -1051.62,272.91 -1034.81,289.72 -1034.81,306.53 -1051.62,289.72 -1051.62,306.53 -1085.24,340.16 -1102.06,390.59 -1102.06,373.78 -1169.3,356.97 -1202.93,340.16 -1202.93,356.97 -1236.55,373.78 -1286.98,356.97 -1337.42,272.91 -1371.04,272.91 -1421.48,222.48 -1488.73,222.48 -1505.54,205.66 -1539.17,205.66 -1572.78,222.48 -1572.78,239.29 -1606.41,222.48 -1656.85,239.29 -1673.65,239.29 -1707.28,205.66 -1757.72,172.04 -1656.85,-853.48 "/>
  <path class="fil1" d="M-2080.28 -228.05l7.16 0 0 -24.03 6.75 0c6.5,0.24 9.46,3.13 11.11,10.78 1.56,6.92 2.8,11.69 3.7,13.25l7.41 0c-1.15,-2.14 -2.47,-7.49 -4.28,-15.22 -1.31,-5.77 -3.87,-9.72 -8.15,-11.2l0 -0.25c5.85,-1.97 10.46,-6.83 10.46,-14.15 0,-4.28 -1.57,-8.07 -4.37,-10.54 -3.45,-3.13 -8.39,-4.52 -16.05,-4.52 -4.93,0 -10.12,0.41 -13.74,1.15l0 54.73zm7.16 -49.71c1.15,-0.33 3.62,-0.66 7.08,-0.66 7.57,0.08 12.76,3.21 12.76,10.37 0,6.34 -4.86,10.54 -12.52,10.54l-7.32 0 0 -20.25zm37.12 -5.76l0 55.47 7.16 0 0 -55.47 -7.16 0zm42.14 -0.91c-14.81,0 -25.76,11.52 -25.76,29.14 0,16.79 10.29,28.15 24.94,28.15 14.16,0 25.76,-10.13 25.76,-29.22 0,-16.46 -9.79,-28.07 -24.94,-28.07zm-0.32 5.84c11.93,0 17.69,11.53 17.69,22.56 0,12.59 -6.42,23.04 -17.78,23.04 -11.27,0 -17.69,-10.61 -17.69,-22.47 0,-12.18 5.92,-23.13 17.78,-23.13zm69.14 50.54l19.83 -55.47 -7.65 0 -9.38 27.41c-2.47,7.24 -4.78,14.24 -6.34,20.66l-0.17 0c-1.48,-6.51 -3.54,-13.26 -5.92,-20.75l-8.65 -27.32 -7.73 0 18.11 55.47 7.9 0zm54.57 -31.93l-21.57 0 0 -17.54 22.8 0 0 -6 -29.96 0 0 55.47 31.2 0 0 -6.01 -24.04 0 0 -20 21.57 0 0 -5.92zm11.77 31.93l7.16 0 0 -24.03 6.75 0c6.5,0.24 9.47,3.13 11.11,10.78 1.57,6.92 2.8,11.69 3.71,13.25l7.4 0c-1.15,-2.14 -2.47,-7.49 -4.28,-15.22 -1.31,-5.77 -3.86,-9.72 -8.15,-11.2l0 -0.25c5.85,-1.97 10.46,-6.83 10.46,-14.15 0,-4.28 -1.57,-8.07 -4.36,-10.54 -3.46,-3.13 -8.4,-4.52 -16.05,-4.52 -4.94,0 -10.13,0.41 -13.75,1.15l0 54.73zm7.16 -49.71c1.15,-0.33 3.62,-0.66 7.08,-0.66 7.57,0.08 12.76,3.21 12.76,10.37 0,6.34 -4.86,10.54 -12.51,10.54l-7.33 0 0 -20.25zm37.12 49.55c3.62,0.41 7.9,0.66 13.01,0.66 10.78,0 19.34,-2.8 24.53,-7.99 5.18,-5.1 7.98,-12.51 7.98,-21.56 0,-8.97 -2.88,-15.39 -7.82,-19.92 -4.86,-4.53 -12.18,-6.91 -22.47,-6.91 -5.68,0 -10.86,0.49 -15.23,1.15l0 54.57zm7.16 -49.31c1.9,-0.41 4.7,-0.74 8.4,-0.74 15.14,0 22.55,8.32 22.47,21.41 0,14.98 -8.31,23.54 -23.62,23.54 -2.8,0 -5.44,-0.09 -7.25,-0.42l0 -43.79zm76.39 17.54l-21.57 0 0 -17.54 22.8 0 0 -6 -29.96 0 0 55.47 31.2 0 0 -6.01 -24.04 0 0 -20 21.57 0 0 -5.92z"/>
  <polygon class="fil0" points="3928.65,-902.51 3928.65,-902.51 3911.82,-818.45 3911.82,-768.01 3895.03,-751.2 3911.82,-734.39 3945.44,-717.58 3945.44,-616.71 3979.07,-616.71 3995.9,-583.09 4029.53,-566.28 4012.7,-549.46 4063.11,-532.65 4079.95,-532.65 4096.74,-515.84 4130.37,-515.84 4130.37,-532.65 4180.83,-532.65 4197.62,-499.02 4214.45,-499.02 4248.08,-482.22 4248.08,-465.4 4264.87,-414.97 4298.5,-398.15 4315.33,-364.53 4315.33,-381.34 4382.54,-330.9 4416.17,-330.9 4416.17,-347.72 4466.63,-347.72 4466.63,-364.53 4517.05,-364.53 4550.67,-381.34 4567.51,-398.15 4567.51,-431.78 4651.55,-482.22 4685.18,-381.34 4668.34,-297.28 4634.72,-129.16 4685.18,-78.73 4701.97,-61.92 4769.22,-61.92 4802.85,-45.11 4802.85,5.33 4786.06,72.58 4802.85,106.2 4819.68,55.77 4836.47,38.95 4870.1,-11.48 4903.73,-28.29 4954.15,-28.29 4970.98,-45.11 5021.4,-95.54 5055.02,-95.54 5055.02,-129.16 5122.28,-129.16 5122.28,-112.35 5139.11,-95.54 5206.36,-112.35 5206.36,-129.16 5290.41,-129.16 5307.2,-145.98 5307.2,-129.16 5324.03,-162.79 5357.66,-162.79 5357.66,-179.6 5391.29,-196.41 5424.91,-196.41 5458.54,-179.6 5475.33,-145.98 5525.75,-78.73 5525.75,55.77 5542.58,106.2 5525.75,156.64 5424.91,223.88 5475.33,223.88 5525.75,190.26 5559.37,190.26 5576.21,223.88 5609.83,240.69 5609.83,324.75 5626.5,374.82 5626.5,492.81 5593,476.06 5576.21,492.87 5559.37,509.69 5508.96,526.5 5492.12,560.12 5458.54,593.74 5307.2,593.74 5290.41,560.12 5256.78,560.12 5223.15,610.56 5223.15,627.37 5206.36,660.99 5206.36,677.81 5189.53,677.81 5206.36,677.81 5189.53,694.62 5189.53,711.43 5139.11,745.05 5139.11,778.68 5122.28,795.49 5071.86,795.49 5038.23,829.11 5021.4,812.3 4987.77,829.11 4903.73,829.11 4836.47,795.49 4769.22,745.05 4769.22,711.43 4752.43,694.62 4752.43,660.99 4685.18,644.18 4668.34,627.37 4634.72,627.37 4651.55,610.56 4601.13,610.56 4584.3,576.93 4567.51,543.3 4567.51,509.69 4533.88,576.93 4550.67,492.87 4533.88,476.06 4533.88,442.43 4500.25,408.82 4466.63,408.82 4466.63,375.19 4433,375.19 4399.38,341.57 4399.38,358.38 4382.54,341.57 4382.54,358.38 4365.75,375.19 4348.92,358.38 4348.92,375.19 4332.12,392 4298.5,358.38 4264.87,375.19 4214.45,341.57 4214.45,324.75 4197.62,341.57 4197.62,307.95 4163.99,291.13 4180.83,257.51 4147.2,240.69 4147.2,223.88 4130.37,207.08 4113.57,223.88 4096.74,190.26 4079.95,207.08 4079.95,173.45 4063.11,173.45 4079.95,139.82 4096.74,123.01 4046.32,123.01 4046.32,89.39 4029.53,106.2 4012.7,106.2 3979.07,55.77 3928.65,38.95 3911.82,22.14 3895.03,38.95 3878.19,22.14 3861.4,38.95 3827.77,22.14 3810.94,38.95 3777.36,22.14 3760.52,72.58 3743.73,55.77 3760.52,22.14 3710.1,72.58 3693.28,72.58 3693.28,55.77 3659.66,55.77 "/>
  <path class="fil1" d="M3435.07 -850.71c-2.88,1.4 -7.33,2.3 -11.69,2.3 -13.5,0 -21.32,-8.72 -21.32,-22.3 0,-14.57 8.64,-22.88 21.65,-22.88 4.61,0 8.48,0.98 11.19,2.3l1.73 -5.84c-1.89,-0.99 -6.25,-2.47 -13.17,-2.47 -17.2,0 -28.97,11.77 -28.97,29.13 0,18.19 11.77,28.07 27.41,28.07 6.75,0 12.02,-1.32 14.65,-2.63l-1.48 -5.68zm31.19 -48.89c-14.81,0 -25.76,11.52 -25.76,29.13 0,16.8 10.29,28.15 24.94,28.15 14.16,0 25.76,-10.12 25.76,-29.22 0,-16.46 -9.79,-28.06 -24.94,-28.06zm-0.33 5.84c11.94,0 17.7,11.52 17.7,22.55 0,12.6 -6.42,23.05 -17.78,23.05 -11.28,0 -17.7,-10.62 -17.7,-22.47 0,-12.18 5.93,-23.13 17.78,-23.13zm71.04 50.54l-17.29 -28.48 16.88 -27 -8.24 0 -7.57 13.01c-2.06,3.54 -3.46,6.09 -5.02,9.38l-0.25 0c-1.48,-2.96 -3.04,-5.76 -5.1,-9.38l-7.33 -13.01 -8.31 0 16.3 27.41 -16.96 28.07 8.23 0 6.67 -12.18c2.88,-4.86 4.45,-7.82 6.01,-11.03l0.16 0c1.73,3.21 3.54,6.25 6.43,10.94l7.07 12.27 8.32 0zm8.31 -55.48l0 55.48 7.16 0 0 -55.48 -7.16 0zm67.82 55.48l7 0 -3.46 -55.48 -9.13 0 -9.88 26.83c-2.47,7 -4.45,13.09 -5.85,18.69l-0.24 0c-1.4,-5.76 -3.29,-11.85 -5.6,-18.69l-9.47 -26.83 -9.13 0 -3.87 55.48 6.83 0 1.48 -23.79c0.5,-8.31 0.91,-17.61 1.07,-24.53l0.17 0c1.56,6.59 3.78,13.75 6.42,21.57l8.97 26.42 5.43 0 9.8 -26.92c2.8,-7.65 5.1,-14.57 6.99,-21.07l0.25 0c-0.08,6.92 0.41,16.22 0.82,23.96l1.4 24.36z"/>
  <polygon class="fil2" points="-2699.33,952.53 -2716.14,986.15 -2783.39,986.15 -2817.01,1036.59 -2783.39,1120.65 -2783.39,1154.27 -2766.58,1238.33 -2749.77,1406.45 -2699.33,1440.07 -2632.08,1456.88 -2598.46,1423.26 -2514.4,1372.82 -2480.78,1372.82 -2379.91,1406.45 -2295.85,1389.63 -2228.6,1423.26 -2194.98,1456.88 -2194.98,1473.69 -2228.6,1524.13 -2262.23,1557.75 -2329.47,1574.57 -2379.91,1574.57 -2396.72,1641.82 -2430.34,1675.43 -2447.15,1709.07 -2497.59,1725.87 -2531.21,1759.49 -2531.21,1776.31 -2480.78,1860.36 -2480.78,1877.17 -2447.15,1877.17 -2514.4,1944.43 -2564.84,1961.24 -2615.27,1978.05 -2632.08,2028.49 -2648.9,2062.11 -2648.9,2078.92 -2665.71,2129.36 -2648.9,2146.17 -2665.71,2162.98 -2648.9,2179.79 -2682.52,2196.61 -2732.95,2263.85 -2648.9,2364.72 -2615.27,2415.16 -2632.08,2415.16 -2598.46,2431.97 -2598.46,2499.22 -2581.65,2549.65 -2581.65,2566.46 -2564.84,2583.27 -2581.65,2600.09 -2548.03,2650.52 -2564.84,2650.52 -2548.03,2667.33 -2548.03,2700.96 -2531.21,2717.77 -2480.78,2734.58 -2480.78,2818.65 -2463.97,2818.65 -2463.97,2835.46 -2480.78,2852.26 -2564.84,2835.46 -2632.08,2801.83 -2850.64,2785.01 -2951.51,2818.65 -3018.76,2717.77 -3069.19,2700.96 -3220.5,2751.39 -3270.94,2751.39 -3254.12,2684.14 -3237.31,2667.33 -3220.5,2633.71 -3136.44,2583.27 -3086.01,2566.46 -3102.82,2532.84 -3153.25,2549.65 -3220.5,2549.65 -3220.5,2516.03 -3203.69,2482.4 -3203.69,2398.35 -3220.5,2398.35 -3270.94,2331.1 -3304.56,2331.1 -3321.37,2297.48 -3354.99,2280.66 -3371.8,2230.23 -3422.24,2179.79 -3388.62,2179.79 -3388.62,2078.92 -3371.8,2045.3 -3321.37,1994.86 -3304.56,1961.24 -3270.94,1944.43 -3270.94,1910.81 -3321.37,1910.81 -3338.18,1893.99 -3321.37,1860.36 -3338.18,1860.36 -3338.18,1826.75 -3371.8,1776.31 -3405.43,1776.31 -3472.68,1742.69 -3539.92,1725.87 -3573.55,1709.07 -3640.79,1709.07 -3708.05,1675.43 -3708.05,1658.62 -3724.85,1658.62 -3741.66,1625 -3724.85,1608.2 -3708.05,1625 -3691.23,1608.2 -3640.79,1625 -3607.17,1625 -3590.36,1608.2 -3556.74,1608.2 -3472.68,1591.38 -3455.86,1574.57 -3422.24,1574.57 -3422.24,1557.75 -3388.62,1557.75 -3388.62,1540.95 -3371.8,1557.75 -3321.37,1540.95 -3270.94,1507.32 -3304.56,1456.88 -3270.94,1440.07 -3304.56,1356.01 -3321.37,1339.2 -3304.56,1322.39 -3270.94,1305.58 -3220.5,1288.76 -3136.44,1305.58 -3119.62,1271.95 -3186.87,1221.52 -3153.25,1204.71 -3102.82,1221.52 -3086.01,1221.52 -3052.38,1204.71 -3001.95,1154.27 -2985.13,1154.27 -2934.69,1103.84 -2951.51,1002.97 -2968.32,986.15 -2968.32,902.1 -2901.08,935.72 -2884.26,952.53 -2867.45,969.34 "/>
  <path class="fil1" d="M-3067.76 1931.05c-2.88,1.4 -7.33,2.3 -11.69,2.3 -13.5,0 -21.32,-8.72 -21.32,-22.3 0,-14.57 8.65,-22.88 21.65,-22.88 4.61,0 8.48,0.98 11.2,2.3l1.72 -5.84c-1.89,-0.99 -6.25,-2.47 -13.16,-2.47 -17.21,0 -28.98,11.77 -28.98,29.14 0,18.19 11.77,28.06 27.41,28.06 6.75,0 12.02,-1.31 14.65,-2.63l-1.48 -5.68zm31.19 -48.89c-14.81,0 -25.76,11.52 -25.76,29.14 0,16.79 10.29,28.15 24.94,28.15 14.16,0 25.76,-10.13 25.76,-29.22 0,-16.47 -9.79,-28.07 -24.94,-28.07zm-0.33 5.84c11.94,0 17.7,11.52 17.7,22.55 0,12.6 -6.42,23.05 -17.78,23.05 -11.27,0 -17.69,-10.62 -17.69,-22.47 0,-12.18 5.92,-23.13 17.77,-23.13zm31.78 47.82c2.96,1.98 8.8,3.54 14.15,3.54 13.09,0 19.43,-7.4 19.43,-15.96 0,-8.15 -4.78,-12.68 -14.16,-16.3 -7.65,-2.97 -11.03,-5.52 -11.03,-10.7 0,-3.79 2.88,-8.32 10.45,-8.32 5.03,0 8.73,1.65 10.54,2.64l1.98 -5.85c-2.47,-1.4 -6.59,-2.71 -12.27,-2.71 -10.78,0 -17.94,6.42 -17.94,15.06 0,7.82 5.6,12.51 14.65,15.72 7.49,2.88 10.45,5.85 10.45,11.03 0,5.6 -4.28,9.47 -11.6,9.47 -4.94,0 -9.63,-1.65 -12.84,-3.63l-1.81 6.01zm53.91 2.72l7.24 0 0 -49.39 16.96 0 0 -6.09 -41.07 0 0 6.09 16.87 0 0 49.39zm52.84 -17.45l5.93 17.45 7.65 0 -18.93 -55.48 -8.64 0 -18.85 55.48 7.41 0 5.76 -17.45 19.67 0zm-18.19 -5.6l5.43 -16.05c1.07,-3.37 1.98,-6.75 2.8,-10.04l0.17 0c0.82,3.21 1.64,6.5 2.88,10.12l5.43 15.97 -16.71 0zm57.37 23.05l7.16 0 0 -24.03 6.75 0c6.5,0.24 9.47,3.12 11.11,10.78 1.57,6.91 2.8,11.69 3.71,13.25l7.41 0c-1.16,-2.14 -2.47,-7.49 -4.28,-15.23 -1.32,-5.76 -3.87,-9.71 -8.15,-11.19l0 -0.25c5.84,-1.97 10.45,-6.83 10.45,-14.16 0,-4.28 -1.56,-8.06 -4.36,-10.53 -3.46,-3.13 -8.4,-4.53 -16.05,-4.53 -4.94,0 -10.13,0.41 -13.75,1.15l0 54.74zm7.16 -49.72c1.16,-0.32 3.62,-0.65 7.08,-0.65 7.57,0.08 12.76,3.21 12.76,10.37 0,6.34 -4.86,10.53 -12.51,10.53l-7.33 0 0 -20.25zm37.12 -5.76l0 55.48 7.17 0 0 -55.48 -7.17 0zm56.96 47.99c-2.88,1.4 -7.32,2.3 -11.68,2.3 -13.5,0 -21.32,-8.72 -21.32,-22.3 0,-14.57 8.64,-22.88 21.64,-22.88 4.61,0 8.48,0.98 11.2,2.3l1.73 -5.84c-1.9,-0.99 -6.26,-2.47 -13.17,-2.47 -17.21,0 -28.98,11.77 -28.98,29.14 0,18.19 11.77,28.06 27.41,28.06 6.75,0 12.02,-1.31 14.66,-2.63l-1.49 -5.68zm39.43 -9.96l5.93 17.45 7.65 0 -18.93 -55.48 -8.64 0 -18.85 55.48 7.4 0 5.77 -17.45 19.67 0zm-18.19 -5.6l5.43 -16.05c1.07,-3.37 1.98,-6.75 2.8,-10.04l0.16 0c0.83,3.21 1.65,6.5 2.88,10.12l5.44 15.97 -16.71 0z"/>
  <polygon class="fil0" points="2036.66,400.76 1936.07,400.76 1835.49,461.12 1835.49,501.35 1775.13,561.7 1775.13,622.06 1654.42,783 1654.42,843.35 1674.54,863.47 1654.42,863.47 1654.42,883.59 1614.19,903.71 1614.19,923.82 1594.07,903.71 1594.07,923.82 1553.84,923.82 1553.84,943.94 1493.48,964.06 1493.48,984.17 1473.36,984.17 1493.48,1004.29 1473.36,984.17 1473.36,1024.41 1453.25,1024.41 1413.01,1064.65 1433.13,1064.65 1433.13,1125 1413.01,1125 1433.13,1165.24 1413.01,1145.12 1392.9,1185.35 1413.01,1185.35 1392.9,1185.35 1413.01,1205.47 1372.78,1205.47 1372.78,1225.59 1272.19,1225.59 1272.19,1205.47 1131.37,1205.47 1091.13,1225.59 1091.13,1245.71 1050.89,1245.71 1030.78,1285.94 1030.78,1265.82 1010.66,1285.94 910.08,1285.94 910.08,1306.06 829.6,1326.18 809.48,1306.06 809.48,1285.94 729.01,1285.94 729.01,1326.18 688.77,1326.18 628.42,1386.53 608.3,1406.65 547.95,1406.65 507.72,1426.77 467.48,1487.12 447.36,1507.24 427.25,1567.59 407.13,1527.35 427.25,1446.89 427.25,1386.53 387.01,1366.41 306.54,1366.41 286.42,1346.29 226.06,1285.94 266.3,1084.76 286.42,984.17 246.19,863.47 226.06,742.76 165.71,682.41 105.36,561.7 125.48,521.47 286.42,481.23 366.89,461.12 507.72,481.23 527.84,481.23 547.95,581.82 588.18,561.7 608.3,501.35 648.54,501.35 668.66,461.12 668.66,481.23 688.77,461.12 708.89,481.23 769.25,541.58 789.37,581.82 809.48,561.7 950.3,581.82 970.42,561.7 1010.66,601.94 1030.78,581.82 1030.78,662.29 1071.01,662.29 1111.25,642.17 1111.25,622.06 1131.37,601.94 1131.37,622.06 1151.49,601.94 1171.6,581.82 1272.19,581.82 1272.19,541.58 1292.31,541.58 1272.19,521.47 1292.31,501.35 1272.19,501.35 1272.19,461.12 1292.31,481.23 1332.55,501.35 1332.55,420.88 1392.9,420.88 1352.66,400.76 1392.9,380.64 1392.9,400.76 1413.01,380.64 1392.9,360.53 1433.13,360.53 1433.13,340.41 1473.36,340.41 1533.72,360.53 1533.72,400.76 1573.96,400.76 1553.84,380.64 1573.96,380.64 1573.96,340.41 1634.31,360.53 1634.31,340.41 1654.42,340.41 1674.54,360.53 1714.78,380.64 1694.66,380.64 1714.78,380.64 1714.78,400.76 1694.66,420.88 1714.78,400.76 1714.78,441 1714.78,420.88 1714.78,441 1734.9,441 1755.02,400.76 1775.13,461.12 1795.25,441 1775.13,441 1795.25,420.88 1734.9,400.76 1755.02,380.64 1775.13,380.64 1755.02,360.53 1815.37,380.64 1835.49,360.53 1855.6,360.53 1855.6,340.41 1895.84,340.41 1915.96,380.64 1936.07,360.53 1976.32,360.53 1996.43,400.76 "/>
  <path class="fil1" d="M4558.71 1856.15l7.16 0 0 -22.23c1.64,0.41 3.62,0.5 5.76,0.5 6.99,0 13.17,-2.06 16.96,-6.09 2.79,-2.89 4.27,-6.84 4.27,-11.86 0,-4.94 -1.81,-8.97 -4.85,-11.6 -3.29,-2.97 -8.48,-4.61 -15.56,-4.61 -5.76,0 -10.29,0.49 -13.74,1.07l0 54.82zm7.16 -49.64c1.23,-0.33 3.62,-0.57 6.75,-0.57 7.9,0 13.08,3.54 13.08,10.86 0,7.66 -5.26,11.85 -13.91,11.85 -2.38,0 -4.36,-0.16 -5.92,-0.57l0 -21.57zm65.35 17.7l-21.56 0 0 -17.53 22.8 0 0 -6.01 -29.97 0 0 55.48 31.2 0 0 -6.01 -24.03 0 0 -20 21.56 0 0 -5.93zm11.77 31.77c3.62,0.41 7.9,0.66 13.01,0.66 10.78,0 19.34,-2.8 24.52,-7.98 5.19,-5.11 7.99,-12.52 7.99,-21.57 0,-8.97 -2.88,-15.39 -7.82,-19.92 -4.86,-4.53 -12.18,-6.91 -22.47,-6.91 -5.68,0 -10.87,0.49 -15.23,1.15l0 54.57zm7.16 -49.3c1.9,-0.41 4.69,-0.74 8.4,-0.74 15.14,0 22.55,8.31 22.47,21.4 0,14.98 -8.31,23.54 -23.62,23.54 -2.8,0 -5.44,-0.08 -7.25,-0.41l0 -43.79zm47.66 49.47l7.16 0 0 -24.04 6.75 0c6.5,0.25 9.47,3.13 11.11,10.78 1.57,6.92 2.8,11.69 3.71,13.26l7.4 0c-1.15,-2.14 -2.46,-7.49 -4.28,-15.23 -1.31,-5.76 -3.86,-9.71 -8.14,-11.2l0 -0.24c5.84,-1.98 10.45,-6.83 10.45,-14.16 0,-4.28 -1.56,-8.07 -4.36,-10.54 -3.46,-3.12 -8.4,-4.52 -16.05,-4.52 -4.94,0 -10.13,0.41 -13.75,1.15l0 54.74zm7.16 -49.72c1.15,-0.33 3.62,-0.66 7.08,-0.66 7.57,0.08 12.76,3.21 12.76,10.37 0,6.34 -4.86,10.54 -12.51,10.54l-7.33 0 0 -20.25zm59.59 -6.67c-14.81,0 -25.76,11.53 -25.76,29.14 0,16.79 10.29,28.15 24.94,28.15 14.16,0 25.76,-10.12 25.76,-29.22 0,-16.46 -9.79,-28.07 -24.94,-28.07zm-0.32 5.85c11.93,0 17.69,11.52 17.69,22.55 0,12.59 -6.42,23.05 -17.78,23.05 -11.27,0 -17.69,-10.62 -17.69,-22.47 0,-12.18 5.92,-23.13 17.78,-23.13zm94.24 21.4l-18.27 0 0 5.76 11.27 0 0 16.54c-1.64,0.83 -4.85,1.49 -9.54,1.49 -12.93,0 -21.4,-8.32 -21.4,-22.39 0,-13.91 8.8,-22.31 22.3,-22.31 5.6,0 9.3,1.07 12.27,2.39l1.72 -5.85c-2.38,-1.15 -7.4,-2.55 -13.82,-2.55 -18.61,0 -29.97,12.1 -30.05,28.65 0,8.64 2.97,16.05 7.74,20.66 5.43,5.18 12.35,7.32 20.74,7.32 7.49,0 13.83,-1.89 17.04,-3.04l0 -26.67zm33.42 -27.25c-14.82,0 -25.76,11.53 -25.76,29.14 0,16.79 10.29,28.15 24.94,28.15 14.15,0 25.76,-10.12 25.76,-29.22 0,-16.46 -9.8,-28.07 -24.94,-28.07zm-0.33 5.85c11.94,0 17.7,11.52 17.7,22.55 0,12.59 -6.42,23.05 -17.78,23.05 -11.28,0 -17.7,-10.62 -17.7,-22.47 0,-12.18 5.93,-23.13 17.78,-23.13zm82.72 50.54l7 0 -3.46 -55.48 -9.14 0 -9.87 26.83c-2.47,7 -4.45,13.09 -5.85,18.69l-0.24 0c-1.4,-5.77 -3.3,-11.86 -5.6,-18.69l-9.47 -26.83 -9.13 0 -3.87 55.48 6.83 0 1.48 -23.79c0.49,-8.32 0.91,-17.62 1.07,-24.53l0.17 0c1.56,6.58 3.78,13.75 6.42,21.57l8.97 26.42 5.43 0 9.8 -26.92c2.79,-7.65 5.1,-14.57 6.99,-21.07l0.25 0c-0.08,6.91 0.41,16.21 0.82,23.95l1.4 24.37zm46.75 -31.94l-21.56 0 0 -17.53 22.8 0 0 -6.01 -29.96 0 0 55.48 31.19 0 0 -6.01 -24.03 0 0 -20 21.56 0 0 -5.93zm8.97 29.22c2.97,1.98 8.81,3.54 14.16,3.54 13.09,0 19.43,-7.41 19.43,-15.97 0,-8.15 -4.78,-12.67 -14.16,-16.3 -7.65,-2.96 -11.03,-5.51 -11.03,-10.7 0,-3.78 2.88,-8.31 10.45,-8.31 5.02,0 8.73,1.65 10.54,2.63l1.98 -5.84c-2.47,-1.4 -6.59,-2.72 -12.27,-2.72 -10.78,0 -17.94,6.42 -17.94,15.07 0,7.82 5.59,12.51 14.65,15.72 7.49,2.88 10.45,5.84 10.45,11.03 0,5.59 -4.28,9.46 -11.6,9.46 -4.94,0 -9.63,-1.64 -12.84,-3.62l-1.82 6.01z"/>
 </g>
</svg>
