<?xml version="1.0" encoding="UTF-8"?>
<!DOCTYPE svg PUBLIC "-//W3C//DTD SVG 1.1//EN" "http://www.w3.org/Graphics/SVG/1.1/DTD/svg11.dtd">
<!-- Creator: CorelDRAW 2020 (64 Bit) -->
<svg xmlns="http://www.w3.org/2000/svg" xml:space="preserve" width="2067px" height="1854px" version="1.1" style="shape-rendering:geometricPrecision; text-rendering:geometricPrecision; image-rendering:optimizeQuality; fill-rule:evenodd; clip-rule:evenodd"
viewBox="0 0 2067 1854.39"
 xmlns:xlink="http://www.w3.org/1999/xlink"
 xmlns:xodm="http://www.corel.com/coreldraw/odm/2003">
 <defs>
  <style type="text/css">
   <![CDATA[
    .fil0 {fill:#6BBE50}
    .fil1 {fill:#222124}
    .fil2 {fill:#a70800}
   ]]>
  </style>
 </defs>
 <g id="Camada_x0020_1">
  <metadata id="CorelCorpID_0Corel-Layer"/>
  <polygon class="fil0" points="-2914.29,-548.83 -2863.85,-532.02 -2830.23,-532.02 -2796.61,-515.21 -2762.98,-498.39 -2729.36,-464.77 -2729.36,-431.14 -2695.74,-414.34 -2695.74,-347.08 -2611.68,-246.21 -2594.86,-178.97 -2594.86,-94.91 -2578.05,-44.47 -2594.86,-44.47 -2611.68,-10.85 -2628.49,-27.66 -2645.29,-10.85 -2645.29,-27.66 -2695.74,-27.66 -2695.74,-10.85 -2662.11,5.96 -2678.92,39.59 -2645.29,56.4 -2645.29,73.2 -2662.11,90.02 -2662.11,106.83 -2611.68,106.83 -2628.49,123.64 -2628.49,176.88 -2611.68,193.69 -2628.49,227.32 -2594.86,227.32 -2611.68,244.13 -2628.49,260.95 -2594.86,277.75 -2611.68,294.56 -2594.86,294.56 -2594.86,311.38 -2611.68,311.38 -2611.68,328.19 -2678.92,328.19 -2695.74,361.81 -2729.36,395.43 -2729.36,429.06 -2762.98,429.06 -2796.61,445.87 -2796.61,580.36 -2813.42,597.17 -2847.04,580.36 -2863.85,597.17 -2880.66,580.36 -2880.66,613.99 -2897.48,664.43 -2964.72,698.05 -2964.72,731.67 -2981.54,765.3 -2964.72,815.73 -3031.97,782.1 -3065.59,832.54 -3082.41,815.73 -3099.22,782.1 -3166.46,782.1 -3216.91,832.54 -3284.15,832.54 -3300.96,849.36 -3351.39,882.97 -3401.83,866.17 -3435.45,882.97 -3452.27,866.17 -3435.45,849.36 -3452.27,832.54 -3452.27,798.92 -3469.08,782.1 -3469.08,748.49 -3452.27,731.67 -3536.32,681.23 -3553.14,647.61 -3519.52,563.56 -3485.89,529.93 -3435.45,412.25 -3469.08,378.62 -3485.89,328.19 -3452.27,294.56 -3502.7,294.56 -3569.95,244.13 -3536.32,193.69 -3502.7,176.88 -3485.89,140.46 -3435.45,73.2 -3435.45,22.77 -3401.83,-10.85 -3385.02,-44.47 -3317.77,-61.28 -3284.15,-94.91 -3216.91,-128.54 -3183.28,-145.34 -3166.46,-145.34 -3116.03,-128.54 -3099.22,-128.54 -3065.59,-111.72 -3015.16,-128.54 -2981.54,-111.72 -2981.54,-128.54 -2931.1,-111.72 -2931.1,-94.91 -2914.29,-111.72 -2914.29,-162.16 -2964.72,-162.16 -2964.72,-195.78 -2998.35,-212.59 -2998.35,-246.21 -3015.16,-246.21 -3065.59,-279.84 -3065.59,-313.46 -3082.41,-313.46 -3116.03,-330.27 -3099.22,-363.9 -3132.84,-397.52 -3132.84,-431.14 -3200.09,-464.77 -3183.28,-481.58 -3216.91,-515.21 -3200.09,-548.83 -3132.84,-515.21 -3048.78,-515.21 -3015.16,-532.02 -2998.35,-515.21 -2964.72,-548.83 "/>
  <path class="fil1" d="M-3065.47 384.56c2.97,1.98 8.81,3.54 14.16,3.54 13.09,0 19.42,-7.41 19.42,-15.97 0,-8.15 -4.77,-12.67 -14.15,-16.29 -7.66,-2.97 -11.03,-5.52 -11.03,-10.71 0,-3.78 2.88,-8.31 10.45,-8.31 5.02,0 8.73,1.65 10.54,2.64l1.97 -5.85c-2.47,-1.4 -6.58,-2.72 -12.26,-2.72 -10.79,0 -17.95,6.43 -17.95,15.07 0,7.82 5.6,12.51 14.66,15.72 7.48,2.88 10.45,5.84 10.45,11.03 0,5.6 -4.28,9.46 -11.61,9.46 -4.94,0 -9.63,-1.64 -12.84,-3.62l-1.81 6.01zm85.6 -26.42l-18.27 0 0 5.76 11.28 0 0 16.55c-1.65,0.82 -4.86,1.48 -9.55,1.48 -12.92,0 -21.4,-8.32 -21.4,-22.39 0,-13.91 8.81,-22.31 22.31,-22.31 5.59,0 9.3,1.07 12.26,2.39l1.73 -5.84c-2.39,-1.16 -7.41,-2.56 -13.83,-2.56 -18.6,0 -29.96,12.1 -30.04,28.65 0,8.64 2.96,16.05 7.73,20.66 5.44,5.18 12.35,7.32 20.75,7.32 7.49,0 13.82,-1.89 17.03,-3.04l0 -26.67zm33.42 -27.25c-14.81,0 -25.76,11.53 -25.76,29.14 0,16.79 10.29,28.15 24.94,28.15 14.16,0 25.76,-10.12 25.76,-29.22 0,-16.46 -9.79,-28.07 -24.94,-28.07zm-0.33 5.85c11.94,0 17.7,11.52 17.7,22.55 0,12.6 -6.42,23.05 -17.78,23.05 -11.28,0 -17.7,-10.62 -17.7,-22.47 0,-12.18 5.93,-23.13 17.78,-23.13z"/>
  <polygon class="fil2" points="544.53,58.59 578.16,58.59 578.16,75.4 594.97,75.4 645.4,24.97 628.59,58.59 645.4,75.4 662.22,24.97 695.84,41.77 712.65,24.97 746.27,41.77 763.09,24.97 779.9,41.77 796.71,24.97 813.52,41.77 863.96,58.59 897.58,109.03 914.39,109.03 931.21,92.21 931.21,125.83 981.65,125.83 964.83,142.65 948.01,176.27 964.83,176.27 964.83,209.9 981.65,193.09 998.45,226.71 1015.26,209.9 1032.08,226.71 1032.08,243.52 1065.7,260.33 1048.89,293.95 1082.51,310.77 1082.51,344.39 1099.32,327.58 1099.32,344.39 1149.76,378.02 1183.39,361.2 1217,394.83 1233.82,378.02 1233.82,361.2 1250.63,378.02 1267.44,361.2 1267.44,344.39 1284.26,361.2 1284.26,344.39 1317.87,378.02 1351.5,378.02 1351.5,411.64 1385.13,411.64 1418.74,445.26 1418.74,478.89 1435.56,495.7 1418.74,579.76 1452.37,512.51 1452.37,546.13 1469.18,579.76 1486,613.38 1536.43,613.38 1519.61,630.19 1553.24,630.19 1570.05,647 1637.3,663.82 1637.3,697.44 1654.11,714.25 1654.11,747.87 1721.36,798.31 1704.55,831.93 1738.17,865.56 1721.36,882.37 1788.61,916 1788.61,949.61 1822.23,983.24 1805.42,1016.87 1839.04,1033.67 1855.85,1033.67 1855.85,1067.3 1906.29,1100.92 1923.1,1100.92 1923.1,1134.55 1956.73,1151.36 1956.73,1184.98 2007.16,1184.98 2007.16,1235.42 1990.35,1252.23 1990.35,1235.42 1939.92,1218.6 1939.92,1235.42 1906.29,1218.6 1855.85,1235.42 1822.23,1218.6 1805.42,1218.6 1754.98,1201.8 1738.17,1201.8 1704.55,1218.6 1637.3,1252.23 1603.68,1285.85 1536.43,1302.67 1519.61,1336.29 1486,1369.91 1486,1420.34 1435.56,1487.6 1418.74,1521.21 1385.13,1538.03 1351.5,1588.47 1250.63,1571.65 1183.39,1655.71 1048.89,1655.71 1032.08,1672.53 1032.08,1689.34 998.45,1722.96 1015.26,1739.77 1015.26,1756.58 998.45,1739.77 998.45,1756.58 964.83,1790.21 948.01,1840.64 948.01,1823.83 880.77,1807.02 847.15,1790.21 847.15,1807.02 813.52,1823.83 763.09,1807.02 712.65,1722.96 679.03,1722.96 628.59,1672.53 561.34,1672.53 544.53,1655.71 510.9,1655.71 477.29,1672.53 477.29,1689.34 443.66,1672.53 393.22,1689.34 376.42,1689.34 342.79,1655.71 292.35,1622.09 393.22,596.57 "/>
  <path class="fil1" d="M-2080.28 -228.05l7.16 0 0 -24.03 6.75 0c6.5,0.24 9.46,3.13 11.11,10.78 1.56,6.92 2.8,11.69 3.7,13.25l7.41 0c-1.15,-2.14 -2.47,-7.49 -4.28,-15.22 -1.31,-5.77 -3.87,-9.72 -8.15,-11.2l0 -0.25c5.85,-1.97 10.46,-6.83 10.46,-14.15 0,-4.28 -1.57,-8.07 -4.37,-10.54 -3.45,-3.13 -8.39,-4.52 -16.05,-4.52 -4.93,0 -10.12,0.41 -13.74,1.15l0 54.73zm7.16 -49.71c1.15,-0.33 3.62,-0.66 7.08,-0.66 7.57,0.08 12.76,3.21 12.76,10.37 0,6.34 -4.86,10.54 -12.52,10.54l-7.32 0 0 -20.25zm37.12 -5.76l0 55.47 7.16 0 0 -55.47 -7.16 0zm42.14 -0.91c-14.81,0 -25.76,11.52 -25.76,29.14 0,16.79 10.29,28.15 24.94,28.15 14.16,0 25.76,-10.13 25.76,-29.22 0,-16.46 -9.79,-28.07 -24.94,-28.07zm-0.32 5.84c11.93,0 17.69,11.53 17.69,22.56 0,12.59 -6.42,23.04 -17.78,23.04 -11.27,0 -17.69,-10.61 -17.69,-22.47 0,-12.18 5.92,-23.13 17.78,-23.13zm69.14 50.54l19.83 -55.47 -7.65 0 -9.38 27.41c-2.47,7.24 -4.78,14.24 -6.34,20.66l-0.17 0c-1.48,-6.51 -3.54,-13.26 -5.92,-20.75l-8.65 -27.32 -7.73 0 18.11 55.47 7.9 0zm54.57 -31.93l-21.57 0 0 -17.54 22.8 0 0 -6 -29.96 0 0 55.47 31.2 0 0 -6.01 -24.04 0 0 -20 21.57 0 0 -5.92zm11.77 31.93l7.16 0 0 -24.03 6.75 0c6.5,0.24 9.47,3.13 11.11,10.78 1.57,6.92 2.8,11.69 3.71,13.25l7.4 0c-1.15,-2.14 -2.47,-7.49 -4.28,-15.22 -1.31,-5.77 -3.86,-9.72 -8.15,-11.2l0 -0.25c5.85,-1.97 10.46,-6.83 10.46,-14.15 0,-4.28 -1.57,-8.07 -4.36,-10.54 -3.46,-3.13 -8.4,-4.52 -16.05,-4.52 -4.94,0 -10.13,0.41 -13.75,1.15l0 54.73zm7.16 -49.71c1.15,-0.33 3.62,-0.66 7.08,-0.66 7.57,0.08 12.76,3.21 12.76,10.37 0,6.34 -4.86,10.54 -12.51,10.54l-7.33 0 0 -20.25zm37.12 49.55c3.62,0.41 7.9,0.66 13.01,0.66 10.78,0 19.34,-2.8 24.53,-7.99 5.18,-5.1 7.98,-12.51 7.98,-21.56 0,-8.97 -2.88,-15.39 -7.82,-19.92 -4.86,-4.53 -12.18,-6.91 -22.47,-6.91 -5.68,0 -10.86,0.49 -15.23,1.15l0 54.57zm7.16 -49.31c1.9,-0.41 4.7,-0.74 8.4,-0.74 15.14,0 22.55,8.32 22.47,21.41 0,14.98 -8.31,23.54 -23.62,23.54 -2.8,0 -5.44,-0.09 -7.25,-0.42l0 -43.79zm76.39 17.54l-21.57 0 0 -17.54 22.8 0 0 -6 -29.96 0 0 55.47 31.2 0 0 -6.01 -24.04 0 0 -20 21.57 0 0 -5.92z"/>
  <polygon class="fil2" points="3928.65,-902.51 3928.65,-902.51 3911.82,-818.45 3911.82,-768.01 3895.03,-751.2 3911.82,-734.39 3945.44,-717.58 3945.44,-616.71 3979.07,-616.71 3995.9,-583.09 4029.53,-566.28 4012.7,-549.46 4063.11,-532.65 4079.95,-532.65 4096.74,-515.84 4130.37,-515.84 4130.37,-532.65 4180.83,-532.65 4197.62,-499.02 4214.45,-499.02 4248.08,-482.22 4248.08,-465.4 4264.87,-414.97 4298.5,-398.15 4315.33,-364.53 4315.33,-381.34 4382.54,-330.9 4416.17,-330.9 4416.17,-347.72 4466.63,-347.72 4466.63,-364.53 4517.05,-364.53 4550.67,-381.34 4567.51,-398.15 4567.51,-431.78 4651.55,-482.22 4685.18,-381.34 4668.34,-297.28 4634.72,-129.16 4685.18,-78.73 4701.97,-61.92 4769.22,-61.92 4802.85,-45.11 4802.85,5.33 4786.06,72.58 4802.85,106.2 4819.68,55.77 4836.47,38.95 4870.1,-11.48 4903.73,-28.29 4954.15,-28.29 4970.98,-45.11 5021.4,-95.54 5055.02,-95.54 5055.02,-129.16 5122.28,-129.16 5122.28,-112.35 5139.11,-95.54 5206.36,-112.35 5206.36,-129.16 5290.41,-129.16 5307.2,-145.98 5307.2,-129.16 5324.03,-162.79 5357.66,-162.79 5357.66,-179.6 5391.29,-196.41 5424.91,-196.41 5458.54,-179.6 5475.33,-145.98 5525.75,-78.73 5525.75,55.77 5542.58,106.2 5525.75,156.64 5424.91,223.88 5475.33,223.88 5525.75,190.26 5559.37,190.26 5576.21,223.88 5609.83,240.69 5609.83,324.75 5626.5,374.82 5626.5,492.81 5593,476.06 5576.21,492.87 5559.37,509.69 5508.96,526.5 5492.12,560.12 5458.54,593.74 5307.2,593.74 5290.41,560.12 5256.78,560.12 5223.15,610.56 5223.15,627.37 5206.36,660.99 5206.36,677.81 5189.53,677.81 5206.36,677.81 5189.53,694.62 5189.53,711.43 5139.11,745.05 5139.11,778.68 5122.28,795.49 5071.86,795.49 5038.23,829.11 5021.4,812.3 4987.77,829.11 4903.73,829.11 4836.47,795.49 4769.22,745.05 4769.22,711.43 4752.43,694.62 4752.43,660.99 4685.18,644.18 4668.34,627.37 4634.72,627.37 4651.55,610.56 4601.13,610.56 4584.3,576.93 4567.51,543.3 4567.51,509.69 4533.88,576.93 4550.67,492.87 4533.88,476.06 4533.88,442.43 4500.25,408.82 4466.63,408.82 4466.63,375.19 4433,375.19 4399.38,341.57 4399.38,358.38 4382.54,341.57 4382.54,358.38 4365.75,375.19 4348.92,358.38 4348.92,375.19 4332.12,392 4298.5,358.38 4264.87,375.19 4214.45,341.57 4214.45,324.75 4197.62,341.57 4197.62,307.95 4163.99,291.13 4180.83,257.51 4147.2,240.69 4147.2,223.88 4130.37,207.08 4113.57,223.88 4096.74,190.26 4079.95,207.08 4079.95,173.45 4063.11,173.45 4079.95,139.82 4096.74,123.01 4046.32,123.01 4046.32,89.39 4029.53,106.2 4012.7,106.2 3979.07,55.77 3928.65,38.95 3911.82,22.14 3895.03,38.95 3878.19,22.14 3861.4,38.95 3827.77,22.14 3810.94,38.95 3777.36,22.14 3760.52,72.58 3743.73,55.77 3760.52,22.14 3710.1,72.58 3693.28,72.58 3693.28,55.77 3659.66,55.77 "/>
  <path class="fil1" d="M3435.07 -850.71c-2.88,1.4 -7.33,2.3 -11.69,2.3 -13.5,0 -21.32,-8.72 -21.32,-22.3 0,-14.57 8.64,-22.88 21.65,-22.88 4.61,0 8.48,0.98 11.19,2.3l1.73 -5.84c-1.89,-0.99 -6.25,-2.47 -13.17,-2.47 -17.2,0 -28.97,11.77 -28.97,29.13 0,18.19 11.77,28.07 27.41,28.07 6.75,0 12.02,-1.32 14.65,-2.63l-1.48 -5.68zm31.19 -48.89c-14.81,0 -25.76,11.52 -25.76,29.13 0,16.8 10.29,28.15 24.94,28.15 14.16,0 25.76,-10.12 25.76,-29.22 0,-16.46 -9.79,-28.06 -24.94,-28.06zm-0.33 5.84c11.94,0 17.7,11.52 17.7,22.55 0,12.6 -6.42,23.05 -17.78,23.05 -11.28,0 -17.7,-10.62 -17.7,-22.47 0,-12.18 5.93,-23.13 17.78,-23.13zm71.04 50.54l-17.29 -28.48 16.88 -27 -8.24 0 -7.57 13.01c-2.06,3.54 -3.46,6.09 -5.02,9.38l-0.25 0c-1.48,-2.96 -3.04,-5.76 -5.1,-9.38l-7.33 -13.01 -8.31 0 16.3 27.41 -16.96 28.07 8.23 0 6.67 -12.18c2.88,-4.86 4.45,-7.82 6.01,-11.03l0.16 0c1.73,3.21 3.54,6.25 6.43,10.94l7.07 12.27 8.32 0zm8.31 -55.48l0 55.48 7.16 0 0 -55.48 -7.16 0zm67.82 55.48l7 0 -3.46 -55.48 -9.13 0 -9.88 26.83c-2.47,7 -4.45,13.09 -5.85,18.69l-0.24 0c-1.4,-5.76 -3.29,-11.85 -5.6,-18.69l-9.47 -26.83 -9.13 0 -3.87 55.48 6.83 0 1.48 -23.79c0.5,-8.31 0.91,-17.61 1.07,-24.53l0.17 0c1.56,6.59 3.78,13.75 6.42,21.57l8.97 26.42 5.43 0 9.8 -26.92c2.8,-7.65 5.1,-14.57 6.99,-21.07l0.25 0c-0.08,6.92 0.41,16.22 0.82,23.96l1.4 24.36z"/>
  <polygon class="fil0" points="-2699.33,952.53 -2716.14,986.15 -2783.39,986.15 -2817.01,1036.59 -2783.39,1120.65 -2783.39,1154.27 -2766.58,1238.33 -2749.77,1406.45 -2699.33,1440.07 -2632.08,1456.88 -2598.46,1423.26 -2514.4,1372.82 -2480.78,1372.82 -2379.91,1406.45 -2295.85,1389.63 -2228.6,1423.26 -2194.98,1456.88 -2194.98,1473.69 -2228.6,1524.13 -2262.23,1557.75 -2329.47,1574.57 -2379.91,1574.57 -2396.72,1641.82 -2430.34,1675.43 -2447.15,1709.07 -2497.59,1725.87 -2531.21,1759.49 -2531.21,1776.31 -2480.78,1860.36 -2480.78,1877.17 -2447.15,1877.17 -2514.4,1944.43 -2564.84,1961.24 -2615.27,1978.05 -2632.08,2028.49 -2648.9,2062.11 -2648.9,2078.92 -2665.71,2129.36 -2648.9,2146.17 -2665.71,2162.98 -2648.9,2179.79 -2682.52,2196.61 -2732.95,2263.85 -2648.9,2364.72 -2615.27,2415.16 -2632.08,2415.16 -2598.46,2431.97 -2598.46,2499.22 -2581.65,2549.65 -2581.65,2566.46 -2564.84,2583.27 -2581.65,2600.09 -2548.03,2650.52 -2564.84,2650.52 -2548.03,2667.33 -2548.03,2700.96 -2531.21,2717.77 -2480.78,2734.58 -2480.78,2818.65 -2463.97,2818.65 -2463.97,2835.46 -2480.78,2852.26 -2564.84,2835.46 -2632.08,2801.83 -2850.64,2785.01 -2951.51,2818.65 -3018.76,2717.77 -3069.19,2700.96 -3220.5,2751.39 -3270.94,2751.39 -3254.12,2684.14 -3237.31,2667.33 -3220.5,2633.71 -3136.44,2583.27 -3086.01,2566.46 -3102.82,2532.84 -3153.25,2549.65 -3220.5,2549.65 -3220.5,2516.03 -3203.69,2482.4 -3203.69,2398.35 -3220.5,2398.35 -3270.94,2331.1 -3304.56,2331.1 -3321.37,2297.48 -3354.99,2280.66 -3371.8,2230.23 -3422.24,2179.79 -3388.62,2179.79 -3388.62,2078.92 -3371.8,2045.3 -3321.37,1994.86 -3304.56,1961.24 -3270.94,1944.43 -3270.94,1910.81 -3321.37,1910.81 -3338.18,1893.99 -3321.37,1860.36 -3338.18,1860.36 -3338.18,1826.75 -3371.8,1776.31 -3405.43,1776.31 -3472.68,1742.69 -3539.92,1725.87 -3573.55,1709.07 -3640.79,1709.07 -3708.05,1675.43 -3708.05,1658.62 -3724.85,1658.62 -3741.66,1625 -3724.85,1608.2 -3708.05,1625 -3691.23,1608.2 -3640.79,1625 -3607.17,1625 -3590.36,1608.2 -3556.74,1608.2 -3472.68,1591.38 -3455.86,1574.57 -3422.24,1574.57 -3422.24,1557.75 -3388.62,1557.75 -3388.62,1540.95 -3371.8,1557.75 -3321.37,1540.95 -3270.94,1507.32 -3304.56,1456.88 -3270.94,1440.07 -3304.56,1356.01 -3321.37,1339.2 -3304.56,1322.39 -3270.94,1305.58 -3220.5,1288.76 -3136.44,1305.58 -3119.62,1271.95 -3186.87,1221.52 -3153.25,1204.71 -3102.82,1221.52 -3086.01,1221.52 -3052.38,1204.71 -3001.95,1154.27 -2985.13,1154.27 -2934.69,1103.84 -2951.51,1002.97 -2968.32,986.15 -2968.32,902.1 -2901.08,935.72 -2884.26,952.53 -2867.45,969.34 "/>
  <path class="fil1" d="M-3067.76 1931.05c-2.88,1.4 -7.33,2.3 -11.69,2.3 -13.5,0 -21.32,-8.72 -21.32,-22.3 0,-14.57 8.65,-22.88 21.65,-22.88 4.61,0 8.48,0.98 11.2,2.3l1.72 -5.84c-1.89,-0.99 -6.25,-2.47 -13.16,-2.47 -17.21,0 -28.98,11.77 -28.98,29.14 0,18.19 11.77,28.06 27.41,28.06 6.75,0 12.02,-1.31 14.65,-2.63l-1.48 -5.68zm31.19 -48.89c-14.81,0 -25.76,11.52 -25.76,29.14 0,16.79 10.29,28.15 24.94,28.15 14.16,0 25.76,-10.13 25.76,-29.22 0,-16.47 -9.79,-28.07 -24.94,-28.07zm-0.33 5.84c11.94,0 17.7,11.52 17.7,22.55 0,12.6 -6.42,23.05 -17.78,23.05 -11.27,0 -17.69,-10.62 -17.69,-22.47 0,-12.18 5.92,-23.13 17.77,-23.13zm31.78 47.82c2.96,1.98 8.8,3.54 14.15,3.54 13.09,0 19.43,-7.4 19.43,-15.96 0,-8.15 -4.78,-12.68 -14.16,-16.3 -7.65,-2.97 -11.03,-5.52 -11.03,-10.7 0,-3.79 2.88,-8.32 10.45,-8.32 5.03,0 8.73,1.65 10.54,2.64l1.98 -5.85c-2.47,-1.4 -6.59,-2.71 -12.27,-2.71 -10.78,0 -17.94,6.42 -17.94,15.06 0,7.82 5.6,12.51 14.65,15.72 7.49,2.88 10.45,5.85 10.45,11.03 0,5.6 -4.28,9.47 -11.6,9.47 -4.94,0 -9.63,-1.65 -12.84,-3.63l-1.81 6.01zm53.91 2.72l7.24 0 0 -49.39 16.96 0 0 -6.09 -41.07 0 0 6.09 16.87 0 0 49.39zm52.84 -17.45l5.93 17.45 7.65 0 -18.93 -55.48 -8.64 0 -18.85 55.48 7.41 0 5.76 -17.45 19.67 0zm-18.19 -5.6l5.43 -16.05c1.07,-3.37 1.98,-6.75 2.8,-10.04l0.17 0c0.82,3.21 1.64,6.5 2.88,10.12l5.43 15.97 -16.71 0zm57.37 23.05l7.16 0 0 -24.03 6.75 0c6.5,0.24 9.47,3.12 11.11,10.78 1.57,6.91 2.8,11.69 3.71,13.25l7.41 0c-1.16,-2.14 -2.47,-7.49 -4.28,-15.23 -1.32,-5.76 -3.87,-9.71 -8.15,-11.19l0 -0.25c5.84,-1.97 10.45,-6.83 10.45,-14.16 0,-4.28 -1.56,-8.06 -4.36,-10.53 -3.46,-3.13 -8.4,-4.53 -16.05,-4.53 -4.94,0 -10.13,0.41 -13.75,1.15l0 54.74zm7.16 -49.72c1.16,-0.32 3.62,-0.65 7.08,-0.65 7.57,0.08 12.76,3.21 12.76,10.37 0,6.34 -4.86,10.53 -12.51,10.53l-7.33 0 0 -20.25zm37.12 -5.76l0 55.48 7.17 0 0 -55.48 -7.17 0zm56.96 47.99c-2.88,1.4 -7.32,2.3 -11.68,2.3 -13.5,0 -21.32,-8.72 -21.32,-22.3 0,-14.57 8.64,-22.88 21.64,-22.88 4.61,0 8.48,0.98 11.2,2.3l1.73 -5.84c-1.9,-0.99 -6.26,-2.47 -13.17,-2.47 -17.21,0 -28.98,11.77 -28.98,29.14 0,18.19 11.77,28.06 27.41,28.06 6.75,0 12.02,-1.31 14.66,-2.63l-1.49 -5.68zm39.43 -9.96l5.93 17.45 7.65 0 -18.93 -55.48 -8.64 0 -18.85 55.48 7.4 0 5.77 -17.45 19.67 0zm-18.19 -5.6l5.43 -16.05c1.07,-3.37 1.98,-6.75 2.8,-10.04l0.16 0c0.83,3.21 1.65,6.5 2.88,10.12l5.44 15.97 -16.71 0z"/>
  <polygon class="fil0" points="5769.43,1425.87 5685.37,1425.87 5601.32,1476.3 5601.32,1509.92 5550.88,1560.36 5550.88,1610.8 5450.01,1745.29 5450.01,1795.73 5466.82,1812.54 5450.01,1812.54 5450.01,1829.35 5416.39,1846.16 5416.39,1862.97 5399.58,1846.16 5399.58,1862.97 5365.95,1862.97 5365.95,1879.78 5315.51,1896.6 5315.51,1913.41 5298.7,1913.41 5315.51,1930.22 5298.7,1913.41 5298.7,1947.03 5281.89,1947.03 5248.27,1980.66 5265.08,1980.66 5265.08,2031.09 5248.27,2031.09 5265.08,2064.72 5248.27,2047.9 5231.46,2081.52 5248.27,2081.52 5231.46,2081.52 5248.27,2098.34 5214.64,2098.34 5214.64,2115.15 5130.59,2115.15 5130.59,2098.34 5012.9,2098.34 4979.28,2115.15 4979.28,2131.96 4945.65,2131.96 4928.85,2165.59 4928.85,2148.77 4912.03,2165.59 4827.98,2165.59 4827.98,2182.4 4760.73,2199.21 4743.91,2182.4 4743.91,2165.59 4676.67,2165.59 4676.67,2199.21 4643.04,2199.21 4592.61,2249.65 4575.79,2266.46 4525.36,2266.46 4491.74,2283.27 4458.11,2333.7 4441.3,2350.52 4424.49,2400.95 4407.68,2367.33 4424.49,2300.08 4424.49,2249.65 4390.87,2232.83 4323.62,2232.83 4306.8,2216.02 4256.37,2165.59 4289.99,1997.47 4306.8,1913.41 4273.18,1812.54 4256.37,1711.67 4205.94,1661.23 4155.5,1560.36 4172.31,1526.73 4306.8,1493.11 4374.05,1476.3 4491.74,1493.11 4508.55,1493.11 4525.36,1577.17 4558.98,1560.36 4575.79,1509.92 4609.42,1509.92 4626.23,1476.3 4626.23,1493.11 4643.04,1476.3 4659.85,1493.11 4710.29,1543.55 4727.11,1577.17 4743.91,1560.36 4861.59,1577.17 4878.41,1560.36 4912.03,1593.99 4928.85,1577.17 4928.85,1644.42 4962.47,1644.42 4996.09,1627.6 4996.09,1610.8 5012.9,1593.99 5012.9,1610.8 5029.72,1593.99 5046.52,1577.17 5130.59,1577.17 5130.59,1543.55 5147.4,1543.55 5130.59,1526.73 5147.4,1509.92 5130.59,1509.92 5130.59,1476.3 5147.4,1493.11 5181.02,1509.92 5181.02,1442.68 5231.46,1442.68 5197.84,1425.87 5231.46,1409.05 5231.46,1425.87 5248.27,1409.05 5231.46,1392.24 5265.08,1392.24 5265.08,1375.43 5298.7,1375.43 5349.14,1392.24 5349.14,1425.87 5382.76,1425.87 5365.95,1409.05 5382.76,1409.05 5382.76,1375.43 5433.2,1392.24 5433.2,1375.43 5450.01,1375.43 5466.82,1392.24 5500.45,1409.05 5483.63,1409.05 5500.45,1409.05 5500.45,1425.87 5483.63,1442.68 5500.45,1425.87 5500.45,1459.49 5500.45,1442.68 5500.45,1459.49 5517.26,1459.49 5534.07,1425.87 5550.88,1476.3 5567.69,1459.49 5550.88,1459.49 5567.69,1442.68 5517.26,1425.87 5534.07,1409.05 5550.88,1409.05 5534.07,1392.24 5584.5,1409.05 5601.32,1392.24 5618.13,1392.24 5618.13,1375.43 5651.75,1375.43 5668.56,1409.05 5685.37,1392.24 5719,1392.24 5735.82,1425.87 "/>
  <path class="fil1" d="M4558.71 1856.15l7.16 0 0 -22.23c1.64,0.41 3.62,0.5 5.76,0.5 6.99,0 13.17,-2.06 16.96,-6.09 2.79,-2.89 4.27,-6.84 4.27,-11.86 0,-4.94 -1.81,-8.97 -4.85,-11.6 -3.29,-2.97 -8.48,-4.61 -15.56,-4.61 -5.76,0 -10.29,0.49 -13.74,1.07l0 54.82zm7.16 -49.64c1.23,-0.33 3.62,-0.57 6.75,-0.57 7.9,0 13.08,3.54 13.08,10.86 0,7.66 -5.26,11.85 -13.91,11.85 -2.38,0 -4.36,-0.16 -5.92,-0.57l0 -21.57zm65.35 17.7l-21.56 0 0 -17.53 22.8 0 0 -6.01 -29.97 0 0 55.48 31.2 0 0 -6.01 -24.03 0 0 -20 21.56 0 0 -5.93zm11.77 31.77c3.62,0.41 7.9,0.66 13.01,0.66 10.78,0 19.34,-2.8 24.52,-7.98 5.19,-5.11 7.99,-12.52 7.99,-21.57 0,-8.97 -2.88,-15.39 -7.82,-19.92 -4.86,-4.53 -12.18,-6.91 -22.47,-6.91 -5.68,0 -10.87,0.49 -15.23,1.15l0 54.57zm7.16 -49.3c1.9,-0.41 4.69,-0.74 8.4,-0.74 15.14,0 22.55,8.31 22.47,21.4 0,14.98 -8.31,23.54 -23.62,23.54 -2.8,0 -5.44,-0.08 -7.25,-0.41l0 -43.79zm47.66 49.47l7.16 0 0 -24.04 6.75 0c6.5,0.25 9.47,3.13 11.11,10.78 1.57,6.92 2.8,11.69 3.71,13.26l7.4 0c-1.15,-2.14 -2.46,-7.49 -4.28,-15.23 -1.31,-5.76 -3.86,-9.71 -8.14,-11.2l0 -0.24c5.84,-1.98 10.45,-6.83 10.45,-14.16 0,-4.28 -1.56,-8.07 -4.36,-10.54 -3.46,-3.12 -8.4,-4.52 -16.05,-4.52 -4.94,0 -10.13,0.41 -13.75,1.15l0 54.74zm7.16 -49.72c1.15,-0.33 3.62,-0.66 7.08,-0.66 7.57,0.08 12.76,3.21 12.76,10.37 0,6.34 -4.86,10.54 -12.51,10.54l-7.33 0 0 -20.25zm59.59 -6.67c-14.81,0 -25.76,11.53 -25.76,29.14 0,16.79 10.29,28.15 24.94,28.15 14.16,0 25.76,-10.12 25.76,-29.22 0,-16.46 -9.79,-28.07 -24.94,-28.07zm-0.32 5.85c11.93,0 17.69,11.52 17.69,22.55 0,12.59 -6.42,23.05 -17.78,23.05 -11.27,0 -17.69,-10.62 -17.69,-22.47 0,-12.18 5.92,-23.13 17.78,-23.13zm94.24 21.4l-18.27 0 0 5.76 11.27 0 0 16.54c-1.64,0.83 -4.85,1.49 -9.54,1.49 -12.93,0 -21.4,-8.32 -21.4,-22.39 0,-13.91 8.8,-22.31 22.3,-22.31 5.6,0 9.3,1.07 12.27,2.39l1.72 -5.85c-2.38,-1.15 -7.4,-2.55 -13.82,-2.55 -18.61,0 -29.97,12.1 -30.05,28.65 0,8.64 2.97,16.05 7.74,20.66 5.43,5.18 12.35,7.32 20.74,7.32 7.49,0 13.83,-1.89 17.04,-3.04l0 -26.67zm33.42 -27.25c-14.82,0 -25.76,11.53 -25.76,29.14 0,16.79 10.29,28.15 24.94,28.15 14.15,0 25.76,-10.12 25.76,-29.22 0,-16.46 -9.8,-28.07 -24.94,-28.07zm-0.33 5.85c11.94,0 17.7,11.52 17.7,22.55 0,12.59 -6.42,23.05 -17.78,23.05 -11.28,0 -17.7,-10.62 -17.7,-22.47 0,-12.18 5.93,-23.13 17.78,-23.13zm82.72 50.54l7 0 -3.46 -55.48 -9.14 0 -9.87 26.83c-2.47,7 -4.45,13.09 -5.85,18.69l-0.24 0c-1.4,-5.77 -3.3,-11.86 -5.6,-18.69l-9.47 -26.83 -9.13 0 -3.87 55.48 6.83 0 1.48 -23.79c0.49,-8.32 0.91,-17.62 1.07,-24.53l0.17 0c1.56,6.58 3.78,13.75 6.42,21.57l8.97 26.42 5.43 0 9.8 -26.92c2.79,-7.65 5.1,-14.57 6.99,-21.07l0.25 0c-0.08,6.91 0.41,16.21 0.82,23.95l1.4 24.37zm46.75 -31.94l-21.56 0 0 -17.53 22.8 0 0 -6.01 -29.96 0 0 55.48 31.19 0 0 -6.01 -24.03 0 0 -20 21.56 0 0 -5.93zm8.97 29.22c2.97,1.98 8.81,3.54 14.16,3.54 13.09,0 19.43,-7.41 19.43,-15.97 0,-8.15 -4.78,-12.67 -14.16,-16.3 -7.65,-2.96 -11.03,-5.51 -11.03,-10.7 0,-3.78 2.88,-8.31 10.45,-8.31 5.02,0 8.73,1.65 10.54,2.63l1.98 -5.84c-2.47,-1.4 -6.59,-2.72 -12.27,-2.72 -10.78,0 -17.94,6.42 -17.94,15.07 0,7.82 5.59,12.51 14.65,15.72 7.49,2.88 10.45,5.84 10.45,11.03 0,5.59 -4.28,9.46 -11.6,9.46 -4.94,0 -9.63,-1.64 -12.84,-3.62l-1.82 6.01z"/>
 </g>
</svg>
